<?xml version="1.0" encoding="utf-8"?>
<!-- Generator: Adobe Illustrator 15.0.2, SVG Export Plug-In . SVG Version: 6.00 Build 0)  -->
<!DOCTYPE svg PUBLIC "-//W3C//DTD SVG 1.1//EN" "http://www.w3.org/Graphics/SVG/1.1/DTD/svg11.dtd">
<svg version="1.1" id="Layer_1" xmlns="http://www.w3.org/2000/svg" xmlns:xlink="http://www.w3.org/1999/xlink" x="0px" y="0px"
	 width="815.528px" height="61.49px" viewBox="0 0 815.528 61.49" enable-background="new 0 0 815.528 61.49" xml:space="preserve">
<g>
	<g>
		<path fill="#8AD3E7" d="M273.687,34.391c3.52,1.104,7.03,2.276,10.27,3.74c4.482,2.143,8.38,5.262,12.863,7.406
			c5.847,2.728,12.668,3.312,18.905,3.702c5.652,0.39,16.573,0.055,19.294,0.585c0,0,21.285,0.813,32.157,1.17
			c13.635,0.445,27.286,0.193,40.928,0.973c10.719,0.586,33.717,0.586,33.717,0.586c10.328,0,20.463,1.364,30.792,1.559
			c4.287,0,8.575,0,12.667,0c3.509,0,6.627-0.975,10.135-1.364c4.093-0.39,6.22-1.133,9.533-2.888
			c2.339-1.168,5.279-2.374,7.812-3.934c2.34-1.754,3.898-3.897,6.627-5.846c2.338-1.561,4.678-2.534,7.211-3.509h0.975
			c1.721-0.62,3.223-1.142,4.67-1.585"/>
	</g>
	<polyline fill="none" stroke="#000000" stroke-width="2" points="7.849,26.177 111.521,21.561 281.618,14.292 357.009,12.542 
		372.713,12.542 402.637,12.224 432.188,12.86 447.681,13.073 521.481,14.24 524.931,14.24 637.104,15.109 666.538,15.83 
		714.146,16.883 811.804,20.234 	"/>
	<polyline fill="none" stroke="#000000" points="762.46,21.726 762.46,20.05 756.833,20.05 745.757,20.05 714.329,19.201 
		714.329,20.229 704.511,19.989 690.562,19.81 666.616,19.201 666.616,19.81 637.163,19.201 607.052,18.373 607.052,17.176 
		586.218,16.817 586.218,17.655 565.386,17.475 524.558,17.116 524.558,24.838 525.097,36.752 520.128,39.206 521.444,24.719 	"/>
	<line fill="none" stroke="#000000" x1="357.4" y1="23.473" x2="284.365" y2="25.89"/>
	<line fill="none" stroke="#000000" x1="521.481" y1="14.24" x2="521.444" y2="24.719"/>
	<line fill="none" stroke="#000000" x1="343.746" y1="14.292" x2="343.746" y2="19.246"/>
	<line fill="none" stroke="#000000" x1="353.463" y1="14.208" x2="353.463" y2="18.64"/>
	<line fill="none" stroke="#000000" x1="334.44" y1="14.775" x2="334.44" y2="19.201"/>
	<line fill="none" stroke="#000000" x1="324.812" y1="14.866" x2="324.812" y2="19.62"/>
	<line fill="none" stroke="#000000" x1="315.553" y1="15.129" x2="315.553" y2="19.65"/>
	<line fill="none" stroke="#000000" x1="306.103" y1="15.398" x2="306.103" y2="19.962"/>
	<line fill="none" stroke="#000000" x1="296.75" y1="15.665" x2="296.75" y2="20.1"/>
	<line fill="none" stroke="#000000" x1="517.56" y1="20.207" x2="517.56" y2="15.626"/>
	<polygon fill="none" stroke="#000000" points="449.085,44.512 449.085,52.531 429.497,52.531 429.497,46.387 432.323,44.303 
		447.681,44.303 	"/>
	<polyline fill="none" stroke="#000000" points="432.323,44.303 432.323,12.86 447.681,13.073 447.681,44.303 	"/>
	<line fill="none" stroke="#000000" x1="432.323" y1="20.234" x2="447.681" y2="20.234"/>
	<line fill="none" stroke="#000000" x1="432.323" y1="16.826" x2="447.681" y2="16.826"/>
	<line fill="none" stroke="#000000" x1="447.681" y1="16.044" x2="432.323" y2="16.044"/>
	<path fill="none" stroke="#000000" d="M372.59,19.201c7.929-1.208,15.676-4.619,30.013-4.619c9.453,0,25.238,3.605,29.721,4.893"/>
	<line fill="none" stroke="#000000" x1="357.4" y1="13.939" x2="284.365" y2="16.017"/>
	<line fill="none" stroke="#000000" x1="284.365" y1="16.017" x2="284.365" y2="25.89"/>
	<polyline fill="none" stroke="#000000" stroke-linejoin="bevel" points="284.365,23.859 292.441,15.784 301.562,25.321 
		309.97,15.398 311.528,15.398 320.573,24.692 329.208,14.752 329.905,14.752 339.263,24.074 348.423,14.208 357.21,22.063 	"/>
	<line fill="none" stroke="#000000" x1="357.21" y1="12.542" x2="357.21" y2="23.473"/>
	<polyline fill="none" stroke="#000000" points="357.21,13.939 349.04,23.75 338.691,14.471 329.531,24.396 320.173,14.978 
		310.683,25.019 301.986,15.515 300.57,15.556 291.972,25.321 284.365,17.576 	"/>
	<line fill="none" stroke="#000000" stroke-linejoin="bevel" x1="111.521" y1="21.561" x2="111.521" y2="26.177"/>
	<line fill="none" stroke="#000000" stroke-linejoin="bevel" x1="111.521" y1="22.363" x2="229.445" y2="17.702"/>
	<line fill="none" stroke="#000000" stroke-width="2" stroke-linejoin="bevel" x1="229.445" y1="16.522" x2="229.445" y2="25.266"/>
	<line fill="none" stroke="#000000" stroke-linejoin="bevel" x1="217.485" y1="17.033" x2="217.485" y2="26.177"/>
	<line fill="none" stroke="#000000" stroke-linejoin="bevel" x1="205.878" y1="17.528" x2="205.878" y2="26.177"/>
	<line fill="none" stroke="#000000" stroke-linejoin="bevel" x1="194.442" y1="18.018" x2="194.442" y2="26.177"/>
	<line fill="none" stroke="#000000" stroke-linejoin="bevel" x1="188.196" y1="18.018" x2="188.196" y2="26.177"/>
	<line fill="none" stroke="#000000" stroke-linejoin="bevel" x1="181.515" y1="18.57" x2="181.515" y2="26.177"/>
	<line fill="none" stroke="#000000" stroke-linejoin="bevel" x1="175.095" y1="18.844" x2="175.095" y2="26.177"/>
	<line fill="none" stroke="#000000" stroke-linejoin="bevel" x1="168.762" y1="19.115" x2="168.762" y2="26.177"/>
	<line fill="none" stroke="#000000" stroke-linejoin="bevel" x1="162.514" y1="19.382" x2="162.514" y2="26.177"/>
	<line fill="none" stroke="#000000" stroke-linejoin="bevel" x1="155.739" y1="19.672" x2="155.739" y2="26.177"/>
	<line fill="none" stroke="#000000" stroke-linejoin="bevel" x1="149.586" y1="19.935" x2="149.586" y2="26.177"/>
	<line fill="none" stroke="#000000" stroke-linejoin="bevel" x1="143.166" y1="20.209" x2="143.166" y2="26.177"/>
	<line fill="none" stroke="#000000" stroke-linejoin="bevel" x1="136.658" y1="20.487" x2="136.658" y2="26.177"/>
	<line fill="none" stroke="#000000" stroke-linejoin="bevel" x1="130.147" y1="20.487" x2="130.147" y2="26.177"/>
	<line fill="none" stroke="#000000" stroke-linejoin="bevel" x1="123.552" y1="21.047" x2="123.552" y2="26.177"/>
	<line fill="none" stroke="#000000" stroke-linejoin="bevel" x1="117.043" y1="21.325" x2="117.043" y2="26.177"/>
	<line fill="none" stroke="#000000" stroke-linejoin="bevel" x1="229.445" y1="18.844" x2="281.425" y2="16.988"/>
	<line fill="none" stroke="#000000" stroke-linejoin="bevel" x1="281.618" y1="14.292" x2="281.425" y2="25.89"/>
	<polygon fill="none" stroke="#000000" stroke-linejoin="bevel" points="281.425,26.177 280.545,36.963 285.294,38.546 
		283.976,25.89 	"/>
	<line fill="none" stroke="#000000" stroke-linejoin="bevel" x1="281.425" y1="22.097" x2="284.365" y2="22.097"/>
	<polygon fill="none" stroke="#000000" stroke-linejoin="bevel" points="266.297,31.862 262.427,30.895 264.361,28.081 	"/>
	<line fill="none" stroke="#000000" stroke-width="2" stroke-linejoin="bevel" x1="264.361" y1="15.03" x2="264.361" y2="28.081"/>
	<line fill="none" stroke="#000000" stroke-width="2" stroke-linejoin="bevel" x1="246.948" y1="15.665" x2="246.948" y2="27.201"/>
	<line fill="none" stroke="#000000" stroke-linejoin="bevel" x1="234.024" y1="16.326" x2="234.024" y2="18.57"/>
	<line fill="none" stroke="#000000" stroke-linejoin="bevel" x1="238.326" y1="16.143" x2="238.326" y2="18.534"/>
	<line fill="none" stroke="#000000" stroke-linejoin="bevel" x1="242.292" y1="15.973" x2="242.292" y2="18.018"/>
	<line fill="none" stroke="#000000" stroke-linejoin="bevel" x1="251.349" y1="15.586" x2="251.349" y2="17.917"/>
	<line fill="none" stroke="#000000" stroke-linejoin="bevel" x1="255.731" y1="15.398" x2="255.731" y2="17.702"/>
	<line fill="none" stroke="#000000" stroke-linejoin="bevel" x1="259.612" y1="15.129" x2="259.612" y2="17.528"/>
	<line fill="none" stroke="#000000" stroke-linejoin="bevel" x1="269.2" y1="14.823" x2="269.2" y2="17.448"/>
	<line fill="none" stroke="#000000" stroke-linejoin="bevel" x1="273.243" y1="14.651" x2="273.243" y2="17.289"/>
	<line fill="none" stroke="#000000" stroke-linejoin="bevel" x1="277.994" y1="14.448" x2="277.994" y2="16.988"/>
	<line fill="none" stroke="#000000" stroke-linejoin="bevel" x1="287.493" y1="15.929" x2="287.493" y2="20.746"/>
	<polygon fill="none" stroke="#000000" stroke-linejoin="bevel" points="356.095,44.352 372.454,44.352 374.829,46.412 
		374.829,50.438 356.095,50.438 	"/>
	<line fill="none" stroke="#000000" stroke-linejoin="bevel" x1="357.4" y1="23.473" x2="357.4" y2="44.352"/>
	<line fill="none" stroke="#000000" stroke-linejoin="bevel" x1="372.493" y1="44.352" x2="372.493" y2="12.542"/>
	<line fill="none" stroke="#000000" stroke-linecap="square" x1="357.21" y1="20.032" x2="372.493" y2="20.032"/>
	<line fill="none" stroke="#000000" x1="357.21" y1="15.398" x2="372.493" y2="15.398"/>
	<line fill="none" stroke="#000000" x1="372.493" y1="16.143" x2="357.21" y2="16.143"/>
	<line fill="none" stroke="#000000" stroke-linecap="square" x1="372.59" y1="13.939" x2="393.476" y2="13.939"/>
	<line fill="none" stroke="#000000" x1="393.476" y1="13.97" x2="393.476" y2="15.077"/>
	<line fill="none" stroke="#000000" x1="375.445" y1="13.939" x2="375.445" y2="18.64"/>
	<line fill="none" stroke="#000000" x1="379.843" y1="13.939" x2="379.843" y2="17.671"/>
	<line fill="none" stroke="#000000" x1="384.504" y1="13.811" x2="384.504" y2="16.604"/>
	<line fill="none" stroke="#000000" x1="388.901" y1="13.811" x2="388.901" y2="15.718"/>
	<line fill="none" stroke="#000000" x1="372.59" y1="15.805" x2="375.435" y2="18.65"/>
	<line fill="none" stroke="#000000" x1="375.445" y1="13.939" x2="379.843" y2="17.671"/>
	<line fill="none" stroke="#000000" x1="379.843" y1="13.939" x2="384.504" y2="16.604"/>
	<line fill="none" stroke="#000000" x1="384.504" y1="13.97" x2="388.901" y2="15.718"/>
	<line fill="none" stroke="#000000" x1="388.901" y1="13.97" x2="393.476" y2="15.077"/>
	<line fill="none" stroke="#000000" stroke-linecap="square" x1="432.323" y1="13.73" x2="411.945" y2="13.73"/>
	<line fill="none" stroke="#000000" x1="411.945" y1="13.73" x2="411.945" y2="15.338"/>
	<line fill="none" stroke="#000000" x1="416.343" y1="13.73" x2="416.343" y2="16.017"/>
	<line fill="none" stroke="#000000" x1="420.739" y1="13.73" x2="420.739" y2="16.826"/>
	<line fill="none" stroke="#000000" x1="425.577" y1="13.811" x2="425.577" y2="17.803"/>
	<line fill="none" stroke="#000000" x1="429.497" y1="13.811" x2="429.497" y2="18.732"/>
	<line fill="none" stroke="#000000" x1="432.323" y1="16.044" x2="429.497" y2="18.732"/>
	<line fill="none" stroke="#000000" x1="429.497" y1="13.811" x2="425.577" y2="17.803"/>
	<line fill="none" stroke="#000000" x1="425.577" y1="13.811" x2="420.739" y2="16.826"/>
	<line fill="none" stroke="#000000" x1="420.739" y1="13.73" x2="416.343" y2="15.586"/>
	<line fill="none" stroke="#000000" x1="416.343" y1="13.73" x2="411.945" y2="15.338"/>
	<line fill="none" stroke="#000000" x1="402.637" y1="12.224" x2="402.603" y2="14.582"/>
	<line fill="none" stroke="#000000" x1="447.681" y1="24.035" x2="521.444" y2="24.719"/>
	<line fill="none" stroke="#000000" x1="521.481" y1="15.718" x2="447.681" y2="14.658"/>
	<line fill="none" stroke="#000000" x1="447.681" y1="14.658" x2="455.921" y2="24.111"/>
	<line fill="none" stroke="#000000" x1="465.419" y1="14.874" x2="455.921" y2="24.111"/>
	<line fill="none" stroke="#000000" x1="465.419" y1="14.874" x2="475.534" y2="24.377"/>
	<line fill="none" stroke="#000000" x1="475.534" y1="24.377" x2="485.032" y2="15.188"/>
	<line fill="none" stroke="#000000" x1="485.032" y1="15.188" x2="494.356" y2="24.468"/>
	<line fill="none" stroke="#000000" x1="494.356" y1="24.468" x2="503.591" y2="15.398"/>
	<line fill="none" stroke="#000000" x1="503.591" y1="15.398" x2="513.177" y2="24.642"/>
	<line fill="none" stroke="#000000" x1="513.177" y1="24.642" x2="521.444" y2="16.272"/>
	<line fill="none" stroke="#000000" x1="521.444" y1="24.035" x2="512.737" y2="15.592"/>
	<line fill="none" stroke="#000000" x1="512.737" y1="15.592" x2="503.591" y2="24.642"/>
	<line fill="none" stroke="#000000" x1="503.591" y1="24.642" x2="494.356" y2="15.328"/>
	<line fill="none" stroke="#000000" x1="494.356" y1="15.328" x2="485.032" y2="24.111"/>
	<line fill="none" stroke="#000000" x1="485.032" y1="24.111" x2="475.534" y2="15.057"/>
	<line fill="none" stroke="#000000" x1="475.534" y1="15.057" x2="465.419" y2="24.199"/>
	<line fill="none" stroke="#000000" x1="465.419" y1="24.199" x2="455.921" y2="14.874"/>
	<line fill="none" stroke="#000000" x1="455.921" y1="14.874" x2="447.681" y2="22.892"/>
	<line fill="none" stroke="#000000" x1="451.611" y1="14.658" x2="451.611" y2="19.201"/>
	<line fill="none" stroke="#000000" x1="460.671" y1="14.764" x2="460.671" y2="19.457"/>
	<line fill="none" stroke="#000000" x1="470.478" y1="14.978" x2="470.478" y2="19.457"/>
	<line fill="none" stroke="#000000" x1="480.283" y1="14.978" x2="480.283" y2="19.72"/>
	<line fill="none" stroke="#000000" x1="489.694" y1="15.328" x2="489.694" y2="19.828"/>
	<line fill="none" stroke="#000000" x1="498.974" y1="15.328" x2="498.974" y2="19.828"/>
	<line fill="none" stroke="#000000" x1="508.384" y1="15.718" x2="508.384" y2="19.985"/>
	<polygon fill="none" stroke="#000000" points="437.586,7.324 440.538,6.091 443.043,7.324 	"/>
	<line fill="none" stroke="#000000" x1="442.112" y1="7.324" x2="442.112" y2="16.044"/>
	<line fill="none" stroke="#000000" x1="440.97" y1="7.324" x2="440.97" y2="16.044"/>
	<line fill="none" stroke="#000000" x1="439.466" y1="7.324" x2="439.466" y2="16.017"/>
	<line fill="none" stroke="#000000" x1="438.683" y1="7.324" x2="438.683" y2="16.044"/>
	<line fill="none" stroke="#000000" x1="438.683" y1="8.467" x2="442.112" y2="8.467"/>
	<line fill="none" stroke="#000000" x1="438.683" y1="9.581" x2="442.112" y2="9.581"/>
	<line fill="none" stroke="#000000" x1="524.931" y1="14.24" x2="524.931" y2="17.116"/>
	<line fill="none" stroke="#000000" x1="528.319" y1="14.267" x2="528.319" y2="17.111"/>
	<line fill="none" stroke="#000000" x1="532.581" y1="14.299" x2="532.581" y2="16.93"/>
	<line fill="none" stroke="#000000" x1="536.583" y1="14.33" x2="536.583" y2="17.221"/>
	<line fill="none" stroke="#000000" x1="540.8" y1="14.33" x2="540.8" y2="17.111"/>
	<line fill="none" stroke="#000000" x1="544.583" y1="14.33" x2="544.583" y2="17.116"/>
	<line fill="none" stroke="#000000" x1="549.341" y1="14.429" x2="549.341" y2="17.221"/>
	<line fill="none" stroke="#000000" x1="553.343" y1="14.24" x2="553.343" y2="17.116"/>
	<line fill="none" stroke="#000000" x1="557.56" y1="14.33" x2="557.56" y2="17.221"/>
	<line fill="none" stroke="#000000" x1="561.345" y1="14.522" x2="561.345" y2="17.349"/>
	<line fill="none" stroke="#000000" x1="565.452" y1="14.429" x2="565.452" y2="17.475"/>
	<line fill="none" stroke="#000000" x1="569.993" y1="14.658" x2="569.993" y2="17.475"/>
	<line fill="none" stroke="#000000" x1="573.995" y1="14.658" x2="573.995" y2="17.578"/>
	<line fill="none" stroke="#000000" x1="578.104" y1="14.522" x2="578.104" y2="17.578"/>
	<line fill="none" stroke="#000000" x1="581.997" y1="14.33" x2="581.997" y2="17.475"/>
	<line fill="none" stroke="#000000" x1="586.214" y1="14.522" x2="586.214" y2="17.655"/>
	<line fill="none" stroke="#000000" x1="591.079" y1="14.522" x2="591.079" y2="16.817"/>
	<line fill="none" stroke="#000000" x1="595.081" y1="14.764" x2="595.081" y2="16.97"/>
	<line fill="none" stroke="#000000" x1="599.188" y1="14.764" x2="599.188" y2="17.04"/>
	<line fill="none" stroke="#000000" x1="603.081" y1="14.658" x2="603.081" y2="17.111"/>
	<line fill="none" stroke="#000000" x1="606.702" y1="14.874" x2="606.702" y2="18.373"/>
	<line fill="none" stroke="#000000" x1="612.056" y1="14.874" x2="612.056" y2="18.511"/>
	<line fill="none" stroke="#000000" x1="616.165" y1="14.658" x2="616.165" y2="18.511"/>
	<line fill="none" stroke="#000000" x1="620.112" y1="14.978" x2="620.112" y2="18.511"/>
	<line fill="none" stroke="#000000" x1="624.167" y1="15.009" x2="624.167" y2="18.511"/>
	<line fill="none" stroke="#000000" x1="628.817" y1="15.045" x2="628.817" y2="18.511"/>
	<line fill="none" stroke="#000000" x1="632.601" y1="15.074" x2="632.601" y2="18.882"/>
	<line fill="none" stroke="#000000" x1="637.104" y1="15.109" x2="637.104" y2="19.201"/>
	<line fill="none" stroke="#000000" x1="641.792" y1="15.328" x2="641.792" y2="18.882"/>
	<line fill="none" stroke="#000000" x1="645.47" y1="15.188" x2="645.47" y2="19.382"/>
	<line fill="none" stroke="#000000" x1="649.577" y1="15.415" x2="649.577" y2="19.382"/>
	<line fill="none" stroke="#000000" x1="653.794" y1="15.328" x2="653.794" y2="19.382"/>
	<line fill="none" stroke="#000000" x1="658.218" y1="15.626" x2="658.218" y2="19.479"/>
	<line fill="none" stroke="#000000" x1="661.95" y1="15.718" x2="661.95" y2="19.716"/>
	<line fill="none" stroke="#000000" stroke-width="2" x1="666.538" y1="15.83" x2="666.538" y2="28.011"/>
	<line fill="none" stroke="#000000" x1="672.06" y1="15.952" x2="672.06" y2="18.882"/>
	<line fill="none" stroke="#000000" x1="676.491" y1="16.05" x2="676.491" y2="19.438"/>
	<line fill="none" stroke="#000000" x1="680.935" y1="16.272" x2="680.935" y2="19.382"/>
	<line fill="none" stroke="#000000" x1="685.261" y1="16.272" x2="685.261" y2="19.479"/>
	<line fill="none" stroke="#000000" stroke-width="2" x1="690.343" y1="16.356" x2="690.343" y2="28.011"/>
	<line fill="none" stroke="#000000" x1="694.884" y1="16.458" x2="694.884" y2="19.716"/>
	<line fill="none" stroke="#000000" x1="700.073" y1="16.356" x2="700.073" y2="19.716"/>
	<line fill="none" stroke="#000000" x1="704.616" y1="16.458" x2="704.616" y2="19.989"/>
	<line fill="none" stroke="#000000" x1="709.38" y1="16.777" x2="709.38" y2="20.021"/>
	<line fill="none" stroke="#000000" x1="714.146" y1="16.883" x2="714.146" y2="21.921"/>
	<line fill="none" stroke="#000000" x1="721.021" y1="19.382" x2="721.021" y2="21.254"/>
	<line fill="none" stroke="#000000" x1="726.997" y1="19.402" x2="726.997" y2="21.254"/>
	<line fill="none" stroke="#000000" x1="733.431" y1="19.716" x2="733.431" y2="21.254"/>
	<line fill="none" stroke="#000000" x1="739.54" y1="19.882" x2="739.54" y2="21.254"/>
	<line fill="none" stroke="#000000" x1="746.247" y1="17.985" x2="746.247" y2="21.921"/>
	<line fill="none" stroke="#000000" x1="756.841" y1="18.348" x2="756.841" y2="21.921"/>
	<line fill="none" stroke="#000000" x1="521.444" y1="21.355" x2="524.558" y2="21.355"/>
	<line fill="none" stroke="#000000" x1="521.444" y1="24.719" x2="524.558" y2="24.719"/>
	<polygon fill="none" stroke="#000000" points="542.825,33.196 546.948,33.196 545.72,27.145 543.353,27.145 	"/>
	<polygon fill="none" stroke="#000000" points="563.614,32.494 567.823,32.494 566.683,27.145 564.052,27.145 	"/>
	<polygon fill="none" stroke="#000000" points="584.841,30.17 588.085,30.17 587.56,27.145 585.229,27.145 	"/>
	<line fill="none" stroke="#000000" stroke-width="2" x1="544.194" y1="17.116" x2="544.194" y2="27.145"/>
	<line fill="none" stroke="#000000" stroke-width="2" x1="565.386" y1="17.475" x2="565.386" y2="27.145"/>
	<line fill="none" stroke="#000000" stroke-width="2" x1="586.218" y1="17.655" x2="586.218" y2="27.145"/>
	<line fill="none" stroke="#000000" stroke-width="2" x1="607.052" y1="18.373" x2="607.052" y2="28.011"/>
	<polygon fill="none" stroke="#000000" points="635.452,29.819 638.786,29.819 638.396,27.145 636.067,27.145 	"/>
	<line fill="none" stroke="#000000" stroke-width="2" x1="636.894" y1="19.183" x2="636.894" y2="27.145"/>
	<polygon fill="none" stroke="#000000" points="362.123,6.6 365.075,5.367 367.58,6.6 	"/>
	<line fill="none" stroke="#000000" x1="366.65" y1="6.6" x2="366.65" y2="15.318"/>
	<line fill="none" stroke="#000000" x1="365.506" y1="6.6" x2="365.506" y2="15.318"/>
	<line fill="none" stroke="#000000" x1="364.004" y1="6.6" x2="364.004" y2="15.292"/>
	<line fill="none" stroke="#000000" x1="363.219" y1="6.6" x2="363.219" y2="15.318"/>
	<line fill="none" stroke="#000000" x1="363.219" y1="7.742" x2="366.65" y2="7.742"/>
	<line fill="none" stroke="#000000" x1="363.219" y1="8.856" x2="366.65" y2="8.856"/>
	<g>
		<g>
			<path d="M7.22,26.56c15.205,0.449,30.389-0.024,45.594,0.029c12.342,0.043,24.672,0.585,37.016,0.604
				c6.245,0.01,12.664,0.136,18.813-0.255c7.72-0.492,15.383-0.365,23.14-0.638c8.34-0.293,16.573,0.652,24.898,0.569
				c13.185-0.131,26.354-0.04,39.465,0.001c8.466,0.027,17.641,1.311,26.022-0.026c7.961-1.269,15.53-3.179,23.136,0.335
				c4.063,1.877,8.346,2.806,12.724,3.686c11.281,2.265,22.383,5.607,32.2,11.764c10.37,6.504,21.693,7.145,33.641,7.249
				c7.12,0.062,14.221,0.502,21.339,0.767c25.401,0.947,50.84,1.71,76.252,2.157c7.882,0.139,15.769,0.047,23.648,0.225
				c7.698,0.174,15.373,1.005,23.062,1.377c6.564,0.318,13.869,0.87,20.386-0.186c11.104-1.798,20.943-4.146,29.345-12.195
				c4.165-3.99,10.17-5.442,15.582-7.047c3.664-1.087,7.386-1.34,11.174-1.517c3.477-0.163,6.738-1.229,10.276-1.057
				c23.341,1.135,46.21-5.479,69.61-2.663c10.225,1.231,19.677,1.208,29.9-0.2c8.16-1.124,16.427-0.704,24.639-0.562
				c6.079,0.105,12.295-0.2,18.351,0.287c4.946,0.397,12.648,1.23,16.438-2.756c0.455-0.479,0.712-1.215,0.972-1.807
				c0.99-2.26,3.858-2.214,5.997-2.162c3.556,0.087,7.107,0.219,10.665,0.28c7.696,0.131,15.386,0.541,23.078,0.778
				c11.594,0.358,23.048-0.407,34.611-0.987c7.864-0.394,15.962,1.767,23.212-2.301c0.814-0.457-1.134-0.224-1.473-0.033
				c-6.177,3.465-13.339,1.215-19.917,1.537c-4.157,0.204-8.316,0.394-12.465,0.732c-16.489,1.347-33.101-0.366-49.604-0.545
				c-4.544-0.049-9.411-0.988-13.776,0.596c-0.844,0.306-1.376,0.952-1.872,1.662c-2.833,4.067-5.634,4.443-10.321,4.432
				c-12.755-0.033-25.532-0.63-38.298-0.655c-6.842-0.014-13.582,1.54-20.384,2.069c-5.761,0.448-11.704-0.357-17.419-1.01
				c-10.786-1.23-21.322-0.985-32.148-0.054c-12.97,1.115-25.453,3.536-38.537,2.596c-5.082-0.364-10.023,1.002-15.087,1.278
				c-2.157,0.118-4.327,0.654-6.425,1.138c-2.323,0.535-5.068,2.169-7.4,2.169c-2.62,0-6.722,2.428-8.713,3.971
				c-3.277,2.538-5.69,5.431-9.478,7.374c-4.909,2.519-9.361,4.314-14.925,5.075c-15.991,2.187-31.75,0.187-47.798-0.381
				c-20.926-0.739-41.986-1.062-62.921-1.316c-19.449-0.236-38.885-1.682-58.318-1.832c-6.081-0.047-12.132-0.266-18.154-1.181
				c-7.923-1.204-13.786-5.553-20.58-9.346c-8.778-4.899-19.294-6.888-29.037-8.917c-4.481-0.933-8.403-2.402-12.594-4.192
				c-3.541-1.513-7.239-1.258-10.989-1.008c-5.594,0.373-11.04,1.359-16.642,1.64c-4.139,0.208-8.182,0.122-12.344,0.14
				c-8.979,0.039-17.893-0.543-26.857-0.38c-6.665,0.122-13.326,0.092-19.993,0.233c-7.036,0.148-14.012-0.768-21.052-0.675
				c-19.647,0.261-34.172,1.077-52.102,0.976c-11.493-0.065-22.974-0.591-34.469-0.588c-13.956,0.003-27.884,0.39-41.839-0.022
				C8.085,25.783,6.275,26.532,7.22,26.56L7.22,26.56z"/>
		</g>
	</g>
</g>
</svg>
