<?xml version="1.0" encoding="utf-8"?>
<!-- Generator: Adobe Illustrator 15.0.2, SVG Export Plug-In . SVG Version: 6.00 Build 0)  -->
<!DOCTYPE svg PUBLIC "-//W3C//DTD SVG 1.1//EN" "http://www.w3.org/Graphics/SVG/1.1/DTD/svg11.dtd">
<svg version="1.1" id="Layer_1" xmlns="http://www.w3.org/2000/svg" xmlns:xlink="http://www.w3.org/1999/xlink" x="0px" y="0px"
	 width="815.528px" height="91.304px" viewBox="0 0 815.528 91.304" enable-background="new 0 0 815.528 91.304"
	 xml:space="preserve">
<g>
	<g>
		<path fill="#8AD3E7" d="M128.319,71.593c-0.09,1.318-0.14,2.602,0.015,3.783c0.312,2.495,1.247,2.495,3.431,3.431
			c2.65,1.248,4.677,1.248,7.483,1.715c9.978,1.871,31.649,2.65,32.117,2.496h0.001c9.104-1.717,17.773-0.625,26.66-1.092
			c5.301-0.312,10.602,0.467,15.747,0.156c3.273-0.156,6.392-1.248,9.666-1.092c2.962,0,5.769,0.156,8.73,0
			c6.549-0.312,12.94,0.312,19.489,0.156l0.156,0.154c6.08-0.936,9.275-2.084,15.355-2.24c7.328-0.156,16.605-0.254,23.934-0.564
			c12.628-0.47,24.634,1.559,37.106-0.625c3.741-0.78,13.903-1.3,13.903-1.3c9.354,0,18.837,0.832,28.036,1.144
			c4.833,0.156,9.667,0.312,14.499,0.312c3.275,0,11.383-1.091,11.383-1.091c5.924,0,12.316-0.78,9.977-0.624
			c11.849,0,23.698,0,35.704,0c0,0,4.988-1.092,7.482-1.559c2.963-0.468,5.926-0.468,8.887-0.468c2.65,0,5.543-0.774,8.193-1.397
			c2.027-0.469,5.371-0.162,5.371-0.162c7.016,0,13.877,1.091,20.736,2.026c3.273,0.312,6.08,0,9.199-1.091
			c2.961-0.936,6.08-0.936,9.51-0.625c3.898,0.156,7.795,0.469,11.537,0.936c4.99,0.469,9.678-0.831,14.51-1.143
			c3.773-0.29,5.9-0.837,8.435-1.271"/>
	</g>
	<polyline fill="none" stroke="#000000" stroke-miterlimit="10" points="539.854,58.324 543.802,58.37 743.08,61.605 	"/>
	<polyline fill="none" stroke="#000000" stroke-miterlimit="10" points="77.077,57.375 116.883,57.375 190.026,54.637 
		267.15,54.637 342.835,55.994 	"/>
	<line fill="none" stroke="#000000" stroke-miterlimit="10" x1="190.729" y1="4.013" x2="190.729" y2="54.637"/>
	<g>
		<path fill="none" stroke="#000000" stroke-miterlimit="10" d="M190.729,45.682h-7.42c0,0-20.4-2.239-28.859-2.239
			s-32.342,4.479-32.342,4.479l-6.68,9.453"/>
		<line fill="none" stroke="#000000" stroke-miterlimit="10" x1="122.108" y1="47.921" x2="122.108" y2="57.177"/>
		<line fill="none" stroke="#000000" stroke-miterlimit="10" x1="128.508" y1="46.779" x2="128.508" y2="56.939"/>
		<line fill="none" stroke="#000000" stroke-miterlimit="10" x1="135.871" y1="45.561" x2="135.871" y2="56.683"/>
		<line fill="none" stroke="#000000" stroke-miterlimit="10" x1="142.135" y1="44.628" x2="142.135" y2="56.434"/>
		<line fill="none" stroke="#000000" stroke-miterlimit="10" x1="148.743" y1="43.813" x2="148.743" y2="56.164"/>
		<line fill="none" stroke="#000000" stroke-miterlimit="10" x1="155.263" y1="43.449" x2="155.263" y2="55.931"/>
		<line fill="none" stroke="#000000" stroke-miterlimit="10" x1="162.006" y1="43.813" x2="162.006" y2="55.653"/>
		<line fill="none" stroke="#000000" stroke-miterlimit="10" x1="169.457" y1="44.333" x2="169.457" y2="55.379"/>
		<line fill="none" stroke="#000000" stroke-miterlimit="10" x1="175.974" y1="44.931" x2="175.974" y2="54.637"/>
		<line fill="none" stroke="#000000" stroke-miterlimit="10" x1="183.31" y1="45.682" x2="183.31" y2="54.878"/>
		<line fill="none" stroke="#000000" stroke-miterlimit="10" x1="183.31" y1="46.464" x2="190.729" y2="54.637"/>
		<line fill="none" stroke="#000000" stroke-miterlimit="10" x1="183.31" y1="46.464" x2="175.974" y2="54.637"/>
		<line fill="none" stroke="#000000" stroke-miterlimit="10" x1="175.974" y1="44.931" x2="169.457" y2="55.379"/>
		<line fill="none" stroke="#000000" stroke-miterlimit="10" x1="169.457" y1="44.333" x2="162.883" y2="55.653"/>
		<line fill="none" stroke="#000000" stroke-miterlimit="10" x1="162.006" y1="44.333" x2="155.263" y2="55.931"/>
		<line fill="none" stroke="#000000" stroke-miterlimit="10" x1="155.263" y1="43.813" x2="148.743" y2="56.164"/>
		<line fill="none" stroke="#000000" stroke-miterlimit="10" x1="148.743" y1="44.333" x2="155.263" y2="55.931"/>
		<line fill="none" stroke="#000000" stroke-miterlimit="10" x1="142.135" y1="44.628" x2="149.246" y2="56.164"/>
		<line fill="none" stroke="#000000" stroke-miterlimit="10" x1="135.871" y1="45.561" x2="142.135" y2="56.434"/>
		<line fill="none" stroke="#000000" stroke-miterlimit="10" x1="128.508" y1="46.779" x2="135.871" y2="56.164"/>
		<line fill="none" stroke="#000000" stroke-miterlimit="10" x1="122.108" y1="47.921" x2="128.508" y2="56.434"/>
		<line fill="none" stroke="#000000" stroke-miterlimit="10" x1="190.729" y1="4.013" x2="187.636" y2="4.013"/>
		<line fill="none" stroke="#000000" stroke-miterlimit="10" x1="187.636" y1="4.013" x2="175.974" y2="44.931"/>
		<line fill="none" stroke="#000000" stroke-miterlimit="10" x1="187.636" y1="4.013" x2="190.729" y2="9.489"/>
		<line fill="none" stroke="#000000" stroke-miterlimit="10" x1="190.729" y1="9.489" x2="186.075" y2="9.489"/>
		<line fill="none" stroke="#000000" stroke-miterlimit="10" x1="186.075" y1="9.489" x2="190.729" y2="15.836"/>
		<line fill="none" stroke="#000000" stroke-miterlimit="10" x1="190.729" y1="15.836" x2="184.266" y2="15.836"/>
		<line fill="none" stroke="#000000" stroke-miterlimit="10" x1="184.029" y1="16.666" x2="190.729" y2="24.961"/>
		<line fill="none" stroke="#000000" stroke-miterlimit="10" x1="190.729" y1="24.961" x2="181.665" y2="24.961"/>
		<line fill="none" stroke="#000000" stroke-miterlimit="10" x1="181.665" y1="24.961" x2="190.729" y2="36.07"/>
		<line fill="none" stroke="#000000" stroke-miterlimit="10" x1="190.729" y1="36.07" x2="178.499" y2="36.07"/>
		<line fill="none" stroke="#000000" stroke-miterlimit="10" x1="178.499" y1="36.07" x2="190.729" y2="45.682"/>
	</g>
	<g>
		<path fill="none" stroke="#000000" stroke-miterlimit="10" d="M267.847,45.503h7.42c0,0,20.4-2.238,28.859-2.238
			s32.343,4.478,32.343,4.478l5.646,8.42"/>
		<line fill="none" stroke="#000000" stroke-miterlimit="10" x1="336.469" y1="47.743" x2="336.469" y2="55.985"/>
		<line fill="none" stroke="#000000" stroke-miterlimit="10" x1="330.069" y1="46.6" x2="330.069" y2="55.764"/>
		<line fill="none" stroke="#000000" stroke-miterlimit="10" x1="322.706" y1="45.382" x2="322.706" y2="55.985"/>
		<line fill="none" stroke="#000000" stroke-miterlimit="10" x1="316.442" y1="44.45" x2="316.442" y2="55.52"/>
		<line fill="none" stroke="#000000" stroke-miterlimit="10" x1="309.833" y1="43.634" x2="309.833" y2="55.985"/>
		<line fill="none" stroke="#000000" stroke-miterlimit="10" x1="303.314" y1="43.271" x2="303.314" y2="55.753"/>
		<line fill="none" stroke="#000000" stroke-miterlimit="10" x1="296.57" y1="43.634" x2="296.57" y2="55.474"/>
		<line fill="none" stroke="#000000" stroke-miterlimit="10" x1="289.12" y1="44.154" x2="289.12" y2="55.201"/>
		<line fill="none" stroke="#000000" stroke-miterlimit="10" x1="282.603" y1="44.753" x2="282.603" y2="54.458"/>
		<line fill="none" stroke="#000000" stroke-miterlimit="10" x1="275.267" y1="45.503" x2="275.267" y2="54.7"/>
		<line fill="none" stroke="#000000" stroke-miterlimit="10" x1="275.267" y1="46.287" x2="267.847" y2="54.458"/>
		<line fill="none" stroke="#000000" stroke-miterlimit="10" x1="275.267" y1="46.287" x2="282.603" y2="54.458"/>
		<line fill="none" stroke="#000000" stroke-miterlimit="10" x1="282.603" y1="44.753" x2="289.12" y2="55.201"/>
		<line fill="none" stroke="#000000" stroke-miterlimit="10" x1="289.12" y1="44.154" x2="295.694" y2="55.474"/>
		<line fill="none" stroke="#000000" stroke-miterlimit="10" x1="296.57" y1="44.154" x2="303.314" y2="55.285"/>
		<line fill="none" stroke="#000000" stroke-miterlimit="10" x1="303.314" y1="43.634" x2="309.833" y2="55.985"/>
		<line fill="none" stroke="#000000" stroke-miterlimit="10" x1="309.833" y1="44.154" x2="303.314" y2="55.285"/>
		<line fill="none" stroke="#000000" stroke-miterlimit="10" x1="316.442" y1="44.45" x2="309.331" y2="55.985"/>
		<line fill="none" stroke="#000000" stroke-miterlimit="10" x1="322.706" y1="45.382" x2="316.442" y2="55.52"/>
		<line fill="none" stroke="#000000" stroke-miterlimit="10" x1="330.069" y1="46.6" x2="322.706" y2="55.985"/>
		<line fill="none" stroke="#000000" stroke-miterlimit="10" x1="336.469" y1="47.743" x2="330.069" y2="55.764"/>
		<line fill="none" stroke="#000000" stroke-miterlimit="10" x1="267.847" y1="3.835" x2="270.941" y2="3.835"/>
		<line fill="none" stroke="#000000" stroke-miterlimit="10" x1="270.941" y1="3.835" x2="282.603" y2="44.753"/>
		<line fill="none" stroke="#000000" stroke-miterlimit="10" x1="270.941" y1="3.835" x2="267.847" y2="9.31"/>
		<line fill="none" stroke="#000000" stroke-miterlimit="10" x1="267.847" y1="9.31" x2="272.502" y2="9.31"/>
		<line fill="none" stroke="#000000" stroke-miterlimit="10" x1="272.502" y1="9.31" x2="267.847" y2="15.658"/>
		<line fill="none" stroke="#000000" stroke-miterlimit="10" x1="267.847" y1="15.658" x2="274.311" y2="15.658"/>
		<line fill="none" stroke="#000000" stroke-miterlimit="10" x1="274.547" y1="16.487" x2="267.847" y2="24.783"/>
		<line fill="none" stroke="#000000" stroke-miterlimit="10" x1="267.847" y1="24.783" x2="276.911" y2="24.783"/>
		<line fill="none" stroke="#000000" stroke-miterlimit="10" x1="276.911" y1="24.783" x2="267.847" y2="35.892"/>
		<line fill="none" stroke="#000000" stroke-miterlimit="10" x1="267.847" y1="35.892" x2="280.077" y2="35.892"/>
		<line fill="none" stroke="#000000" stroke-miterlimit="10" x1="280.077" y1="35.892" x2="267.847" y2="45.503"/>
	</g>
	<line fill="none" stroke="#000000" stroke-miterlimit="10" x1="267.847" y1="3.835" x2="267.847" y2="54.637"/>
	<g>
		<polyline fill="none" stroke="#000000" stroke-miterlimit="10" points="342.835,55.994 343.527,56.005 408.216,56.769 		"/>
		<path fill="none" stroke="#000000" stroke-miterlimit="10" d="M343.527,56.005l7.403-8.826c7.775-1.429,14.996-2.472,22.059-2.426
			c7.062,0.045,23.725,1.473,27.771,2.426l7.455,9.59"/>
		<line fill="none" stroke="#000000" stroke-miterlimit="10" x1="350.931" y1="47.179" x2="350.931" y2="56.089"/>
		<line fill="none" stroke="#000000" stroke-miterlimit="10" x1="357.759" y1="46.021" x2="357.759" y2="56.163"/>
		<line fill="none" stroke="#000000" stroke-miterlimit="10" x1="365.219" y1="45.101" x2="365.219" y2="56.257"/>
		<line fill="none" stroke="#000000" stroke-miterlimit="10" x1="372.165" y1="44.753" x2="372.165" y2="56.338"/>
		<line fill="none" stroke="#000000" stroke-miterlimit="10" x1="379.33" y1="44.994" x2="379.33" y2="56.424"/>
		<line fill="none" stroke="#000000" stroke-miterlimit="10" x1="386.161" y1="45.382" x2="386.161" y2="56.507"/>
		<line fill="none" stroke="#000000" stroke-miterlimit="10" x1="392.985" y1="46.021" x2="392.985" y2="56.595"/>
		<line fill="none" stroke="#000000" stroke-miterlimit="10" x1="400.761" y1="47.179" x2="400.761" y2="56.507"/>
		<line fill="none" stroke="#000000" stroke-miterlimit="10" x1="400.761" y1="47.179" x2="392.985" y2="56.595"/>
		<line fill="none" stroke="#000000" stroke-miterlimit="10" x1="392.588" y1="46.6" x2="386.161" y2="56.507"/>
		<line fill="none" stroke="#000000" stroke-miterlimit="10" x1="386.161" y1="45.382" x2="379.33" y2="56.424"/>
		<line fill="none" stroke="#000000" stroke-miterlimit="10" x1="379.33" y1="44.994" x2="372.165" y2="56.338"/>
		<line fill="none" stroke="#000000" stroke-miterlimit="10" x1="372.165" y1="44.753" x2="379.33" y2="56.424"/>
		<line fill="none" stroke="#000000" stroke-miterlimit="10" x1="365.219" y1="45.101" x2="372.165" y2="56.338"/>
		<line fill="none" stroke="#000000" stroke-miterlimit="10" x1="357.759" y1="46.021" x2="364.828" y2="56.257"/>
		<line fill="none" stroke="#000000" stroke-miterlimit="10" x1="350.533" y1="47.179" x2="357.759" y2="56.163"/>
	</g>
	<g>
		<line fill="none" stroke="#000000" stroke-miterlimit="10" x1="408.151" y1="56.769" x2="474.246" y2="57.498"/>
		<path fill="none" stroke="#000000" stroke-miterlimit="10" d="M409.354,56.769l6.957-8.464c7.776-1.429,14.997-2.472,22.059-2.426
			s23.725,1.474,27.771,2.426l7.087,9.116"/>
		<line fill="none" stroke="#000000" stroke-miterlimit="10" x1="416.312" y1="48.305" x2="416.312" y2="57.216"/>
		<line fill="none" stroke="#000000" stroke-miterlimit="10" x1="423.141" y1="47.148" x2="423.141" y2="57.289"/>
		<line fill="none" stroke="#000000" stroke-miterlimit="10" x1="430.6" y1="46.227" x2="430.6" y2="57.383"/>
		<line fill="none" stroke="#000000" stroke-miterlimit="10" x1="437.546" y1="45.879" x2="437.546" y2="57.464"/>
		<line fill="none" stroke="#000000" stroke-miterlimit="10" x1="444.711" y1="46.121" x2="444.711" y2="57.55"/>
		<line fill="none" stroke="#000000" stroke-miterlimit="10" x1="451.541" y1="46.509" x2="451.541" y2="57.634"/>
		<line fill="none" stroke="#000000" stroke-miterlimit="10" x1="458.365" y1="47.148" x2="458.365" y2="57.721"/>
		<line fill="none" stroke="#000000" stroke-miterlimit="10" x1="466.142" y1="48.305" x2="466.142" y2="57.634"/>
		<line fill="none" stroke="#000000" stroke-miterlimit="10" x1="466.142" y1="48.305" x2="458.744" y2="57.412"/>
		<line fill="none" stroke="#000000" stroke-miterlimit="10" x1="457.969" y1="47.726" x2="451.838" y2="57.373"/>
		<line fill="none" stroke="#000000" stroke-miterlimit="10" x1="451.541" y1="46.509" x2="444.711" y2="57.133"/>
		<line fill="none" stroke="#000000" stroke-miterlimit="10" x1="444.711" y1="46.121" x2="437.546" y2="57.093"/>
		<line fill="none" stroke="#000000" stroke-miterlimit="10" x1="437.546" y1="45.879" x2="444.711" y2="57.133"/>
		<line fill="none" stroke="#000000" stroke-miterlimit="10" x1="430.6" y1="46.227" x2="437.546" y2="57.093"/>
		<line fill="none" stroke="#000000" stroke-miterlimit="10" x1="423.141" y1="47.148" x2="430.073" y2="57.011"/>
		<line fill="none" stroke="#000000" stroke-miterlimit="10" x1="415.914" y1="48.305" x2="422.729" y2="56.929"/>
	</g>
	<g>
		<polyline fill="none" stroke="#000000" stroke-miterlimit="10" points="474.246,57.498 474.939,57.51 539.627,58.274 		"/>
		<path fill="none" stroke="#000000" stroke-miterlimit="10" d="M474.939,57.51l7.402-8.827c7.775-1.428,14.996-2.471,22.059-2.426
			c7.062,0.046,23.725,1.475,27.771,2.426l7.455,9.591"/>
		<line fill="none" stroke="#000000" stroke-miterlimit="10" x1="482.342" y1="48.683" x2="482.342" y2="57.595"/>
		<line fill="none" stroke="#000000" stroke-miterlimit="10" x1="489.17" y1="47.526" x2="489.17" y2="57.667"/>
		<line fill="none" stroke="#000000" stroke-miterlimit="10" x1="496.63" y1="46.605" x2="496.63" y2="57.761"/>
		<line fill="none" stroke="#000000" stroke-miterlimit="10" x1="503.576" y1="46.257" x2="503.576" y2="57.843"/>
		<line fill="none" stroke="#000000" stroke-miterlimit="10" x1="510.741" y1="46.499" x2="510.741" y2="57.929"/>
		<line fill="none" stroke="#000000" stroke-miterlimit="10" x1="517.572" y1="46.888" x2="517.572" y2="58.013"/>
		<line fill="none" stroke="#000000" stroke-miterlimit="10" x1="524.396" y1="47.526" x2="524.396" y2="58.099"/>
		<line fill="none" stroke="#000000" stroke-miterlimit="10" x1="532.172" y1="48.683" x2="532.172" y2="58.013"/>
		<line fill="none" stroke="#000000" stroke-miterlimit="10" x1="532.172" y1="48.683" x2="524.396" y2="58.099"/>
		<line fill="none" stroke="#000000" stroke-miterlimit="10" x1="523.999" y1="48.105" x2="517.572" y2="58.013"/>
		<line fill="none" stroke="#000000" stroke-miterlimit="10" x1="517.572" y1="46.888" x2="510.741" y2="57.929"/>
		<line fill="none" stroke="#000000" stroke-miterlimit="10" x1="510.741" y1="46.499" x2="503.576" y2="57.843"/>
		<line fill="none" stroke="#000000" stroke-miterlimit="10" x1="503.576" y1="46.257" x2="510.741" y2="57.929"/>
		<line fill="none" stroke="#000000" stroke-miterlimit="10" x1="496.63" y1="46.605" x2="503.576" y2="57.843"/>
		<line fill="none" stroke="#000000" stroke-miterlimit="10" x1="489.17" y1="47.526" x2="496.24" y2="57.761"/>
		<line fill="none" stroke="#000000" stroke-miterlimit="10" x1="481.945" y1="48.683" x2="489.17" y2="57.667"/>
	</g>
	<path fill="none" stroke="#000000" stroke-miterlimit="10" d="M191.188,45.682l6.04-0.179c10.871-2.108,23.609-3.535,32.834-3.646
		c9.224-0.11,26.685,1.864,31.735,3.073h6.049"/>
	<line fill="none" stroke="#000000" stroke-miterlimit="10" x1="197.229" y1="45.503" x2="190.729" y2="54.637"/>
	<line fill="none" stroke="#000000" stroke-miterlimit="10" x1="197.229" y1="45.503" x2="197.229" y2="54.458"/>
	<line fill="none" stroke="#000000" stroke-miterlimit="10" x1="197.229" y1="45.503" x2="204.806" y2="54.637"/>
	<line fill="none" stroke="#000000" stroke-miterlimit="10" x1="205.03" y1="44.154" x2="205.03" y2="54.637"/>
	<line fill="none" stroke="#000000" stroke-miterlimit="10" x1="205.03" y1="44.154" x2="212.382" y2="54.637"/>
	<line fill="none" stroke="#000000" stroke-miterlimit="10" x1="211.946" y1="43.203" x2="211.946" y2="54.637"/>
	<line fill="none" stroke="#000000" stroke-miterlimit="10" x1="211.946" y1="43.203" x2="219.521" y2="54.458"/>
	<line fill="none" stroke="#000000" stroke-miterlimit="10" x1="219.521" y1="42.414" x2="219.521" y2="54.458"/>
	<line fill="none" stroke="#000000" stroke-miterlimit="10" x1="219.521" y1="42.414" x2="226.438" y2="54.637"/>
	<line fill="none" stroke="#000000" stroke-miterlimit="10" x1="225.891" y1="41.986" x2="225.891" y2="54.458"/>
	<line fill="none" stroke="#000000" stroke-miterlimit="10" x1="233.796" y1="41.853" x2="233.796" y2="54.458"/>
	<line fill="none" stroke="#000000" stroke-miterlimit="10" x1="225.891" y1="41.986" x2="233.796" y2="54.458"/>
	<line fill="none" stroke="#000000" stroke-miterlimit="10" x1="233.796" y1="41.853" x2="225.891" y2="54.458"/>
	<line fill="none" stroke="#000000" stroke-miterlimit="10" x1="240.165" y1="42.414" x2="233.796" y2="54.458"/>
	<line fill="none" stroke="#000000" stroke-miterlimit="10" x1="240.165" y1="42.414" x2="240.165" y2="54.458"/>
	<line fill="none" stroke="#000000" stroke-miterlimit="10" x1="247.505" y1="42.902" x2="240.165" y2="54.458"/>
	<line fill="none" stroke="#000000" stroke-miterlimit="10" x1="247.505" y1="42.902" x2="247.505" y2="54.458"/>
	<line fill="none" stroke="#000000" stroke-miterlimit="10" x1="254.331" y1="43.813" x2="247.505" y2="54.458"/>
	<line fill="none" stroke="#000000" stroke-miterlimit="10" x1="254.331" y1="43.813" x2="254.331" y2="54.458"/>
	<line fill="none" stroke="#000000" stroke-miterlimit="10" x1="261.798" y1="44.931" x2="254.331" y2="54.458"/>
	<line fill="none" stroke="#000000" stroke-miterlimit="10" x1="261.798" y1="44.931" x2="261.798" y2="54.458"/>
	<line fill="none" stroke="#000000" stroke-miterlimit="10" x1="261.798" y1="44.931" x2="267.847" y2="54.458"/>
	
		<polygon fill="none" stroke="#000000" stroke-width="0.5" stroke-linecap="round" stroke-linejoin="round" stroke-miterlimit="10" points="
		226.438,36.917 233.796,36.917 235.003,38.234 224.681,38.234 	"/>
	
		<line fill="none" stroke="#000000" stroke-width="0.5" stroke-linecap="round" stroke-linejoin="round" stroke-miterlimit="10" x1="226.438" y1="38.234" x2="226.438" y2="41.986"/>
	
		<line fill="none" stroke="#000000" stroke-width="0.5" stroke-linecap="round" stroke-linejoin="round" stroke-miterlimit="10" x1="233.466" y1="38.234" x2="233.466" y2="41.853"/>
	
		<line fill="none" stroke="#000000" stroke-width="0.5" stroke-linecap="round" stroke-linejoin="round" stroke-miterlimit="10" x1="114.041" y1="57.375" x2="113.128" y2="62.498"/>
	
		<line fill="none" stroke="#000000" stroke-width="0.5" stroke-linecap="round" stroke-linejoin="round" stroke-miterlimit="10" x1="116.883" y1="57.375" x2="117.49" y2="62.498"/>
	
		<line fill="none" stroke="#000000" stroke-linecap="round" stroke-linejoin="round" stroke-miterlimit="10" x1="189.521" y1="54.878" x2="188.402" y2="70.917"/>
	
		<rect x="187.02" y="70.917" fill="none" stroke="#000000" stroke-linecap="round" stroke-linejoin="round" stroke-miterlimit="10" width="7.676" height="10.653"/>
	
		<line fill="none" stroke="#000000" stroke-linecap="round" stroke-linejoin="round" stroke-miterlimit="10" x1="192.159" y1="54.637" x2="193.376" y2="70.917"/>
	
		<rect x="264.822" y="72.541" fill="none" stroke="#000000" stroke-linecap="round" stroke-linejoin="round" stroke-miterlimit="10" width="6.734" height="6.292"/>
	
		<line fill="none" stroke="#000000" stroke-linecap="round" stroke-linejoin="round" stroke-miterlimit="10" x1="266.626" y1="54.7" x2="265.713" y2="72.541"/>
	
		<line fill="none" stroke="#000000" stroke-linecap="round" stroke-linejoin="round" stroke-miterlimit="10" x1="269.264" y1="54.675" x2="270.174" y2="72.541"/>
	
		<rect x="339.366" y="71.425" fill="none" stroke="#000000" stroke-linecap="round" stroke-linejoin="round" stroke-miterlimit="10" width="6.899" height="4.819"/>
	
		<line fill="none" stroke="#000000" stroke-linecap="round" stroke-linejoin="round" stroke-miterlimit="10" x1="342.114" y1="56.769" x2="340.482" y2="71.425"/>
	
		<line fill="none" stroke="#000000" stroke-linecap="round" stroke-linejoin="round" stroke-miterlimit="10" x1="344.439" y1="56.089" x2="344.845" y2="71.425"/>
	
		<rect x="405.919" y="70.919" fill="none" stroke="#000000" stroke-linecap="round" stroke-linejoin="round" stroke-miterlimit="10" width="6.188" height="4.767"/>
	
		<line fill="none" stroke="#000000" stroke-linecap="round" stroke-linejoin="round" stroke-miterlimit="10" x1="407.237" y1="56.757" x2="406.427" y2="70.919"/>
	
		<line fill="none" stroke="#000000" stroke-linecap="round" stroke-linejoin="round" stroke-miterlimit="10" x1="409.876" y1="56.929" x2="410.891" y2="70.919"/>
	
		<line fill="none" stroke="#000000" stroke-linejoin="round" stroke-miterlimit="10" x1="472.779" y1="57.595" x2="471.72" y2="72.707"/>
	
		<line fill="none" stroke="#000000" stroke-linejoin="round" stroke-miterlimit="10" x1="474.939" y1="57.51" x2="475.781" y2="72.707"/>
	
		<line fill="none" stroke="#000000" stroke-linejoin="round" stroke-miterlimit="10" x1="538.215" y1="58.324" x2="537.686" y2="72.707"/>
	
		<line fill="none" stroke="#000000" stroke-linejoin="round" stroke-miterlimit="10" x1="540.953" y1="58.37" x2="540.953" y2="72.707"/>
	
		<line fill="none" stroke="#000000" stroke-width="0.5" stroke-linejoin="round" stroke-miterlimit="10" x1="543.802" y1="58.37" x2="543.802" y2="71.736"/>
	
		<line fill="none" stroke="#000000" stroke-width="0.5" stroke-linejoin="round" stroke-miterlimit="10" x1="549.078" y1="58.37" x2="549.078" y2="71.736"/>
	
		<rect x="553.141" y="58.521" fill="none" stroke="#000000" stroke-width="0.5" stroke-miterlimit="10" width="5.033" height="12.066"/>
	
		<rect x="562.854" y="58.679" fill="none" stroke="#000000" stroke-width="0.5" stroke-miterlimit="10" width="4.769" height="9.259"/>
	<polygon fill="none" stroke="#000000" stroke-width="0.5" stroke-miterlimit="10" points="576.453,65.996 571.42,66.287 
		571.42,58.97 576.453,58.97 	"/>
	
		<rect x="580.778" y="58.97" fill="none" stroke="#000000" stroke-width="0.5" stroke-miterlimit="10" width="4.771" height="6.082"/>
	<line fill="none" stroke="#000000" stroke-width="0.5" stroke-miterlimit="10" x1="543.802" y1="58.37" x2="549.078" y2="63.308"/>
	<line fill="none" stroke="#000000" stroke-width="0.5" stroke-miterlimit="10" x1="549.078" y1="58.37" x2="543.802" y2="63.308"/>
	
		<line fill="none" stroke="#000000" stroke-width="0.5" stroke-miterlimit="10" x1="543.802" y1="63.308" x2="549.078" y2="67.938"/>
	
		<line fill="none" stroke="#000000" stroke-width="0.5" stroke-miterlimit="10" x1="549.078" y1="63.308" x2="543.802" y2="67.938"/>
	
		<line fill="none" stroke="#000000" stroke-width="0.5" stroke-miterlimit="10" x1="543.802" y1="63.308" x2="549.078" y2="63.308"/>
	
		<line fill="none" stroke="#000000" stroke-width="0.5" stroke-miterlimit="10" x1="549.078" y1="67.938" x2="543.802" y2="67.938"/>
	
		<line fill="none" stroke="#000000" stroke-width="0.5" stroke-miterlimit="10" x1="553.141" y1="58.521" x2="558.174" y2="63.964"/>
	
		<line fill="none" stroke="#000000" stroke-width="0.5" stroke-miterlimit="10" x1="558.174" y1="58.521" x2="553.141" y2="63.964"/>
	
		<line fill="none" stroke="#000000" stroke-width="0.5" stroke-miterlimit="10" x1="553.141" y1="63.964" x2="558.174" y2="67.938"/>
	
		<line fill="none" stroke="#000000" stroke-width="0.5" stroke-miterlimit="10" x1="558.174" y1="63.964" x2="553.141" y2="67.938"/>
	
		<line fill="none" stroke="#000000" stroke-width="0.5" stroke-miterlimit="10" x1="553.141" y1="67.938" x2="558.174" y2="67.938"/>
	
		<line fill="none" stroke="#000000" stroke-width="0.5" stroke-miterlimit="10" x1="553.141" y1="63.964" x2="557.555" y2="63.964"/>
	
		<line fill="none" stroke="#000000" stroke-width="0.5" stroke-miterlimit="10" x1="562.854" y1="58.679" x2="567.622" y2="63.308"/>
	
		<line fill="none" stroke="#000000" stroke-width="0.5" stroke-miterlimit="10" x1="567.622" y1="58.679" x2="562.854" y2="63.308"/>
	
		<line fill="none" stroke="#000000" stroke-width="0.5" stroke-miterlimit="10" x1="562.854" y1="63.308" x2="567.622" y2="63.308"/>
	
		<line fill="none" stroke="#000000" stroke-width="0.5" stroke-miterlimit="10" x1="562.854" y1="63.308" x2="567.622" y2="67.409"/>
	
		<line fill="none" stroke="#000000" stroke-width="0.5" stroke-miterlimit="10" x1="567.622" y1="63.308" x2="562.854" y2="67.409"/>
	<line fill="none" stroke="#000000" stroke-width="0.5" stroke-miterlimit="10" x1="571.42" y1="58.679" x2="576.453" y2="63.964"/>
	<line fill="none" stroke="#000000" stroke-width="0.5" stroke-miterlimit="10" x1="576.453" y1="63.964" x2="571.42" y2="63.964"/>
	<line fill="none" stroke="#000000" stroke-width="0.5" stroke-miterlimit="10" x1="571.42" y1="63.964" x2="576.453" y2="58.679"/>
	<line fill="none" stroke="#000000" stroke-width="0.5" stroke-miterlimit="10" x1="580.778" y1="58.97" x2="585.549" y2="63.308"/>
	<line fill="none" stroke="#000000" stroke-width="0.5" stroke-miterlimit="10" x1="585.549" y1="58.97" x2="580.778" y2="63.964"/>
	<line fill="none" stroke="#000000" stroke-width="0.5" stroke-miterlimit="10" x1="590.053" y1="58.97" x2="590.053" y2="63.964"/>
	
		<line fill="none" stroke="#000000" stroke-width="0.5" stroke-miterlimit="10" x1="595.086" y1="59.203" x2="595.086" y2="63.964"/>
	
		<line fill="none" stroke="#000000" stroke-width="0.5" stroke-miterlimit="10" x1="600.031" y1="59.203" x2="600.031" y2="62.628"/>
	
		<line fill="none" stroke="#000000" stroke-width="0.5" stroke-miterlimit="10" x1="604.713" y1="59.203" x2="604.713" y2="62.628"/>
	
		<line fill="none" stroke="#000000" stroke-width="0.5" stroke-miterlimit="10" x1="608.244" y1="59.203" x2="608.244" y2="62.628"/>
	
		<line fill="none" stroke="#000000" stroke-width="0.5" stroke-miterlimit="10" x1="611.952" y1="59.476" x2="611.952" y2="62.628"/>
	
		<line fill="none" stroke="#000000" stroke-width="0.5" stroke-miterlimit="10" x1="616.898" y1="59.556" x2="616.898" y2="62.628"/>
	
		<line fill="none" stroke="#000000" stroke-width="0.5" stroke-miterlimit="10" x1="621.756" y1="59.635" x2="621.756" y2="62.628"/>
	
		<line fill="none" stroke="#000000" stroke-width="0.5" stroke-miterlimit="10" x1="626.789" y1="59.716" x2="626.789" y2="62.628"/>
	
		<line fill="none" stroke="#000000" stroke-width="0.5" stroke-miterlimit="10" x1="631.116" y1="59.716" x2="631.116" y2="63.964"/>
	
		<line fill="none" stroke="#000000" stroke-width="0.5" stroke-miterlimit="10" x1="635.884" y1="59.865" x2="635.884" y2="63.308"/>
	
		<line fill="none" stroke="#000000" stroke-width="0.5" stroke-miterlimit="10" x1="641.096" y1="59.865" x2="641.096" y2="63.308"/>
	
		<line fill="none" stroke="#000000" stroke-width="0.5" stroke-miterlimit="10" x1="645.689" y1="59.964" x2="645.689" y2="63.964"/>
	
		<line fill="none" stroke="#000000" stroke-width="0.5" stroke-miterlimit="10" x1="650.988" y1="60.109" x2="650.988" y2="63.964"/>
	
		<line fill="none" stroke="#000000" stroke-width="0.5" stroke-miterlimit="10" x1="656.285" y1="60.196" x2="656.285" y2="63.964"/>
	<line fill="none" stroke="#000000" stroke-width="0.5" stroke-miterlimit="10" x1="661.32" y1="60.277" x2="661.32" y2="63.964"/>
	<line fill="none" stroke="#000000" stroke-width="0.5" stroke-miterlimit="10" x1="666.18" y1="60.356" x2="666.18" y2="63.964"/>
	
		<line fill="none" stroke="#000000" stroke-width="0.5" stroke-miterlimit="10" x1="671.387" y1="60.441" x2="671.387" y2="63.964"/>
	
		<line fill="none" stroke="#000000" stroke-width="0.5" stroke-miterlimit="10" x1="676.334" y1="60.521" x2="676.334" y2="63.964"/>
	
		<line fill="none" stroke="#000000" stroke-width="0.5" stroke-miterlimit="10" x1="681.541" y1="60.605" x2="681.541" y2="63.964"/>
	<line fill="none" stroke="#000000" stroke-width="0.5" stroke-miterlimit="10" x1="686.752" y1="60.69" x2="686.752" y2="63.964"/>
	
		<line fill="none" stroke="#000000" stroke-width="0.5" stroke-miterlimit="10" x1="692.051" y1="60.777" x2="692.051" y2="63.964"/>
	<line fill="none" stroke="#000000" stroke-width="0.5" stroke-miterlimit="10" x1="697.26" y1="60.777" x2="697.26" y2="63.964"/>
	
		<line fill="none" stroke="#000000" stroke-width="0.5" stroke-miterlimit="10" x1="702.295" y1="60.943" x2="702.295" y2="65.052"/>
	
		<line fill="none" stroke="#000000" stroke-width="0.5" stroke-miterlimit="10" x1="706.799" y1="60.943" x2="706.799" y2="63.964"/>
	
		<line fill="none" stroke="#000000" stroke-width="0.5" stroke-miterlimit="10" x1="711.512" y1="61.092" x2="711.512" y2="63.964"/>
	<line fill="none" stroke="#000000" stroke-width="0.5" stroke-miterlimit="10" x1="717.66" y1="61.192" x2="717.66" y2="63.308"/>
	<g>
		<g>
			<path d="M75.789,57.079c1.963,0.863,3.968,1.137,6.084,1.423c1.873,0.253,3.619,0.547,5.262,1.553
				c1.358,0.832,0.008,1.191,0.787,2.006c1.103,1.152,1.568,1.124,3.159,1.102c3.343-0.048,6.688-0.117,10.036-0.117
				c7.134,0,14.254,0.191,21.36-0.468c4.808-0.446,5.063,1.508,5.103,5.695c0.029,3.047-1.083,6.57,0.502,9.379
				c1.609,2.851,8.766,2.999,11.492,3.484c5.127,0.913,10.375,1.266,15.563,1.637c4.251,0.305,8.51,0.522,12.77,0.663
				c3.774,0.125,6.71-0.583,10.77-0.851c7.423-0.488,15.04-0.261,22.48-0.276c3.499-0.008,6.993,0.3,10.494,0.293
				c3.847-0.008,7.542-1.121,11.387-1.158c7.454-0.072,14.907-0.073,22.36,0.133c5.451,0.149,9.918-0.565,15.332-1.5
				c7.007-1.21,14.463-0.704,21.554-0.863c8.354-0.188,16.619-0.297,24.978,0.003c11.346,0.406,22.225-1.475,33.489-2.139
				c14.706-0.866,29.584,1.708,44.333,1.384c4.132-0.091,8.204-1.044,12.329-1.094c1.737-0.021,8.542,0.691,9.93-1.11
				c0.268-0.348-0.229-0.429-0.483-0.417c-0.15,0.007-0.299,0.014-0.449,0.021c-0.57,0.026-2.114,0.904-0.803,0.904
				c11.901,0,23.803,0,35.704,0c2.512,0,5.253-1.104,7.725-1.583c5.223-1.012,10.481-0.34,15.724-1.536
				c10.547-2.406,21.328,2.361,31.88,1.54c1.196-0.093,2.343-0.396,3.505-0.67c4.277-1.01,7.949-1.144,12.283-0.941
				c5.184,0.243,10.358,1.344,15.551,0.753c9.57-1.089,19.021-2.751,28.648-3.14c1.349-0.055,3.364,0.262,4.64-0.409
				c0.669-0.351,0.928-0.97,1.215-1.62c0.469-1.06,5.47-1.458,6.582-1.688c4.468-0.921,9.254-0.403,13.806-1.116
				c6.535-1.022,12.452-3.039,19.185-3.256c4.877-0.157,9.696,0.658,14.566,0.447c1.738-0.075,3.155-0.039,4.337-1.301
				c0.475-0.508-1.415-0.307-1.77,0.07c-1.466,1.566-7.483,0.194-9.601,0.015c-2.88-0.244-5.71-0.169-8.597-0.076
				c-7.813,0.252-14.951,3.146-22.694,3.858c-2.568,0.237-5.207-0.112-7.752,0.311c-2.698,0.447-5.342,1.086-8.065,1.396
				c-0.541,0.062-1.151,0.407-1.507,0.808c-0.056,0.062-0.923,1.551-0.064,1.517c-1.159,0.046-2.318,0.093-3.478,0.14
				c-13.434,0.54-26.422,3.844-39.897,2.659c-5.354-0.471-10.8-1.032-16.05,0.348c-8.867,2.329-18.265-0.629-27.313-0.983
				c-4.562-0.179-8.17,0.364-12.66,1.239c-3.4,0.663-6.943,0.111-10.375,0.552c-2.633,0.338-5.216,0.918-7.811,1.473
				c-6.246,1.334-13.662,0.29-20.058,0.29c-7.8,0-15.513,0.151-23.295,0.544c-4.047,0.204-7.995,0.672-12.04,1.023
				c-7.49,0.65-15.223-0.036-22.718-0.396c-10.707-0.516-21.271-1.319-31.958-0.234c-5.897,0.599-11.658,1.58-17.613,1.655
				c-7.417,0.095-14.825-0.539-22.245-0.46c-12.673,0.136-25.604-0.102-38.071,2.305c-4.866,0.938-9.99,0.308-14.95,0.207
				c-6.564-0.134-13.476-0.424-20.008,0.238c-14.837,1.505-29.845-0.17-44.722,1.248c-7.33,0.698-14.461,0.26-21.842-0.299
				c-4.663-0.352-9.335-0.795-13.942-1.615c-2.984-0.531-8.538-0.624-10.293-3.733c-1.263-2.237-0.176-6.15-0.055-8.588
				c0.216-4.363-0.288-5.985-4.326-6.135c-6.395-0.237-12.996,0.521-19.432,0.521c-3.445,0-6.89,0-10.334,0
				c-3.089,0-3.551,0.182-5.781-2.079c-3.138-3.182-8.424-2.108-12.282-3.805C76.882,56.047,75.11,56.781,75.789,57.079
				L75.789,57.079z"/>
		</g>
	</g>
	<g>
		<g>
			<path d="M620.052,63.1c20.578,3.109,41.848,1.488,62.577,1.552c5.626,0.018,11.215,0.395,16.81,0.964
				c4.414,0.449,8.831-1.248,13.233-1.248c4.072,0.001,7.901,1.034,11.98,0.362c5.983-0.985,11.56-1.702,17.643-1.618
				c0.369,0.005,2.19-0.716,1.27-0.729c-3.265-0.044-6.88-0.604-10.112,0.049c-6.025,1.218-11.502,1.926-17.679,1.322
				c-3.099-0.304-5.959,0.105-8.999,0.647c-6.163,1.099-12.801-0.226-19.055-0.418c-21.949-0.673-44.253,1.708-66.068-1.589
				C621.218,62.33,619.587,63.03,620.052,63.1L620.052,63.1z"/>
		</g>
	</g>
	<g>
		<path fill="none" d="M562.111,71.736"/>
	</g>
	<g>
		<path fill="none" d="M130.271,71.736"/>
	</g>
	<g>
		<g>
			<path d="M75.66,56.988c2.11,0.928,12.225,1.308,12.085,4.137c-0.17,3.451,8.253,1.839,9.905,1.839
				c6.693,0,13.411,0.165,20.101-0.051c1.911-0.062,7.991-1.697,8.992,0.106c1.407,2.535,0.813,6.103,0.611,8.833
				c-0.016,0.219,1.892,0.025,1.932-0.518c0.208-2.803,1.498-9.014-2.336-9.568c-2.152-0.311-4.483,0.068-6.628,0.29
				c-4.096,0.424-8.318,0.165-12.432,0.165c-2.07,0-18.361,1.406-18.19-2.07c0.115-2.325-10.86-3.208-12.214-3.804
				C76.974,56.123,75.51,56.922,75.66,56.988L75.66,56.988z"/>
		</g>
	</g>
</g>
</svg>
