<?xml version="1.0" encoding="utf-8"?>
<!-- Generator: Adobe Illustrator 15.0.2, SVG Export Plug-In . SVG Version: 6.00 Build 0)  -->
<!DOCTYPE svg PUBLIC "-//W3C//DTD SVG 1.1//EN" "http://www.w3.org/Graphics/SVG/1.1/DTD/svg11.dtd">
<svg version="1.1" id="Layer_1" xmlns="http://www.w3.org/2000/svg" xmlns:xlink="http://www.w3.org/1999/xlink" x="0px" y="0px"
	 width="815.528px" height="91.304px" viewBox="0 0 815.528 91.304" enable-background="new 0 0 815.528 91.304"
	 xml:space="preserve">
<g>
	<g>
		<path fill="#8AD3E7" d="M181.335,55.458c31.379,12.514,60.787,5.871,93.521,7.207c8.054,0.671,14.766,4.026,22.819,4.026
			c7.383,0,15.436-2.014,22.818-2.014c18.121,0,35.57-0.671,53.691-0.671c0,0,32.886-2.013,49.664-2.013
			c14.765,0,28.859,2.013,42.953,3.355c9.396,0.671,16.778-2.685,25.503-4.027c8.055-1.342,16.107,0,24.162,0.672
			c14.859,0.646,30.964-1.196,45.318-5.525"/>
	</g>
	<path fill="none" stroke="#000000" stroke-miterlimit="10" d="M184.961,15.337c13.228-0.19,123.52-3.141,123.52-3.141
		l133.417,1.047l91.261,0.95l96.113,2.95"/>
	<polyline fill="none" stroke="#000000" stroke-miterlimit="10" points="629.271,20.094 534.49,18.572 534.49,16.573 
		441.898,15.336 308.481,14.098 216.078,16.096 216.078,17.619 184.961,18.571 	"/>
	<path fill="none" stroke="#000000" stroke-miterlimit="10" d="M184.961,24.661c1.998,0,118.381-2.188,123.139-2.188
		c4.759,0,116.383,0.667,133.607,1.095s92.592,1.094,92.592,1.094l49.484,1.047l44.916,0.855"/>
	<polyline fill="none" stroke="#000000" stroke-miterlimit="10" points="184.961,28.849 215.602,27.898 215.602,27.327 
		271.747,25.995 290.019,27.422 307.147,31.133 309.526,31.133 327.702,25.995 415.347,25.995 422.865,26.563 440.945,31.894 
		442.754,31.894 460.357,28.085 478.248,26.563 534.395,28.18 584.543,28.944 588.35,28.944 627.176,28.944 	"/>
	
		<line fill="none" stroke="#000000" stroke-width="0.5" stroke-miterlimit="10" x1="216.078" y1="17.619" x2="215.602" y2="27.327"/>
	<line fill="none" stroke="#000000" stroke-width="0.5" stroke-miterlimit="10" x1="215.602" y1="27.327" x2="226.73" y2="15.866"/>
	<line fill="none" stroke="#000000" stroke-width="0.5" stroke-miterlimit="10" x1="226.73" y1="15.866" x2="235.492" y2="26.855"/>
	
		<line fill="none" stroke="#000000" stroke-width="0.5" stroke-miterlimit="10" x1="235.492" y1="26.855" x2="245.101" y2="15.468"/>
	<line fill="none" stroke="#000000" stroke-width="0.5" stroke-miterlimit="10" x1="245.101" y1="15.468" x2="253.76" y2="26.421"/>
	<line fill="none" stroke="#000000" stroke-width="0.5" stroke-miterlimit="10" x1="253.76" y1="26.421" x2="263.084" y2="15.08"/>
	<line fill="none" stroke="#000000" stroke-width="0.5" stroke-miterlimit="10" x1="271.747" y1="25.995" x2="263.084" y2="15.08"/>
	
		<line fill="none" stroke="#000000" stroke-width="0.5" stroke-miterlimit="10" x1="271.747" y1="25.995" x2="281.262" y2="14.687"/>
	
		<line fill="none" stroke="#000000" stroke-width="0.5" stroke-miterlimit="10" x1="281.262" y1="14.687" x2="290.019" y2="27.422"/>
	<line fill="none" stroke="#000000" stroke-width="0.5" stroke-miterlimit="10" x1="290.019" y1="27.422" x2="299.34" y2="14.295"/>
	<line fill="none" stroke="#000000" stroke-width="0.5" stroke-miterlimit="10" x1="299.34" y1="14.295" x2="307.908" y2="31.133"/>
	
		<line fill="none" stroke="#000000" stroke-width="0.5" stroke-miterlimit="10" x1="318.186" y1="14.098" x2="308.574" y2="31.133"/>
	
		<line fill="none" stroke="#000000" stroke-width="0.5" stroke-miterlimit="10" x1="318.186" y1="14.098" x2="327.702" y2="25.995"/>
	
		<line fill="none" stroke="#000000" stroke-width="0.5" stroke-miterlimit="10" x1="327.702" y1="25.612" x2="337.313" y2="14.098"/>
	
		<line fill="none" stroke="#000000" stroke-width="0.5" stroke-miterlimit="10" x1="337.313" y1="14.098" x2="337.313" y2="25.612"/>
	
		<line fill="none" stroke="#000000" stroke-width="0.5" stroke-miterlimit="10" x1="337.313" y1="25.612" x2="346.259" y2="14.449"/>
	<line fill="none" stroke="#000000" stroke-width="0.5" stroke-miterlimit="10" x1="347.02" y1="14.449" x2="356.155" y2="25.612"/>
	<line fill="none" stroke="#000000" stroke-width="0.5" stroke-miterlimit="10" x1="356.155" y1="25.612" x2="365.671" y2="14.67"/>
	<line fill="none" stroke="#000000" stroke-width="0.5" stroke-miterlimit="10" x1="365.671" y1="14.67" x2="375.282" y2="25.995"/>
	
		<line fill="none" stroke="#000000" stroke-width="0.5" stroke-miterlimit="10" x1="374.958" y1="25.612" x2="384.607" y2="14.805"/>
	<line fill="none" stroke="#000000" stroke-width="0.5" stroke-miterlimit="10" x1="384.607" y1="14.805" x2="394.22" y2="25.612"/>
	<line fill="none" stroke="#000000" stroke-width="0.5" stroke-miterlimit="10" x1="394.22" y1="25.612" x2="403.926" y2="14.805"/>
	
		<line fill="none" stroke="#000000" stroke-width="0.5" stroke-miterlimit="10" x1="403.926" y1="14.805" x2="413.822" y2="25.995"/>
	
		<line fill="none" stroke="#000000" stroke-width="0.5" stroke-miterlimit="10" x1="413.822" y1="15.076" x2="422.865" y2="26.563"/>
	
		<line fill="none" stroke="#000000" stroke-width="0.5" stroke-miterlimit="10" x1="422.865" y1="26.563" x2="432.284" y2="15.248"/>
	
		<line fill="none" stroke="#000000" stroke-width="0.5" stroke-miterlimit="10" x1="432.284" y1="15.248" x2="442.182" y2="31.894"/>
	<line fill="none" stroke="#000000" stroke-width="0.5" stroke-miterlimit="10" x1="441.705" y1="31.894" x2="451.221" y2="15.46"/>
	<line fill="none" stroke="#000000" stroke-width="0.5" stroke-miterlimit="10" x1="451.221" y1="15.46" x2="460.357" y2="28.085"/>
	
		<line fill="none" stroke="#000000" stroke-width="0.5" stroke-miterlimit="10" x1="460.357" y1="28.085" x2="469.397" y2="15.704"/>
	
		<line fill="none" stroke="#000000" stroke-width="0.5" stroke-miterlimit="10" x1="469.397" y1="15.704" x2="478.248" y2="26.563"/>
	
		<line fill="none" stroke="#000000" stroke-width="0.5" stroke-miterlimit="10" x1="478.248" y1="26.563" x2="487.764" y2="15.949"/>
	<line fill="none" stroke="#000000" stroke-width="0.5" stroke-miterlimit="10" x1="487.764" y1="15.949" x2="496.905" y2="27.1"/>
	<line fill="none" stroke="#000000" stroke-width="0.5" stroke-miterlimit="10" x1="496.905" y1="27.1" x2="506.229" y2="16.196"/>
	<line fill="none" stroke="#000000" stroke-width="0.5" stroke-miterlimit="10" x1="506.229" y1="16.196" x2="515.17" y2="27.626"/>
	<line fill="none" stroke="#000000" stroke-width="0.5" stroke-miterlimit="10" x1="515.17" y1="27.626" x2="524.689" y2="16.442"/>
	<line fill="none" stroke="#000000" stroke-width="0.5" stroke-miterlimit="10" x1="524.689" y1="16.442" x2="534.395" y2="28.18"/>
	<line fill="none" stroke="#000000" stroke-width="0.5" stroke-miterlimit="10" x1="534.395" y1="17.096" x2="534.395" y2="28.18"/>
	
		<line fill="none" stroke="#000000" stroke-width="0.5" stroke-miterlimit="10" x1="524.689" y1="16.442" x2="524.689" y2="27.626"/>
	<line fill="none" stroke="#000000" stroke-width="0.5" stroke-miterlimit="10" x1="515.17" y1="16.442" x2="515.17" y2="27.626"/>
	<line fill="none" stroke="#000000" stroke-width="0.5" stroke-miterlimit="10" x1="506.229" y1="16.196" x2="506.229" y2="27.1"/>
	<line fill="none" stroke="#000000" stroke-width="0.5" stroke-miterlimit="10" x1="496.905" y1="16.071" x2="496.905" y2="27.1"/>
	<line fill="none" stroke="#000000" stroke-width="0.5" stroke-miterlimit="10" x1="487.764" y1="15.949" x2="487.764" y2="27.1"/>
	
		<line fill="none" stroke="#000000" stroke-width="0.5" stroke-miterlimit="10" x1="478.248" y1="15.822" x2="478.248" y2="26.563"/>
	<line fill="none" stroke="#000000" stroke-width="0.5" stroke-miterlimit="10" x1="469.397" y1="15.704" x2="469.397" y2="27.1"/>
	<line fill="none" stroke="#000000" stroke-width="0.5" stroke-miterlimit="10" x1="460.357" y1="15.583" x2="460.357" y2="28.18"/>
	<line fill="none" stroke="#000000" stroke-width="0.5" stroke-miterlimit="10" x1="451.221" y1="15.46" x2="451.221" y2="30.062"/>
	
		<line fill="none" stroke="#000000" stroke-width="0.5" stroke-miterlimit="10" x1="441.898" y1="15.336" x2="441.898" y2="31.093"/>
	
		<line fill="none" stroke="#000000" stroke-width="0.5" stroke-miterlimit="10" x1="432.284" y1="15.248" x2="432.284" y2="29.458"/>
	
		<line fill="none" stroke="#000000" stroke-width="0.5" stroke-miterlimit="10" x1="422.865" y1="15.076" x2="422.865" y2="26.563"/>
	
		<line fill="none" stroke="#000000" stroke-width="0.5" stroke-miterlimit="10" x1="413.822" y1="15.076" x2="413.822" y2="25.995"/>
	
		<line fill="none" stroke="#000000" stroke-width="0.5" stroke-miterlimit="10" x1="403.528" y1="15.248" x2="403.528" y2="25.995"/>
	<line fill="none" stroke="#000000" stroke-width="0.5" stroke-miterlimit="10" x1="394.22" y1="14.805" x2="394.22" y2="25.612"/>
	
		<line fill="none" stroke="#000000" stroke-width="0.5" stroke-miterlimit="10" x1="384.607" y1="14.805" x2="384.607" y2="25.995"/>
	<line fill="none" stroke="#000000" stroke-width="0.5" stroke-miterlimit="10" x1="375.282" y1="14.67" x2="375.282" y2="25.612"/>
	<line fill="none" stroke="#000000" stroke-width="0.5" stroke-miterlimit="10" x1="365.671" y1="14.67" x2="365.671" y2="25.612"/>
	
		<line fill="none" stroke="#000000" stroke-width="0.5" stroke-miterlimit="10" x1="356.155" y1="14.449" x2="356.155" y2="25.612"/>
	<line fill="none" stroke="#000000" stroke-width="0.5" stroke-miterlimit="10" x1="347.02" y1="14.449" x2="347.02" y2="25.612"/>
	
		<line fill="none" stroke="#000000" stroke-width="0.5" stroke-miterlimit="10" x1="327.702" y1="14.098" x2="327.702" y2="25.995"/>
	<line fill="none" stroke="#000000" stroke-width="0.5" stroke-miterlimit="10" x1="318.186" y1="15.08" x2="318.186" y2="28.685"/>
	
		<line fill="none" stroke="#000000" stroke-width="0.5" stroke-miterlimit="10" x1="308.481" y1="14.098" x2="308.481" y2="31.133"/>
	<line fill="none" stroke="#000000" stroke-width="0.5" stroke-miterlimit="10" x1="299.34" y1="14.805" x2="299.34" y2="29.343"/>
	
		<line fill="none" stroke="#000000" stroke-width="0.5" stroke-miterlimit="10" x1="290.019" y1="14.498" x2="290.019" y2="27.525"/>
	
		<line fill="none" stroke="#000000" stroke-width="0.5" stroke-miterlimit="10" x1="281.262" y1="14.687" x2="281.262" y2="26.563"/>
	<line fill="none" stroke="#000000" stroke-width="0.5" stroke-miterlimit="10" x1="271.747" y1="15.08" x2="271.747" y2="25.612"/>
	<line fill="none" stroke="#000000" stroke-width="0.5" stroke-miterlimit="10" x1="263.084" y1="15.08" x2="263.084" y2="26.2"/>
	<line fill="none" stroke="#000000" stroke-width="0.5" stroke-miterlimit="10" x1="253.76" y1="15.468" x2="253.76" y2="26.421"/>
	
		<line fill="none" stroke="#000000" stroke-width="0.5" stroke-miterlimit="10" x1="245.101" y1="15.468" x2="245.101" y2="26.563"/>
	
		<line fill="none" stroke="#000000" stroke-width="0.5" stroke-miterlimit="10" x1="235.492" y1="15.866" x2="235.492" y2="26.855"/>
	<line fill="none" stroke="#000000" stroke-miterlimit="10" x1="226.73" y1="15.866" x2="226.73" y2="26.855"/>
	<rect x="307.404" y="31.133" fill="none" stroke="#000000" stroke-miterlimit="10" width="1.605" height="17.732"/>
	<path fill="none" stroke="#000000" stroke-miterlimit="10" d="M305.635,63.658"/>
	<polyline fill="none" stroke="#000000" stroke-miterlimit="10" points="305.635,66.18 305.635,48.866 310.779,48.866 
		310.779,65.532 	"/>
	<rect x="216.372" y="28.085" fill="none" stroke="#000000" stroke-miterlimit="10" width="1.605" height="17.732"/>
	<path fill="none" stroke="#000000" stroke-miterlimit="10" d="M214.602,60.61"/>
	<polyline fill="none" stroke="#000000" stroke-miterlimit="10" points="214.602,62.744 214.602,45.818 219.747,45.818 
		219.747,62.744 	"/>
	<rect x="441.379" y="32.604" fill="none" stroke="#000000" stroke-miterlimit="10" width="1.605" height="17.732"/>
	<path fill="none" stroke="#000000" stroke-miterlimit="10" d="M439.608,65.128"/>
	<polyline fill="none" stroke="#000000" stroke-miterlimit="10" points="439.608,62.618 439.608,50.336 444.754,50.336 
		444.754,63.046 	"/>
	<rect x="532.592" y="28.944" fill="none" stroke="#000000" stroke-miterlimit="10" width="1.605" height="17.732"/>
	<polyline fill="none" stroke="#000000" stroke-miterlimit="10" points="530.821,61.468 530.821,46.676 535.967,46.676 
		535.967,61.468 	"/>
	<line fill="none" stroke="#000000" stroke-miterlimit="10" x1="581.93" y1="28.944" x2="581.93" y2="49.77"/>
	<line fill="none" stroke="#000000" stroke-miterlimit="10" x1="584.543" y1="28.944" x2="584.543" y2="49.665"/>
	<line fill="none" stroke="#000000" stroke-miterlimit="10" x1="624.117" y1="28.944" x2="624.117" y2="50.336"/>
	<line fill="none" stroke="#000000" stroke-miterlimit="10" x1="627.176" y1="28.944" x2="627.176" y2="50.336"/>
	<line fill="none" stroke="#000000" stroke-miterlimit="10" x1="626.053" y1="20.042" x2="626.053" y2="26.514"/>
	<line fill="none" stroke="#000000" stroke-miterlimit="10" x1="624.117" y1="20.094" x2="624.117" y2="26.476"/>
	<line fill="none" stroke="#000000" stroke-miterlimit="10" x1="584.129" y1="19.369" x2="584.129" y2="25.708"/>
	<line fill="none" stroke="#000000" stroke-miterlimit="10" x1="582.367" y1="19.34" x2="582.367" y2="25.668"/>
	<g>
		<g>
			<path d="M180.633,55.725c27.504,10.814,56.315,7.286,85.126,7.258c7.665-0.007,14.591,1.009,22.001,2.826
				c6.423,1.574,12.502,1.478,19.022,0.706c16.012-1.895,32.19-1.521,48.308-1.807c19.124-0.337,38.158-1.401,57.276-1.999
				c13.907-0.434,27.622,0.335,41.46,1.794c6.142,0.648,12.577,1.931,18.767,1.302c7.443-0.755,14.543-3.21,21.938-4.258
				c7.912-1.122,15.883,0.725,23.78,1.017c7.137,0.264,14.289-0.174,21.378-0.979c6.548-0.744,13.025-2.057,19.395-3.729
				c6.839-1.797,12.821-6.735,19.924-6.765c1.057-0.005,2.228-0.625,3.21-0.94c1.589-0.511,3.99,0.305,5.675,0.46
				c5.418,0.499,10.892,0.426,16.325,0.339c11.252-0.179,22.716-1.331,33.938-0.122c0.552,0.06,2.264-0.866,1.201-0.98
				c-10.406-1.121-21.023-0.234-31.455,0.029c-5.527,0.141-11.06,0.187-16.583-0.092c-4.121-0.208-7.189-1.191-11.093,0.062
				c-1.398,0.45-3.345,0.013-4.892,0.241c-1.533,0.227-3.156,0.95-4.497,1.68c-7.641,4.157-15.245,6.291-23.798,7.815
				c-7.501,1.336-15.124,1.921-22.735,2.028c-7.926,0.113-15.749-1.256-23.665-1.367c-6.125-0.085-12.073,1.392-17.978,2.837
				c-9.429,2.307-18.113,1.458-27.634,0.443c-13.127-1.397-26.165-2.227-39.369-1.896c-18.68,0.468-37.291,1.733-55.973,2.008
				c-14.492,0.214-29.298-0.357-43.736,0.828c-8.031,0.66-15.719,2.447-23.798,1.059c-6.823-1.173-13.116-3.286-20.104-3.48
				c-30.398-0.846-60.722,4.257-89.863-7.2C181.647,54.629,179.881,55.43,180.633,55.725L180.633,55.725z"/>
		</g>
	</g>
	<g>
		<path fill="none" d="M561.846,56.692"/>
	</g>
	<g>
		<path fill="none" d="M181.408,55.283"/>
	</g>
	<g>
		<g>
			<path d="M180.121,55.725c0.146,0.059,0.292,0.117,0.438,0.176c0.421,0.169,0.988,0.017,1.363-0.198
				c0.23-0.132,0.614-0.516,0.188-0.687c-0.146-0.059-0.292-0.117-0.438-0.176c-0.421-0.169-0.988-0.017-1.363,0.198
				C180.078,55.17,179.694,55.554,180.121,55.725L180.121,55.725z"/>
		</g>
	</g>
</g>
</svg>
