<?xml version="1.0" encoding="utf-8"?>
<!-- Generator: Adobe Illustrator 15.0.2, SVG Export Plug-In . SVG Version: 6.00 Build 0)  -->
<!DOCTYPE svg PUBLIC "-//W3C//DTD SVG 1.1//EN" "http://www.w3.org/Graphics/SVG/1.1/DTD/svg11.dtd">
<svg version="1.1" id="Layer_1" xmlns="http://www.w3.org/2000/svg" xmlns:xlink="http://www.w3.org/1999/xlink" x="0px" y="0px"
	 width="815.528px" height="61.49px" viewBox="0 0 815.528 61.49" enable-background="new 0 0 815.528 61.49" xml:space="preserve">
<g>
	<g>
		<path fill="#8AD3E7" d="M591.918,36.517c-5.385,1.325-10.768,2.675-16.234,3.817c-3.369,0.802-6.739,1.443-10.109,1.283
			c-2.247-0.16-4.654-0.803-6.9-0.481c-2.407,0.481-4.494,0.963-7.222,0.963c-2.567,0-5.136,0-7.703,0.161
			c-2.247,0.32-6.259,1.443-6.259,1.443c-3.314,1.762-12.838,1.605-15.727,1.605c-7.062,0.16-14.443,0-21.504-0.803
			c-2.889-0.32-5.617-0.481-8.506-0.481c-3.209,0-6.419-0.963-9.468-0.481c-2.567,0.481-4.333,1.284-7.222,0.963
			c-2.729-0.32-5.777-0.481-8.666-0.481c-3.209-0.16-5.777,0.642-8.826,0.963c-3.852,0.321-7.542-0.16-11.394,0
			c-3.691,0.161-7.382,0.963-11.233,1.284C430.772,46.592,423.23,49,423.23,49c-2.729,0-5.456,1.123-8.185,1.123
			c-2.567,0-5.136-0.321-7.703-0.482c-4.975-0.48-15.565-0.802-15.565-0.802c-4.013,0-8.024-0.16-11.876,0.161
			c-3.37,0.32-6.098,1.604-9.308,2.086c-3.37,0.481-6.579,1.283-9.949,2.086c-3.53,0.963-7.863,0.481-11.555,0.16
			c-5.296-0.48-10.431,0.803-15.888-0.32c-5.456-1.123-11.072-2.086-16.368-4.012c-4.173-1.445-8.826-2.729-13.159-3.531
			s-11.554-0.642-11.554-0.642c-1.362-0.438-2.729-4.807-3.013-8.124h-0.055h302.107L591.918,36.517z"/>
	</g>
	<polyline fill="none" stroke="#000000" stroke-miterlimit="10" points="374.807,11.528 374.558,11.528 358.993,12.045 
		279.387,15.501 72.194,29.337 	"/>
	<path fill="none" stroke="#000000" stroke-miterlimit="10" d="M374.807,11.528"/>
	<polyline fill="none" stroke="#000000" stroke-miterlimit="10" points="445.272,11.528 379.389,11.528 378.872,11.528 	"/>
	<path fill="none" stroke="#000000" stroke-miterlimit="10" d="M444.532,11.528"/>
	<path fill="none" stroke="#000000" stroke-miterlimit="10" d="M725.846,25.433c0,0-210.716-11.294-218.888-11.976
		c-8.173-0.681-42.279-1.589-42.279-1.589l-15.096-0.34h-0.43"/>
	<line fill="none" stroke="#000000" stroke-miterlimit="10" x1="105.459" y1="30.231" x2="296.861" y2="18.837"/>
	<path fill="none" stroke="#000000" stroke-miterlimit="10" d="M298.534,16.967l60.827-2.963v7.333c0,0-24.75,0.667-30.583,1
		c-5.834,0.333-30.244,2.333-30.244,2.333V16.967z"/>
	<line fill="none" stroke="#000000" stroke-miterlimit="10" x1="298.534" y1="16.967" x2="306.975" y2="24.087"/>
	<line fill="none" stroke="#000000" stroke-miterlimit="10" x1="306.01" y1="16.603" x2="306.01" y2="24.068"/>
	<line fill="none" stroke="#000000" stroke-miterlimit="10" x1="313.983" y1="16.214" x2="313.983" y2="23.44"/>
	<line fill="none" stroke="#000000" stroke-miterlimit="10" x1="321.648" y1="15.841" x2="321.648" y2="22.824"/>
	<line fill="none" stroke="#000000" stroke-miterlimit="10" x1="329.315" y1="15.467" x2="329.315" y2="22.301"/>
	<line fill="none" stroke="#000000" stroke-miterlimit="10" x1="336.901" y1="15.098" x2="336.901" y2="22.003"/>
	<line fill="none" stroke="#000000" stroke-miterlimit="10" x1="344.643" y1="14.721" x2="344.643" y2="21.759"/>
	<line fill="none" stroke="#000000" stroke-miterlimit="10" x1="306.01" y1="16.603" x2="314.524" y2="23.388"/>
	<line fill="none" stroke="#000000" stroke-miterlimit="10" x1="312.983" y1="16.214" x2="321.933" y2="22.742"/>
	<line fill="none" stroke="#000000" stroke-miterlimit="10" x1="321.648" y1="15.841" x2="329.315" y2="21.759"/>
	<line fill="none" stroke="#000000" stroke-miterlimit="10" x1="329.315" y1="21.759" x2="336.901" y2="15.098"/>
	<line fill="none" stroke="#000000" stroke-miterlimit="10" x1="344.643" y1="14.721" x2="336.901" y2="21.497"/>
	<line fill="none" stroke="#000000" stroke-miterlimit="10" x1="352.16" y1="14.354" x2="344.917" y2="21.497"/>
	<line fill="none" stroke="#000000" stroke-miterlimit="10" x1="352.16" y1="14.354" x2="352.16" y2="21.497"/>
	<line fill="none" stroke="#000000" stroke-width="0.5" stroke-miterlimit="10" x1="359.361" y1="14.004" x2="352.16" y2="21.497"/>
	
		<line fill="none" stroke="#000000" stroke-width="0.5" stroke-miterlimit="10" x1="359.361" y1="14.004" x2="374.807" y2="13.598"/>
	
		<line fill="none" stroke="#000000" stroke-width="0.5" stroke-miterlimit="10" x1="360.636" y1="14.004" x2="360.636" y2="27.691"/>
	
		<line fill="none" stroke="#000000" stroke-width="0.5" stroke-miterlimit="10" x1="361.721" y1="14.004" x2="361.721" y2="27.691"/>
	
		<line fill="none" stroke="#000000" stroke-width="0.5" stroke-miterlimit="10" x1="362.843" y1="14.004" x2="362.843" y2="27.691"/>
	
		<line fill="none" stroke="#000000" stroke-width="0.5" stroke-miterlimit="10" x1="363.889" y1="14.004" x2="363.889" y2="27.691"/>
	<line fill="none" stroke="#000000" stroke-width="0.5" stroke-miterlimit="10" x1="365.05" y1="14.004" x2="365.05" y2="27.691"/>
	
		<line fill="none" stroke="#000000" stroke-width="0.5" stroke-miterlimit="10" x1="366.327" y1="14.004" x2="366.327" y2="27.691"/>
	
		<line fill="none" stroke="#000000" stroke-width="0.5" stroke-miterlimit="10" x1="367.334" y1="14.004" x2="367.334" y2="27.691"/>
	<line fill="none" stroke="#000000" stroke-width="0.5" stroke-miterlimit="10" x1="368.38" y1="14.004" x2="368.38" y2="27.691"/>
	
		<line fill="none" stroke="#000000" stroke-width="0.5" stroke-miterlimit="10" x1="369.387" y1="14.004" x2="369.387" y2="27.691"/>
	
		<line fill="none" stroke="#000000" stroke-width="0.5" stroke-miterlimit="10" x1="370.625" y1="13.708" x2="370.625" y2="27.691"/>
	
		<line fill="none" stroke="#000000" stroke-width="0.5" stroke-miterlimit="10" x1="371.748" y1="13.708" x2="371.748" y2="27.691"/>
	
		<line fill="none" stroke="#000000" stroke-width="0.5" stroke-miterlimit="10" x1="372.871" y1="13.708" x2="372.871" y2="27.691"/>
	
		<line fill="none" stroke="#000000" stroke-width="0.5" stroke-miterlimit="10" x1="374.071" y1="13.708" x2="374.071" y2="27.691"/>
	
		<rect x="374.807" y="8.797" fill="none" stroke="#000000" stroke-width="0.5" stroke-miterlimit="10" width="4.065" height="8.953"/>
	<line fill="none" stroke="#000000" stroke-width="0.5" stroke-miterlimit="10" x1="375" y1="17.75" x2="374.807" y2="27.691"/>
	<line fill="none" stroke="#000000" stroke-width="0.5" stroke-miterlimit="10" x1="376.433" y1="17.75" x2="376.433" y2="27.691"/>
	<line fill="none" stroke="#000000" stroke-width="0.5" stroke-miterlimit="10" x1="377.439" y1="17.75" x2="377.439" y2="27.691"/>
	<line fill="none" stroke="#000000" stroke-miterlimit="10" x1="359.361" y1="12.033" x2="359.361" y2="54.02"/>
	<line fill="none" stroke="#000000" stroke-miterlimit="10" x1="359.784" y1="27.497" x2="378.872" y2="27.497"/>
	<line fill="none" stroke="#000000" stroke-width="0.5" stroke-miterlimit="10" x1="378.872" y1="17.75" x2="378.872" y2="49.914"/>
	
		<line fill="none" stroke="#000000" stroke-width="0.5" stroke-miterlimit="10" x1="359.361" y1="28.542" x2="378.872" y2="28.542"/>
	
		<line fill="none" stroke="#000000" stroke-width="0.5" stroke-miterlimit="10" x1="369.117" y1="28.542" x2="369.117" y2="51.579"/>
	
		<line fill="none" stroke="#000000" stroke-width="0.5" stroke-miterlimit="10" x1="464.819" y1="14.004" x2="449.374" y2="13.598"/>
	
		<line fill="none" stroke="#000000" stroke-width="0.5" stroke-miterlimit="10" x1="463.545" y1="14.004" x2="463.545" y2="27.691"/>
	
		<line fill="none" stroke="#000000" stroke-width="0.5" stroke-miterlimit="10" x1="462.461" y1="14.004" x2="462.461" y2="27.691"/>
	
		<line fill="none" stroke="#000000" stroke-width="0.5" stroke-miterlimit="10" x1="461.338" y1="14.004" x2="461.338" y2="27.691"/>
	
		<line fill="none" stroke="#000000" stroke-width="0.5" stroke-miterlimit="10" x1="460.293" y1="14.004" x2="460.293" y2="27.691"/>
	
		<line fill="none" stroke="#000000" stroke-width="0.5" stroke-miterlimit="10" x1="459.131" y1="14.004" x2="459.131" y2="27.691"/>
	
		<line fill="none" stroke="#000000" stroke-width="0.5" stroke-miterlimit="10" x1="457.854" y1="14.004" x2="457.854" y2="27.691"/>
	
		<line fill="none" stroke="#000000" stroke-width="0.5" stroke-miterlimit="10" x1="456.847" y1="14.004" x2="456.847" y2="27.691"/>
	
		<line fill="none" stroke="#000000" stroke-width="0.5" stroke-miterlimit="10" x1="455.802" y1="14.004" x2="455.802" y2="27.691"/>
	
		<line fill="none" stroke="#000000" stroke-width="0.5" stroke-miterlimit="10" x1="454.795" y1="14.004" x2="454.795" y2="27.691"/>
	
		<line fill="none" stroke="#000000" stroke-width="0.5" stroke-miterlimit="10" x1="453.556" y1="13.708" x2="453.556" y2="27.691"/>
	
		<line fill="none" stroke="#000000" stroke-width="0.5" stroke-miterlimit="10" x1="452.434" y1="13.708" x2="452.434" y2="27.691"/>
	
		<line fill="none" stroke="#000000" stroke-width="0.5" stroke-miterlimit="10" x1="451.311" y1="13.708" x2="451.311" y2="27.691"/>
	<line fill="none" stroke="#000000" stroke-width="0.5" stroke-miterlimit="10" x1="450.11" y1="13.708" x2="450.11" y2="27.691"/>
	<line fill="none" stroke="#000000" stroke-width="0.5" stroke-miterlimit="10" x1="449.181" y1="17.75" x2="449.374" y2="27.691"/>
	<line fill="none" stroke="#000000" stroke-width="0.5" stroke-miterlimit="10" x1="447.748" y1="17.75" x2="447.748" y2="27.691"/>
	<line fill="none" stroke="#000000" stroke-width="0.5" stroke-miterlimit="10" x1="446.741" y1="17.75" x2="446.741" y2="27.691"/>
	<line fill="none" stroke="#000000" stroke-miterlimit="10" x1="464.819" y1="12.033" x2="464.819" y2="44.129"/>
	<line fill="none" stroke="#000000" stroke-miterlimit="10" x1="464.397" y1="27.497" x2="445.31" y2="27.497"/>
	<line fill="none" stroke="#000000" stroke-width="0.5" stroke-miterlimit="10" x1="464.819" y1="28.542" x2="445.31" y2="28.542"/>
	
		<line fill="none" stroke="#000000" stroke-width="0.5" stroke-miterlimit="10" x1="455.064" y1="28.542" x2="455.064" y2="45.441"/>
	
		<rect x="376.161" y="10.732" fill="none" stroke="#000000" stroke-width="0.5" stroke-miterlimit="10" width="1.472" height="4.366"/>
	<path fill="none" stroke="#000000" stroke-width="0.5" stroke-miterlimit="10" d="M378.872,19.947
		c3.469-0.943,8.942-2.129,14.557-3.059s11.422-2.284,18.507-2.284s17.915,2.052,20.78,2.671c2.864,0.62,11.741,2.439,12.594,2.671"
		/>
	<polyline fill="none" stroke="#000000" stroke-linecap="round" stroke-miterlimit="10" points="374.466,8.797 375.277,8.797 
		379.403,8.797 	"/>
	<polygon fill="none" stroke="#000000" stroke-linecap="round" stroke-linejoin="round" stroke-miterlimit="10" points="
		378.872,5.691 374.071,5.691 375.277,8.797 377.903,8.797 	"/>
	
		<rect x="445.269" y="8.604" fill="none" stroke="#000000" stroke-width="0.5" stroke-miterlimit="10" width="4.064" height="8.953"/>
	
		<rect x="446.623" y="10.54" fill="none" stroke="#000000" stroke-width="0.5" stroke-miterlimit="10" width="1.471" height="4.366"/>
	<polyline fill="none" stroke="#000000" stroke-linecap="round" stroke-miterlimit="10" points="444.927,8.604 445.739,8.604 
		449.864,8.604 	"/>
	<polyline fill="none" stroke="#000000" stroke-linecap="round" stroke-linejoin="round" stroke-miterlimit="10" points="
		449.333,5.499 444.532,5.499 445.739,8.604 448.364,8.604 449.333,5.499 	"/>
	<line fill="none" stroke="#000000" stroke-miterlimit="10" x1="445.269" y1="17.557" x2="445.269" y2="45.441"/>
	<path fill="none" stroke="#000000" stroke-miterlimit="10" d="M464.819,21.337c0,0,24.75,0.667,30.584,1
		c5.833,0.333,30.243,2.333,30.243,2.333"/>
	<line fill="none" stroke="#000000" stroke-miterlimit="10" x1="525.646" y1="16.967" x2="464.819" y2="14.004"/>
	<line fill="none" stroke="#000000" stroke-miterlimit="10" x1="525.646" y1="16.967" x2="517.206" y2="24.087"/>
	<line fill="none" stroke="#000000" stroke-miterlimit="10" x1="518.171" y1="16.603" x2="518.171" y2="24.068"/>
	<line fill="none" stroke="#000000" stroke-miterlimit="10" x1="510.197" y1="16.214" x2="510.197" y2="23.44"/>
	<line fill="none" stroke="#000000" stroke-miterlimit="10" x1="502.532" y1="15.841" x2="502.532" y2="22.824"/>
	<line fill="none" stroke="#000000" stroke-miterlimit="10" x1="494.866" y1="15.467" x2="494.866" y2="22.301"/>
	<line fill="none" stroke="#000000" stroke-miterlimit="10" x1="487.28" y1="15.098" x2="487.28" y2="22.003"/>
	<line fill="none" stroke="#000000" stroke-miterlimit="10" x1="479.538" y1="14.721" x2="479.538" y2="21.759"/>
	<line fill="none" stroke="#000000" stroke-miterlimit="10" x1="518.171" y1="16.603" x2="509.657" y2="23.388"/>
	<line fill="none" stroke="#000000" stroke-miterlimit="10" x1="511.197" y1="16.214" x2="502.248" y2="22.742"/>
	<line fill="none" stroke="#000000" stroke-miterlimit="10" x1="502.532" y1="15.841" x2="494.866" y2="21.759"/>
	<line fill="none" stroke="#000000" stroke-miterlimit="10" x1="494.866" y1="21.759" x2="487.28" y2="15.098"/>
	<line fill="none" stroke="#000000" stroke-miterlimit="10" x1="479.538" y1="14.721" x2="487.28" y2="21.497"/>
	<line fill="none" stroke="#000000" stroke-miterlimit="10" x1="472.021" y1="14.354" x2="479.264" y2="21.497"/>
	<line fill="none" stroke="#000000" stroke-miterlimit="10" x1="472.021" y1="14.354" x2="472.021" y2="21.497"/>
	
		<line fill="none" stroke="#000000" stroke-width="0.5" stroke-miterlimit="10" x1="464.819" y1="14.004" x2="472.021" y2="21.497"/>
	<line fill="none" stroke="#000000" stroke-miterlimit="10" x1="525.646" y1="16.967" x2="525.646" y2="45.441"/>
	<line fill="none" stroke="#000000" stroke-miterlimit="10" x1="528.446" y1="18.551" x2="528.446" y2="45.441"/>
	<line fill="none" stroke="#000000" stroke-miterlimit="10" x1="558.337" y1="19.995" x2="558.337" y2="41.338"/>
	<line fill="none" stroke="#000000" stroke-miterlimit="10" x1="560.065" y1="19.995" x2="560.065" y2="41.338"/>
	<line fill="none" stroke="#000000" stroke-miterlimit="10" x1="598.687" y1="21.759" x2="598.687" y2="34.434"/>
	<line fill="none" stroke="#000000" stroke-miterlimit="10" x1="600.123" y1="21.497" x2="600.123" y2="34.434"/>
	<line fill="none" stroke="#000000" stroke-miterlimit="10" x1="642.266" y1="23.44" x2="642.266" y2="27.691"/>
	<line fill="none" stroke="#000000" stroke-miterlimit="10" x1="662.027" y1="24.67" x2="662.027" y2="27.691"/>
	<line fill="none" stroke="#000000" stroke-miterlimit="10" x1="680.718" y1="25.433" x2="680.718" y2="27.497"/>
	<path fill="none" stroke="#000000" stroke-miterlimit="10" d="M697.146,26.465c-1.548-0.008-47.921-2.397-47.921-2.397
		l-123.451-5.639"/>
	
		<line fill="none" stroke="#000000" stroke-width="0.5" stroke-miterlimit="10" x1="378.872" y1="13.598" x2="383.302" y2="18.836"/>
	
		<line fill="none" stroke="#000000" stroke-width="0.5" stroke-miterlimit="10" x1="383.403" y1="11.528" x2="383.403" y2="18.836"/>
	
		<line fill="none" stroke="#000000" stroke-width="0.5" stroke-miterlimit="10" x1="383.403" y1="11.895" x2="389.256" y2="17.528"/>
	
		<line fill="none" stroke="#000000" stroke-width="0.5" stroke-miterlimit="10" x1="389.138" y1="17.487" x2="389.138" y2="11.528"/>
	
		<line fill="none" stroke="#000000" stroke-width="0.5" stroke-miterlimit="10" x1="389.138" y1="12.033" x2="394.646" y2="16.396"/>
	
		<line fill="none" stroke="#000000" stroke-width="0.5" stroke-miterlimit="10" x1="394.646" y1="16.396" x2="394.646" y2="11.528"/>
	<line fill="none" stroke="#000000" stroke-width="0.5" stroke-miterlimit="10" x1="394.646" y1="12.033" x2="400.37" y2="15.677"/>
	<line fill="none" stroke="#000000" stroke-width="0.5" stroke-miterlimit="10" x1="400.37" y1="15.677" x2="400.37" y2="11.528"/>
	<line fill="none" stroke="#000000" stroke-width="0.5" stroke-miterlimit="10" x1="444.916" y1="13.75" x2="440.486" y2="18.988"/>
	<line fill="none" stroke="#000000" stroke-width="0.5" stroke-miterlimit="10" x1="440.385" y1="11.68" x2="440.385" y2="18.988"/>
	<line fill="none" stroke="#000000" stroke-width="0.5" stroke-miterlimit="10" x1="440.385" y1="12.046" x2="434.532" y2="17.68"/>
	<line fill="none" stroke="#000000" stroke-width="0.5" stroke-miterlimit="10" x1="434.65" y1="17.639" x2="434.65" y2="11.68"/>
	<line fill="none" stroke="#000000" stroke-width="0.5" stroke-miterlimit="10" x1="434.65" y1="12.185" x2="429.141" y2="16.548"/>
	<line fill="none" stroke="#000000" stroke-width="0.5" stroke-miterlimit="10" x1="429.141" y1="16.548" x2="429.141" y2="11.68"/>
	
		<line fill="none" stroke="#000000" stroke-width="0.5" stroke-miterlimit="10" x1="429.141" y1="12.185" x2="423.418" y2="15.635"/>
	<line fill="none" stroke="#000000" stroke-width="0.5" stroke-miterlimit="10" x1="423.418" y1="15.829" x2="423.418" y2="11.68"/>
	<line fill="none" stroke="#000000" stroke-miterlimit="10" x1="411.935" y1="11.528" x2="411.935" y2="14.604"/>
	<line fill="none" stroke="#000000" stroke-miterlimit="10" x1="296.861" y1="18.837" x2="296.861" y2="44.954"/>
	<line fill="none" stroke="#000000" stroke-miterlimit="10" x1="299.422" y1="24.598" x2="299.422" y2="44.954"/>
	<line fill="none" stroke="#000000" stroke-miterlimit="10" x1="265.113" y1="20.7" x2="265.113" y2="27.691"/>
	<line fill="none" stroke="#000000" stroke-miterlimit="10" x1="226.07" y1="22.99" x2="226.07" y2="29.337"/>
	<line fill="none" stroke="#000000" stroke-miterlimit="10" x1="182.25" y1="25.561" x2="182.25" y2="29.337"/>
	<line fill="none" stroke="#000000" stroke-miterlimit="10" x1="162.853" y1="26.698" x2="162.853" y2="30.03"/>
	<line fill="none" stroke="#000000" stroke-miterlimit="10" x1="144.064" y1="27.8" x2="144.064" y2="30.944"/>
	<g>
		<g>
			<path d="M72.066,29.783c6.891,1.109,13.82,0.463,20.759,0.832c3.844,0.205,7.707,0.048,11.555,0.161
				c3.704,0.109,7.28,0.78,10.997,0.473c8.025-0.665,15.735-0.149,23.757,0.279c8.211,0.439,16.436-0.572,24.637-0.854
				c8.96-0.309,17.949-0.194,26.915-0.372c6.616-0.131,13.247,0.774,19.856,0.985c7.584,0.242,15.04-1.317,22.623-1.312
				c6.871,0.004,13.735-0.008,20.597-0.406c8.288-0.48,16.295-1.834,24.636-1.723c0.828,0.011,7.995-0.633,8.06,0.519
				c0.133,2.363,0.799,4.718,1.158,7.054c0.366,2.379,0.208,9.456,3.503,10.251c4.115,0.992,8.929,0.126,13.192,0.965
				c7.612,1.5,14.804,4.495,22.398,6.107c6.874,1.46,12.861,1.344,19.837,1.362c3.39,0.009,6.72,0.569,10.125,0.449
				c2.931-0.104,5.831-1.088,8.671-1.731c7.396-1.675,14.601-3.195,22.216-3.135c4.401,0.034,8.79,0.203,13.186,0.427
				c5.648,0.288,11.422,1.432,17.037,0.477c4.548-0.774,8.786-1.944,13.297-2.943c7.815-1.732,15.856-1.659,23.797-1.688
				c3.623-0.013,7.105-1.048,10.74-1.062c3.448-0.015,7.114,0.853,10.524,0.542c3.396-0.31,6.561-1.293,10.037-0.964
				c3.303,0.312,6.578,0.405,9.89,0.595c7.75,0.442,15.355,1.226,23.142,1.145c4.287-0.045,8.565-0.008,12.835-0.449
				c5.108-0.527,9.5-2.645,14.774-2.774c6.63-0.164,13.039-0.55,19.658-0.484c6.7,0.065,13.785-2.395,20.225-3.961
				c7.429-1.806,14.858-3.519,22.327-5.147c7.787-1.699,15.771-2.306,23.51-4.021c10.81-2.395,21.865-1.575,32.797-0.921
				c7.306,0.438,14.51-0.8,21.86-0.261c6.979,0.512,13.925-1.16,20.903-1.272c2.711-0.043,5.457,0.451,8.165,0.159
				c3.779-0.408,7.168-1.335,11.074-1.012c6.68,0.551,13.288,1.31,20.002,1.005c0.993-0.045,1.573-1.212,0.242-1.151
				c-7.713,0.35-15.349-0.748-23.024-1.292c-3.142-0.223-6.245,1.245-9.392,1.337c-3.356,0.099-6.702-0.25-10.068-0.099
				c-7.707,0.348-14.946,1.271-22.704,0.752c-3.143-0.21-6.191,0.18-9.313,0.474c-4.333,0.408-8.239-0.321-12.506-0.38
				c-10.23-0.142-19.888,0.144-29.981,1.895c-6.761,1.172-13.439,1.846-20.158,3.359c-8.019,1.807-16.03,3.565-24.016,5.525
				c-7.965,1.954-16.1,4.509-24.346,3.404c-2.739-0.367-5.19,0.295-7.89,0.711c-3.893,0.601-7.896-0.127-11.784,0.542
				c-3.863,0.664-7.438,2.186-11.341,2.589c-5.999,0.62-12.276,0.386-18.293,0.281c-7.047-0.123-14.02-1.216-21.062-1.295
				c-2.714-0.03-5.466-0.836-8.177-0.604c-4.058,0.347-7.766,1.101-11.91,0.777c-7.315-0.572-14.369,1.022-21.68,0.79
				c-6.333-0.202-12.932,0.695-19.141,1.904c-5.975,1.163-11.52,3.347-17.728,3.178c-6.241-0.171-12.487-0.907-18.735-1.142
				c-4.903-0.185-9.831-0.244-14.728,0.079c-8.04,0.532-15.764,4.445-23.88,4.733c-3.397,0.12-6.798-0.505-10.199-0.514
				c-4.772-0.013-9.232,0.408-13.982-0.556c-8.31-1.688-16.187-4.508-24.407-6.485c-2.952-0.71-5.876-1.085-8.901-1.264
				c-2.557-0.152-5.726,0.86-7.043-1.655c-1.284-2.451-1.421-5.381-1.645-8.069c-0.225-2.695-1.059-5.303-1.212-8.019
				c-0.019-0.342-0.638-0.328-0.845-0.317c-8.804,0.457-17.369,0.007-26.139,1.173c-10.298,1.37-20.708,0.928-31.062,1.093
				c-4.057,0.065-8.084,0.712-12.113,1.121c-5.284,0.537-10.69,0.036-15.969-0.325c-5.74-0.393-11.388-0.479-17.129-0.379
				c-6.857,0.12-13.719,0.102-20.575,0.254c-10.126,0.226-20.058,1.205-30.198,0.512c-9.796-0.669-19.436,0.271-29.192-0.409
				c-10.562-0.737-21.398,0.754-31.878-0.933C72.572,28.567,70.948,29.603,72.066,29.783L72.066,29.783z"/>
		</g>
	</g>
	<g>
		<path fill="none" d="M599.222,36.991"/>
	</g>
	<g>
		<path fill="none" d="M288.635,36.991"/>
	</g>
</g>
</svg>
