<?xml version="1.0" encoding="utf-8"?>
<!-- Generator: Adobe Illustrator 15.0.2, SVG Export Plug-In . SVG Version: 6.00 Build 0)  -->
<!DOCTYPE svg PUBLIC "-//W3C//DTD SVG 1.1//EN" "http://www.w3.org/Graphics/SVG/1.1/DTD/svg11.dtd">
<svg version="1.1" id="Layer_1" xmlns="http://www.w3.org/2000/svg" xmlns:xlink="http://www.w3.org/1999/xlink" x="0px" y="0px"
	 width="815.528px" height="91.304px" viewBox="0 0 815.528 91.304" enable-background="new 0 0 815.528 91.304"
	 xml:space="preserve">
<g>
	<g>
		<path fill="#8AD3E7" d="M187.32,51.986c4.03,0.771,8.003,1.613,11.878,2.456c9.105,2.186,18.21,4.37,27.314,6.92
			c10.197,2.549,22.58-0.364,33.142-1.093c19.302-1.093,37.512,1.093,55.722,5.463c25.857,5.827,55.722,5.099,81.579,0.364
			c11.29-1.821,22.58-3.642,33.506-6.92c8.376-2.549,17.845-5.463,26.222-4.734c10.562,1.093,21.123,3.642,32.049,4.37
			c14.567,0.729,29.5-0.364,44.067-1.093c10.562-0.363,20.395,1.457,30.956,0c5.099-0.728,34.963,2.55,34.963,2.55
			c24.036,0,47.305-1.136,70.978-1.136c10.562,0,20.799,2.593,29.539-2.87c1.821-1.093,4.007-1.821,5.827-3.278"/>
	</g>
	<rect x="16.191" y="21.326" fill="none" stroke="#000000" stroke-width="0.5" width="2.852" height="3.22"/>
	<rect x="16.191" y="27.672" fill="none" stroke="#000000" stroke-width="0.5" width="2.852" height="13.429"/>
	<rect x="85.081" y="20.77" fill="none" stroke="#000000" stroke-width="0.5" width="2.852" height="3.22"/>
	<rect x="85.081" y="27.117" fill="none" stroke="#000000" stroke-width="0.5" width="2.852" height="17.571"/>
	<polygon fill="none" stroke="#000000" stroke-width="0.5" points="7.271,20.77 15.364,20.77 15.364,42.848 20.055,42.848 
		20.055,20.77 83.287,19.579 83.287,17.372 7.271,19.119 	"/>
	<line fill="none" stroke="#000000" x1="41.209" y1="20.372" x2="41.209" y2="45.332"/>
	<line fill="none" stroke="#000000" x1="63.375" y1="19.954" x2="63.375" y2="46.343"/>
	<line fill="none" stroke="#000000" stroke-width="0.5" x1="83.287" y1="19.579" x2="83.287" y2="46.343"/>
	<polyline fill="none" stroke="#000000" stroke-width="0.5" points="83.287,17.372 89.404,17.372 89.404,46.343 	"/>
	<path fill="none" stroke="#000000" stroke-width="0.5" d="M391.844,12.917"/>
	<path fill="none" stroke="#000000" stroke-width="0.5" d="M391.81,17.404"/>
	<path fill="#636466" stroke="#000000" stroke-width="0.5" d="M89.404,17.372l253.42-4.646l-0.08,4.906
		c8.139-1.681,16.439-2.74,24.433-2.74c8.486,0,16.808,1.438,24.667,2.986v-4.962l-21.546-0.693l-27.474,0.503"/>
	<path fill="none" stroke="#000000" stroke-width="0.5" d="M89.404,28.413l95.385-2.576c0,0,27.06-2.069,58.312,1.426
		c20.143,2.253,39.643,12.37,39.643,12.37s28.81-15.562,60.001-22"/>
	<path fill="none" stroke="#000000" d="M812.382,26.261c0,0-116.743-8.497-125.817-8.772s-135.864-3.878-145.03-3.786
		S381.04,9.028,368.575,9.028s-74.061,1.739-85.976,2.106S96.448,15.716,85.081,16.45L7.271,18.283"/>
	<polyline fill="none" stroke="#000000" stroke-width="0.5" points="83.287,25.616 89.404,25.616 95.252,19.579 103.418,28.034 
		112.025,19.2 120.183,27.262 128.432,18.65 136.956,27.117 145.021,17.645 153.638,26.261 161.612,17.645 169.502,26.25 
		177.193,17.372 184.789,25.836 193.601,16.725 202.218,25.239 209.732,16.725 217.883,25.452 225.772,16.725 234.663,26.261 
		242.546,16.358 250.795,28.034 258.311,15.899 266.743,22.774 	"/>
	<polyline fill="none" stroke="#000000" stroke-width="0.5" points="98.666,23.114 103.411,18.191 108.274,23.049 	"/>
	<polyline fill="none" stroke="#000000" stroke-width="0.5" points="115.576,22.709 120.093,17.645 124.859,22.379 	"/>
	<polyline fill="none" stroke="#000000" stroke-width="0.5" points="132.52,22.709 137.05,16.582 141.342,21.966 	"/>
	<path fill="none" stroke="#000000" stroke-width="0.5" d="M149.343,21.966c-0.06-0.06,4.113-3.775,4.113-3.775l4.156,3.775"/>
	<polyline fill="none" stroke="#000000" stroke-width="0.5" points="165.29,21.657 169.404,17.645 173.48,21.657 	"/>
	<polyline fill="none" stroke="#000000" stroke-width="0.5" points="180.781,21.37 184.803,17.372 189.108,21.37 	"/>
	<polyline fill="none" stroke="#000000" stroke-width="0.5" points="197.575,20.653 201.942,16.45 206.514,20.372 	"/>
	<polyline fill="none" stroke="#000000" stroke-width="0.5" points="213.4,20.653 218.074,16.45 222.476,20.372 	"/>
	<polyline fill="none" stroke="#000000" stroke-width="0.5" points="229.434,20.653 234.28,16.45 239.128,20.653 	"/>
	<polyline fill="none" stroke="#000000" stroke-width="0.5" points="245.938,20.653 250.43,15.899 255.195,20.177 	"/>
	<polyline fill="none" stroke="#000000" stroke-width="0.5" points="262.568,19.371 266.743,15.899 270.869,19.371 274.994,15.899 
		279.026,19.371 282.876,14.892 287.001,18.924 291.492,14.892 295.616,18.551 299.558,14.524 304.049,18.276 307.99,14.524 
		311.84,18.551 316.423,14.524 320.089,17.645 324.764,13.974 328.797,16.45 333.013,13.516 341.445,16.45 	"/>
	<line fill="none" stroke="#000000" stroke-width="0.5" x1="91.402" y1="17.372" x2="91.402" y2="23.573"/>
	<line fill="none" stroke="#000000" stroke-width="0.5" x1="95.252" y1="17.372" x2="95.252" y2="28.254"/>
	<line fill="none" stroke="#000000" stroke-width="0.5" x1="98.666" y1="17.372" x2="98.666" y2="22.709"/>
	<line fill="none" stroke="#000000" stroke-width="0.5" x1="103.418" y1="28.034" x2="103.418" y2="17.645"/>
	<line fill="none" stroke="#000000" stroke-width="0.5" x1="112.025" y1="16.957" x2="112.025" y2="27.672"/>
	<line fill="none" stroke="#000000" stroke-width="0.5" x1="107.625" y1="17.038" x2="107.539" y2="22.315"/>
	<line fill="none" stroke="#000000" stroke-width="0.5" x1="124.859" y1="22.379" x2="124.859" y2="16.722"/>
	<line fill="none" stroke="#000000" stroke-width="0.5" x1="120.183" y1="27.262" x2="120.093" y2="17.645"/>
	<line fill="none" stroke="#000000" stroke-width="0.5" x1="115.576" y1="22.709" x2="115.576" y2="17.038"/>
	<line fill="none" stroke="#000000" stroke-width="0.5" x1="128.433" y1="27.359" x2="128.433" y2="16.722"/>
	<line fill="none" stroke="#000000" stroke-width="0.5" x1="136.956" y1="27.117" x2="136.956" y2="16.582"/>
	<line fill="none" stroke="#000000" stroke-width="0.5" x1="132.52" y1="22.709" x2="132.52" y2="16.582"/>
	<line fill="none" stroke="#000000" stroke-width="0.5" x1="144.931" y1="16.582" x2="144.931" y2="26.908"/>
	<line fill="none" stroke="#000000" stroke-width="0.5" x1="153.638" y1="26.261" x2="153.638" y2="16.197"/>
	<line fill="none" stroke="#000000" stroke-width="0.5" x1="149.343" y1="21.966" x2="149.343" y2="16.273"/>
	<line fill="none" stroke="#000000" stroke-width="0.5" x1="141.342" y1="21.966" x2="141.342" y2="16.582"/>
	<line fill="none" stroke="#000000" stroke-width="0.5" x1="157.612" y1="21.966" x2="157.612" y2="16.273"/>
	<line fill="none" stroke="#000000" stroke-width="0.5" x1="161.704" y1="26.459" x2="161.704" y2="16.049"/>
	<line fill="none" stroke="#000000" stroke-width="0.5" x1="169.502" y1="26.25" x2="169.502" y2="16.049"/>
	<line fill="none" stroke="#000000" stroke-width="0.5" x1="165.29" y1="21.657" x2="165.29" y2="15.981"/>
	<line fill="none" stroke="#000000" stroke-width="0.5" x1="173.48" y1="21.657" x2="173.48" y2="15.831"/>
	<line fill="none" stroke="#000000" stroke-width="0.5" x1="177.106" y1="26.043" x2="177.106" y2="15.899"/>
	<line fill="none" stroke="#000000" stroke-width="0.5" x1="177.106" y1="26.043" x2="180.781" y2="21.37"/>
	<polyline fill="none" stroke="#000000" stroke-width="0.5" points="184.789,15.621 184.789,25.836 183.741,27.647 186.018,27.647 
		184.944,26.043 	"/>
	<line fill="none" stroke="#000000" stroke-width="0.5" x1="189.108" y1="15.544" x2="189.108" y2="21.37"/>
	<line fill="none" stroke="#000000" stroke-width="0.5" x1="193.234" y1="15.468" x2="193.234" y2="25.426"/>
	<line fill="none" stroke="#000000" stroke-width="0.5" x1="197.575" y1="15.389" x2="197.575" y2="20.041"/>
	<line fill="none" stroke="#000000" stroke-width="0.5" x1="202.045" y1="15.307" x2="202.045" y2="25.245"/>
	<line fill="none" stroke="#000000" stroke-width="0.5" x1="209.733" y1="15.167" x2="209.733" y2="25.245"/>
	<line fill="none" stroke="#000000" stroke-width="0.5" x1="217.938" y1="15.016" x2="217.938" y2="25.452"/>
	<line fill="none" stroke="#000000" stroke-width="0.5" x1="225.59" y1="14.875" x2="225.59" y2="25.245"/>
	<line fill="none" stroke="#000000" stroke-width="0.5" x1="213.4" y1="14.892" x2="213.4" y2="20.276"/>
	<line fill="none" stroke="#000000" stroke-width="0.5" x1="206.065" y1="15.167" x2="206.065" y2="20.372"/>
	<line fill="none" stroke="#000000" stroke-width="0.5" x1="222.014" y1="14.892" x2="222.014" y2="19.874"/>
	<line fill="none" stroke="#000000" stroke-width="0.5" x1="229.434" y1="20.653" x2="229.434" y2="14.805"/>
	<line fill="none" stroke="#000000" stroke-width="0.5" x1="234.28" y1="14.716" x2="234.28" y2="25.452"/>
	<line fill="none" stroke="#000000" stroke-width="0.5" x1="239.128" y1="20.653" x2="239.128" y2="14.627"/>
	<line fill="none" stroke="#000000" stroke-width="0.5" x1="245.938" y1="20.653" x2="245.938" y2="14.511"/>
	<line fill="none" stroke="#000000" stroke-width="0.5" x1="242.545" y1="14.511" x2="242.545" y2="26.908"/>
	<line fill="none" stroke="#000000" stroke-width="0.5" x1="250.567" y1="14.417" x2="250.567" y2="28.034"/>
	<line fill="none" stroke="#000000" stroke-width="0.5" x1="254.83" y1="14.339" x2="254.83" y2="19.874"/>
	<line fill="none" stroke="#000000" stroke-width="0.5" x1="258.128" y1="14.279" x2="258.128" y2="30.275"/>
	<line fill="none" stroke="#000000" stroke-width="0.5" x1="262.568" y1="14.198" x2="262.568" y2="19.371"/>
	<line fill="none" stroke="#000000" stroke-width="0.5" x1="258.128" y1="30.275" x2="266.743" y2="22.774"/>
	<line fill="none" stroke="#000000" stroke-width="0.5" x1="266.743" y1="14.279" x2="266.743" y2="32.931"/>
	<line fill="none" stroke="#000000" stroke-width="0.5" x1="266.743" y1="32.931" x2="279.026" y2="19.371"/>
	<line fill="none" stroke="#000000" stroke-width="0.5" x1="282.876" y1="29.441" x2="291.868" y2="35.125"/>
	<line fill="none" stroke="#000000" stroke-width="0.5" x1="275.357" y1="23.605" x2="282.876" y2="29.441"/>
	<line fill="none" stroke="#000000" stroke-width="0.5" x1="270.869" y1="19.371" x2="275.059" y2="23.418"/>
	<line fill="none" stroke="#000000" stroke-width="0.5" x1="291.546" y1="23.147" x2="295.616" y2="18.551"/>
	<line fill="none" stroke="#000000" stroke-width="0.5" x1="275.059" y1="36.123" x2="291.358" y2="22.969"/>
	<line fill="none" stroke="#000000" stroke-width="0.5" x1="282.876" y1="14.892" x2="300.215" y2="31.401"/>
	<line fill="none" stroke="#000000" stroke-width="0.5" x1="299.754" y1="13.516" x2="299.754" y2="31.401"/>
	<line fill="none" stroke="#000000" stroke-width="0.5" x1="291.546" y1="13.667" x2="291.546" y2="35.125"/>
	<line fill="none" stroke="#000000" stroke-width="0.5" x1="282.876" y1="13.826" x2="282.876" y2="39.632"/>
	<line fill="none" stroke="#000000" stroke-width="0.5" x1="299.754" y1="22.969" x2="304.049" y2="18.276"/>
	<line fill="none" stroke="#000000" stroke-width="0.5" x1="299.754" y1="22.969" x2="308.067" y2="27.516"/>
	<line fill="none" stroke="#000000" stroke-width="0.5" x1="308.049" y1="13.364" x2="308.067" y2="28.19"/>
	<line fill="none" stroke="#000000" stroke-width="0.5" x1="316.378" y1="13.211" x2="316.378" y2="25.049"/>
	<line fill="none" stroke="#000000" stroke-width="0.5" x1="324.704" y1="13.059" x2="324.704" y2="22.277"/>
	<line fill="none" stroke="#000000" stroke-width="0.5" x1="332.922" y1="12.909" x2="332.922" y2="19.999"/>
	<line fill="none" stroke="#000000" stroke-width="0.5" x1="320.089" y1="17.645" x2="320.089" y2="13.145"/>
	<line fill="none" stroke="#000000" stroke-width="0.5" x1="320.089" y1="17.645" x2="324.704" y2="22.277"/>
	<line fill="none" stroke="#000000" stroke-width="0.5" x1="311.84" y1="18.551" x2="316.227" y2="23.147"/>
	<line fill="none" stroke="#000000" stroke-width="0.5" x1="304.049" y1="18.276" x2="304.049" y2="13.437"/>
	<line fill="none" stroke="#000000" stroke-width="0.5" x1="311.84" y1="18.276" x2="311.84" y2="13.294"/>
	<line fill="none" stroke="#000000" stroke-width="0.5" x1="295.616" y1="18.551" x2="295.616" y2="13.592"/>
	<line fill="none" stroke="#000000" stroke-width="0.5" x1="287.001" y1="18.924" x2="287.001" y2="13.826"/>
	<line fill="none" stroke="#000000" stroke-width="0.5" x1="279.026" y1="19.13" x2="279.026" y2="13.896"/>
	<line fill="none" stroke="#000000" stroke-width="0.5" x1="275.059" y1="13.896" x2="275.059" y2="36.048"/>
	<line fill="none" stroke="#000000" stroke-width="0.5" x1="270.869" y1="19.371" x2="270.869" y2="14.049"/>
	<line fill="none" stroke="#000000" stroke-width="0.5" x1="328.797" y1="16.45" x2="328.797" y2="13.059"/>
	<line fill="none" stroke="#000000" stroke-width="0.5" x1="342.188" y1="12.739" x2="338.414" y2="15.395"/>
	<line fill="none" stroke="#000000" stroke-width="0.5" x1="328.797" y1="16.45" x2="332.922" y2="18.834"/>
	<g>
		<path fill="none" stroke="#000000" stroke-width="0.5" d="M645.691,28.878l-96.021-2.796c0,0-27.061-2.069-58.312,1.426
			c-20.143,2.253-39.643,12.37-39.643,12.37s-28.811-15.562-60.002-22"/>
		<polyline fill="none" stroke="#000000" stroke-width="0.5" points="651.808,25.862 645.691,25.862 639.206,19.825 631.042,28.28 
			622.435,19.446 614.276,27.508 606.026,18.896 597.503,27.363 589.437,17.891 580.821,26.507 572.847,17.891 564.958,26.496 
			557.265,17.618 549.671,26.083 540.858,16.971 532.241,25.485 524.728,16.971 516.575,25.698 508.687,16.971 499.796,26.507 
			491.913,16.604 483.663,28.28 476.147,16.145 467.716,23.02 		"/>
		<polyline fill="none" stroke="#000000" stroke-width="0.5" points="635.792,23.36 631.048,18.437 626.185,23.295 		"/>
		<polyline fill="none" stroke="#000000" stroke-width="0.5" points="618.884,22.956 614.366,17.891 609.601,22.625 		"/>
		<polyline fill="none" stroke="#000000" stroke-width="0.5" points="601.94,22.956 597.409,16.828 593.116,22.212 		"/>
		<path fill="none" stroke="#000000" stroke-width="0.5" d="M585.116,22.212c0.061-0.06-4.113-3.775-4.113-3.775l-4.156,3.775"/>
		<polyline fill="none" stroke="#000000" stroke-width="0.5" points="569.169,21.903 565.054,17.891 560.978,21.903 		"/>
		<polyline fill="none" stroke="#000000" stroke-width="0.5" points="553.679,21.616 549.655,17.618 545.351,21.616 		"/>
		<polyline fill="none" stroke="#000000" stroke-width="0.5" points="536.884,20.899 532.517,16.696 527.944,20.618 		"/>
		<polyline fill="none" stroke="#000000" stroke-width="0.5" points="521.058,20.899 516.384,16.696 511.983,20.618 		"/>
		<polyline fill="none" stroke="#000000" stroke-width="0.5" points="505.024,20.899 500.179,16.696 495.331,20.899 		"/>
		<polyline fill="none" stroke="#000000" stroke-width="0.5" points="488.692,21.163 484.028,16.145 478.955,20.678 		"/>
		<polyline fill="none" stroke="#000000" stroke-width="0.5" points="471.89,19.617 467.716,16.145 463.589,19.617 459.464,16.145 
			455.433,19.617 451.583,15.138 447.458,19.17 442.966,15.138 438.843,18.797 434.901,14.77 430.409,18.522 426.468,14.77 
			422.618,18.797 418.036,14.77 414.37,17.891 409.694,14.22 405.661,16.696 401.446,13.762 391.844,17.148 		"/>
		<line fill="none" stroke="#000000" stroke-width="0.5" x1="643.056" y1="17.618" x2="643.056" y2="23.36"/>
		<line fill="none" stroke="#000000" stroke-width="0.5" x1="639.206" y1="17.618" x2="639.206" y2="28.5"/>
		<line fill="none" stroke="#000000" stroke-width="0.5" x1="635.792" y1="17.284" x2="635.792" y2="22.956"/>
		<line fill="none" stroke="#000000" stroke-width="0.5" x1="631.042" y1="28.28" x2="631.042" y2="17.284"/>
		<line fill="none" stroke="#000000" stroke-width="0.5" x1="622.435" y1="17.203" x2="622.435" y2="27.918"/>
		<line fill="none" stroke="#000000" stroke-width="0.5" x1="626.833" y1="17.284" x2="626.921" y2="22.561"/>
		<line fill="none" stroke="#000000" stroke-width="0.5" x1="609.601" y1="22.625" x2="609.601" y2="16.968"/>
		<line fill="none" stroke="#000000" stroke-width="0.5" x1="614.276" y1="27.508" x2="614.366" y2="17.891"/>
		<line fill="none" stroke="#000000" stroke-width="0.5" x1="618.884" y1="22.956" x2="618.884" y2="16.998"/>
		<line fill="none" stroke="#000000" stroke-width="0.5" x1="606.026" y1="27.605" x2="606.026" y2="16.968"/>
		<line fill="none" stroke="#000000" stroke-width="0.5" x1="597.503" y1="27.363" x2="597.503" y2="16.828"/>
		<line fill="none" stroke="#000000" stroke-width="0.5" x1="601.94" y1="22.956" x2="601.94" y2="16.828"/>
		<line fill="none" stroke="#000000" stroke-width="0.5" x1="589.528" y1="16.525" x2="589.528" y2="27.154"/>
		<line fill="none" stroke="#000000" stroke-width="0.5" x1="580.821" y1="26.507" x2="580.821" y2="16.443"/>
		<line fill="none" stroke="#000000" stroke-width="0.5" x1="585.116" y1="22.212" x2="585.116" y2="16.519"/>
		<line fill="none" stroke="#000000" stroke-width="0.5" x1="593.116" y1="22.212" x2="593.116" y2="16.525"/>
		<line fill="none" stroke="#000000" stroke-width="0.5" x1="576.847" y1="22.212" x2="576.847" y2="16.519"/>
		<line fill="none" stroke="#000000" stroke-width="0.5" x1="572.755" y1="26.706" x2="572.755" y2="16.295"/>
		<line fill="none" stroke="#000000" stroke-width="0.5" x1="564.958" y1="26.496" x2="564.958" y2="16.295"/>
		<line fill="none" stroke="#000000" stroke-width="0.5" x1="569.169" y1="21.903" x2="569.169" y2="16.227"/>
		<line fill="none" stroke="#000000" stroke-width="0.5" x1="560.978" y1="21.903" x2="560.978" y2="16.077"/>
		<line fill="none" stroke="#000000" stroke-width="0.5" x1="557.353" y1="26.29" x2="557.353" y2="16.145"/>
		<line fill="none" stroke="#000000" stroke-width="0.5" x1="557.353" y1="26.29" x2="553.679" y2="21.616"/>
		<line fill="none" stroke="#000000" stroke-width="0.5" x1="549.671" y1="26.083" x2="549.671" y2="15.867"/>
		<line fill="none" stroke="#000000" stroke-width="0.5" x1="545.351" y1="15.791" x2="545.351" y2="21.616"/>
		<line fill="none" stroke="#000000" stroke-width="0.5" x1="540.882" y1="15.7" x2="540.882" y2="25.658"/>
		<line fill="none" stroke="#000000" stroke-width="0.5" x1="536.884" y1="15.635" x2="536.884" y2="20.899"/>
		<line fill="none" stroke="#000000" stroke-width="0.5" x1="532.415" y1="15.553" x2="532.415" y2="25.491"/>
		<line fill="none" stroke="#000000" stroke-width="0.5" x1="524.726" y1="15.413" x2="524.726" y2="25.491"/>
		<line fill="none" stroke="#000000" stroke-width="0.5" x1="516.521" y1="15.262" x2="516.521" y2="25.698"/>
		<line fill="none" stroke="#000000" stroke-width="0.5" x1="508.868" y1="15.122" x2="508.868" y2="26.049"/>
		<line fill="none" stroke="#000000" stroke-width="0.5" x1="521.058" y1="15.138" x2="521.058" y2="20.522"/>
		<line fill="none" stroke="#000000" stroke-width="0.5" x1="527.944" y1="15.413" x2="527.944" y2="20.325"/>
		<line fill="none" stroke="#000000" stroke-width="0.5" x1="512.444" y1="15.138" x2="512.444" y2="20.12"/>
		<line fill="none" stroke="#000000" stroke-width="0.5" x1="505.024" y1="20.899" x2="505.024" y2="15.051"/>
		<line fill="none" stroke="#000000" stroke-width="0.5" x1="500.179" y1="14.962" x2="499.796" y2="26.507"/>
		<line fill="none" stroke="#000000" stroke-width="0.5" x1="495.331" y1="20.899" x2="495.331" y2="14.874"/>
		<line fill="none" stroke="#000000" stroke-width="0.5" x1="488.521" y1="20.899" x2="488.521" y2="14.757"/>
		<line fill="none" stroke="#000000" stroke-width="0.5" x1="491.913" y1="14.757" x2="491.913" y2="27.154"/>
		<line fill="none" stroke="#000000" stroke-width="0.5" x1="483.892" y1="14.664" x2="483.892" y2="28.28"/>
		<line fill="none" stroke="#000000" stroke-width="0.5" x1="479.628" y1="14.585" x2="479.628" y2="20.12"/>
		<line fill="none" stroke="#000000" stroke-width="0.5" x1="476.331" y1="14.525" x2="476.331" y2="30.521"/>
		<line fill="none" stroke="#000000" stroke-width="0.5" x1="471.89" y1="14.444" x2="471.89" y2="19.617"/>
		<line fill="none" stroke="#000000" stroke-width="0.5" x1="476.331" y1="30.521" x2="467.716" y2="23.02"/>
		<line fill="none" stroke="#000000" stroke-width="0.5" x1="467.716" y1="14.525" x2="467.716" y2="33.177"/>
		<line fill="none" stroke="#000000" stroke-width="0.5" x1="467.716" y1="33.177" x2="455.433" y2="19.617"/>
		<line fill="none" stroke="#000000" stroke-width="0.5" x1="451.583" y1="29.687" x2="442.591" y2="35.372"/>
		<line fill="none" stroke="#000000" stroke-width="0.5" x1="459.101" y1="23.851" x2="451.583" y2="29.687"/>
		<line fill="none" stroke="#000000" stroke-width="0.5" x1="463.589" y1="19.617" x2="459.399" y2="23.665"/>
		<line fill="none" stroke="#000000" stroke-width="0.5" x1="442.913" y1="23.393" x2="438.843" y2="18.797"/>
		<line fill="none" stroke="#000000" stroke-width="0.5" x1="459.399" y1="36.369" x2="443.101" y2="23.215"/>
		<line fill="none" stroke="#000000" stroke-width="0.5" x1="451.583" y1="15.138" x2="434.243" y2="31.647"/>
		<line fill="none" stroke="#000000" stroke-width="0.5" x1="434.704" y1="13.762" x2="434.704" y2="31.647"/>
		<line fill="none" stroke="#000000" stroke-width="0.5" x1="442.913" y1="13.913" x2="442.913" y2="35.372"/>
		<line fill="none" stroke="#000000" stroke-width="0.5" x1="451.583" y1="14.072" x2="451.583" y2="39.878"/>
		<line fill="none" stroke="#000000" stroke-width="0.5" x1="434.704" y1="23.215" x2="430.409" y2="18.522"/>
		<line fill="none" stroke="#000000" stroke-width="0.5" x1="434.704" y1="23.215" x2="426.392" y2="27.762"/>
		<line fill="none" stroke="#000000" stroke-width="0.5" x1="426.409" y1="13.61" x2="426.392" y2="28.436"/>
		<line fill="none" stroke="#000000" stroke-width="0.5" x1="418.081" y1="13.458" x2="418.081" y2="25.295"/>
		<line fill="none" stroke="#000000" stroke-width="0.5" x1="409.755" y1="13.305" x2="409.755" y2="22.523"/>
		<line fill="none" stroke="#000000" stroke-width="0.5" x1="401.536" y1="13.155" x2="401.536" y2="20.245"/>
		<line fill="none" stroke="#000000" stroke-width="0.5" x1="414.37" y1="17.891" x2="414.37" y2="13.391"/>
		<line fill="none" stroke="#000000" stroke-width="0.5" x1="414.37" y1="17.891" x2="409.755" y2="22.523"/>
		<line fill="none" stroke="#000000" stroke-width="0.5" x1="422.618" y1="18.797" x2="418.231" y2="23.393"/>
		<line fill="none" stroke="#000000" stroke-width="0.5" x1="430.409" y1="18.522" x2="430.409" y2="13.683"/>
		<line fill="none" stroke="#000000" stroke-width="0.5" x1="422.618" y1="18.522" x2="422.618" y2="13.541"/>
		<line fill="none" stroke="#000000" stroke-width="0.5" x1="438.843" y1="18.797" x2="438.843" y2="13.838"/>
		<line fill="none" stroke="#000000" stroke-width="0.5" x1="447.458" y1="19.17" x2="447.458" y2="14.072"/>
		<line fill="none" stroke="#000000" stroke-width="0.5" x1="455.433" y1="19.376" x2="455.433" y2="14.142"/>
		<line fill="none" stroke="#000000" stroke-width="0.5" x1="459.399" y1="14.142" x2="459.399" y2="36.294"/>
		<line fill="none" stroke="#000000" stroke-width="0.5" x1="463.589" y1="19.617" x2="463.589" y2="14.295"/>
		<line fill="none" stroke="#000000" stroke-width="0.5" x1="405.661" y1="16.696" x2="405.661" y2="13.305"/>
		<line fill="none" stroke="#000000" stroke-width="0.5" x1="391.844" y1="12.917" x2="396.044" y2="15.641"/>
		<line fill="none" stroke="#000000" stroke-width="0.5" x1="405.661" y1="16.696" x2="401.536" y2="19.081"/>
	</g>
	<line fill="#EE3968" stroke="#000000" stroke-width="0.5" x1="391.844" y1="12.917" x2="645.691" y2="17.489"/>
	<rect x="647.485" y="20.887" fill="none" stroke="#000000" stroke-width="0.5" width="2.852" height="3.22"/>
	<rect x="647.485" y="27.234" fill="none" stroke="#000000" stroke-width="0.5" width="2.852" height="17.571"/>
	<line fill="none" stroke="#000000" stroke-width="0.5" x1="645.691" y1="17.489" x2="645.691" y2="58.367"/>
	<polyline fill="none" stroke="#000000" stroke-width="0.5" points="645.691,17.489 651.808,17.489 651.808,58.367 	"/>
	<line fill="none" stroke="#000000" x1="651.808" y1="17.891" x2="811.66" y2="26.203"/>
	<line fill="none" stroke="#000000" stroke-width="0.5" x1="651.808" y1="20.975" x2="812.165" y2="26.203"/>
	<line fill="none" stroke="#000000" x1="666.46" y1="21.616" x2="666.46" y2="59.141"/>
	<line fill="none" stroke="#000000" x1="671.72" y1="21.846" x2="671.72" y2="59.248"/>
	<line fill="none" stroke="#000000" x1="688.082" y1="22.561" x2="688.082" y2="59.248"/>
	<line fill="none" stroke="#000000" x1="691.254" y1="22.7" x2="691.254" y2="59.248"/>
	<line fill="none" stroke="#000000" x1="710.285" y1="22.881" x2="710.285" y2="44.805"/>
	<line fill="none" stroke="#000000" x1="715.952" y1="23.066" x2="715.952" y2="44.805"/>
	<line fill="none" stroke="#000000" x1="732.619" y1="23.815" x2="732.619" y2="40.463"/>
	<line fill="none" stroke="#000000" x1="750.946" y1="23.513" x2="750.946" y2="32.486"/>
	<line fill="none" stroke="#000000" x1="767.285" y1="24.74" x2="767.285" y2="32.486"/>
	<rect x="711.44" y="25.24" fill="none" stroke="#000000" stroke-width="0.5" width="3.125" height="4.607"/>
	<rect x="711.44" y="33.607" fill="none" stroke="#000000" stroke-width="0.5" width="3.125" height="6.856"/>
	<g>
		<path d="M710.285,31.668c0.236-0.384,0.473-0.547,0.708-0.68c0.236-0.101,0.473-0.183,0.709-0.055
			c0.236,0.13,0.472,0.451,0.708,0.512c0.236,0.071,0.473-0.038,0.709-0.226c0.235-0.196,0.472-0.343,0.708-0.397
			c0.236-0.076,0.472-0.155,0.708-0.123c0.473,0.089,0.944,0.328,1.417,0.969v0.199c-0.473,0.641-0.944,0.88-1.417,0.969
			c-0.236,0.032-0.472-0.047-0.708-0.123c-0.236-0.055-0.473-0.201-0.708-0.397c-0.236-0.188-0.473-0.297-0.709-0.226
			c-0.236,0.061-0.472,0.382-0.708,0.512c-0.236,0.128-0.473,0.046-0.709-0.055c-0.235-0.133-0.472-0.296-0.708-0.68V31.668z"/>
	</g>
	<g>
		<g>
			<path d="M15.3,44.542c32.422,0.044,64.735,2.01,96.993,5.113c7.008,0.675,14.07,1.21,21.115,1.136
				c8.573-0.091,17.03-1.497,25.605-1.432c15.813,0.12,31.613,3.753,46.903,7.455c7.206,1.746,14.342,3.905,21.576,5.508
				c6.099,1.351,12.635,0.69,18.773,0.042c15.774-1.666,31.052-2.121,46.844-0.097c15.017,1.927,29.503,6.202,44.624,7.553
				c14.478,1.294,29.116,0.815,43.548-0.763c14.659-1.603,29.549-4.161,43.854-7.742c7.634-1.911,14.986-4.643,22.79-5.874
				c8.371-1.322,16.992,0.797,25.241,2.136c15.395,2.498,30.623,2.282,46.153,1.509c8.062-0.401,16.032-0.89,24.109-0.514
				c6.925,0.322,13.692,0.554,20.596-0.233c7.387-0.842,15.559,0.73,22.913,1.428c7.268,0.689,14.059,1.183,21.388,1.107
				c15.96-0.162,31.913-0.724,47.872-0.973c7.874-0.122,15.7-0.087,23.562,0.363c5.811,0.333,11.433,0.124,16.923-1.94
				c2.429-0.912,8.891-3.375,9.927-6.133c0.558-1.484,0.76-2.959,1.035-4.52c0.683-3.869,9.176-2.55,11.719-2.536
				c3.45,0.019,7.142-0.869,10.331-2.121c1.675-0.657,2.995-1.189,4.34-2.396c3.786-3.397,7.209-5.986,12.493-6.411
				c12.022-0.967,24.111-0.288,36.088-2.11c6.431-0.979,12.756-2.258,19.262-2.668c3.843-0.242,7.707-0.524,10.918-2.827
				c1.068-0.766-0.53-1.325-1.26-0.802c-3.118,2.236-7.141,2.158-10.797,2.388c-3.605,0.227-7.165,0.769-10.724,1.366
				c-7.763,1.303-15.396,2.335-23.273,2.609c-11.652,0.406-24.027-1.584-33.155,6.917c-5.617,5.232-13.437,4.524-20.459,4.638
				c-3.141,0.051-6.416,0.911-7.433,4.124c-0.946,2.99,0.835,3.81-3.962,6.392c-1.462,0.787-2.939,1.518-4.384,2.34
				c-4.042,2.303-8.991,2.529-13.521,2.497c-7.242-0.052-14.442-0.625-21.699-0.564c-24.471,0.201-49.126,2.398-73.51,0.029
				c-7.597-0.738-15.269-1.596-22.909-1.584c-6.012,0.009-11.926,0.742-17.986,0.473c-7.547-0.336-14.91-0.373-22.456,0.032
				c-16.591,0.893-33.042,1.622-49.526-0.905c-7.309-1.121-14.698-2.844-22.116-2.88c-6.754-0.033-13.512,1.968-19.925,3.857
				c-29.909,8.815-62.313,13.311-93.481,11.109c-15.132-1.068-29.631-5.236-44.582-7.442c-14.589-2.152-29.442-2.487-44.084-0.755
				c-7.182,0.851-14.347,1.748-21.573,0.865c-8.248-1.008-16.662-4.211-24.75-6.17c-14.331-3.472-28.932-6.448-43.698-7.058
				c-11.79-0.486-23.438,1.687-35.27,1.221c-11.991-0.471-23.904-2.188-35.858-3.162c-24.708-2.011-49.627-2.887-74.412-2.921
				C15.119,43.217,13.995,44.541,15.3,44.542L15.3,44.542z"/>
		</g>
	</g>
	<polyline fill="none" stroke="#000000" points="182.562,51.12 182.865,29.573 186.427,29.573 187.317,51.986 	"/>
	<polygon fill="none" stroke="#000000" points="182.106,27.647 187.711,27.647 186.427,29.573 182.865,29.573 	"/>
	<polygon fill="none" stroke="#000000" stroke-width="0.5" points="279.116,42.651 286.257,42.651 284.798,45.044 280.478,45.044 	
		"/>
	<polyline fill="none" stroke="#000000" stroke-width="0.5" points="287.856,58.531 284.798,45.044 280.478,45.044 279.484,58.531 	
		"/>
	<polyline fill="none" stroke="#000000" stroke-width="0.5" points="287.856,58.531 288.417,58.531 288.417,61.003 	"/>
	<polyline fill="none" stroke="#000000" stroke-width="0.5" points="278.259,59.523 278.259,58.531 286.257,58.531 287.856,58.531 	
		"/>
	<line fill="none" stroke="#000000" stroke-width="0.5" x1="282.743" y1="39.632" x2="280.652" y2="42.651"/>
	<line fill="none" stroke="#000000" stroke-width="0.5" x1="282.743" y1="39.632" x2="284.914" y2="42.651"/>
	<polygon fill="none" stroke="#000000" stroke-width="0.5" points="448.62,42.183 454.691,42.183 453.699,44.635 455.508,54.35 
		447.659,55.305 449.833,44.695 	"/>
	<line fill="none" stroke="#000000" stroke-width="0.5" x1="449.833" y1="44.695" x2="453.699" y2="44.695"/>
	<line fill="none" stroke="#000000" stroke-width="0.5" x1="451.716" y1="39.878" x2="449.833" y2="42.183"/>
	<line fill="none" stroke="#000000" stroke-width="0.5" x1="451.716" y1="39.878" x2="453.113" y2="42.183"/>
	<polyline fill="none" stroke="#000000" stroke-width="0.5" points="547.356,57.934 547.356,31.325 546.717,29.166 552.626,29.166 
		551.796,31.034 552.626,58.181 	"/>
	<line fill="none" stroke="#000000" stroke-width="0.5" x1="549.671" y1="26.083" x2="548.159" y2="29.166"/>
	<line fill="none" stroke="#000000" stroke-width="0.5" x1="549.671" y1="26.083" x2="551.486" y2="29.166"/>
	<line fill="none" stroke="#000000" stroke-width="0.5" x1="547.356" y1="31.325" x2="551.807" y2="31.325"/>
	<g>
		<path fill="none" d="M702.663,53.395"/>
	</g>
	<g>
		<path fill="none" d="M189.932,51.986"/>
	</g>
</g>
</svg>
