<?xml version="1.0" encoding="utf-8"?>
<!-- Generator: Adobe Illustrator 15.0.2, SVG Export Plug-In . SVG Version: 6.00 Build 0)  -->
<!DOCTYPE svg PUBLIC "-//W3C//DTD SVG 1.1//EN" "http://www.w3.org/Graphics/SVG/1.1/DTD/svg11.dtd">
<svg version="1.1" id="Layer_1" xmlns="http://www.w3.org/2000/svg" xmlns:xlink="http://www.w3.org/1999/xlink" x="0px" y="0px"
	 width="612px" height="792px" viewBox="0 0 612 792" enable-background="new 0 0 612 792" xml:space="preserve">
<g>
	<g>
		<path fill="#8AD3E7" d="M225.175,421.348c1.951,0.34,4.254,0.873,5.666,1.643c3.593,1.54,5.462,4.178,10.802,4.541
			c7.21,0.488,13.345,3.849,20.787,4.362c14.114,0.77,27.608,0.866,41.466,0.353c0.961,0,2.756,0.674,3.731,0.674l8.181,1.025
			c15.653,4.363,32.076,4.363,47.73,7.956c6.93,1.796,13.602,3.079,20.529,4.106c3.08,0.256,6.158,1.282,9.238,1.025
			c4.105-0.256,5.389-3.079,8.982-4.619c0,0,19.76-1.539,29.512-5.132c5.645-2.054,10.008-5.902,14.371-10.265
			c1.492-1.494,2.391-3.701,3.389-5.877"/>
	</g>
	<g>
		<path fill="#5CCBF0" d="M225.631,421.506c18.57-0.67,37.141-0.896,55.711-0.732c9.285,0.145,18.57,0.436,27.855,0.509
			c9.285,0.059,18.57-0.052,27.855-0.224c9.285-0.191,18.57-0.334,27.855-0.393c9.286-0.069,18.571-0.153,27.856-0.126
			c18.57,0.101,37.141,0.332,55.711,0.966v0.201c-18.57,0.634-37.141,0.865-55.711,0.966c-9.285,0.027-18.57-0.057-27.856-0.126
			c-9.285-0.059-18.57-0.201-27.855-0.393c-9.285-0.172-18.57-0.282-27.855-0.224c-9.285,0.073-18.57,0.364-27.855,0.509
			c-18.57,0.164-37.141-0.062-55.711-0.732V421.506z"/>
	</g>
	<polyline fill="none" stroke="#000000" stroke-width="2" points="21.361,411.106 230.763,400.586 288.502,397.506 310.314,397.506 
		371.646,397.506 452.227,398.789 591.346,403.148 	"/>
	<line fill="none" stroke="#000000" stroke-width="4" x1="371.391" y1="346" x2="371.391" y2="412.903"/>
	<line fill="none" stroke="#000000" stroke-width="4" x1="310.055" y1="346.182" x2="310.055" y2="412.904"/>
	<path fill="none" stroke="#000000" d="M88.083,409.054c0.77,0,142.456-5.123,142.456-5.123l0.003,8.973h-73"/>
	<line fill="none" stroke="#000000" x1="230.763" y1="400.586" x2="230.763" y2="412.903"/>
	<line fill="none" stroke="#000000" x1="194.31" y1="402.417" x2="194.31" y2="414.02"/>
	<line fill="none" stroke="#000000" x1="204.071" y1="401.926" x2="204.071" y2="414.02"/>
	<line fill="none" stroke="#000000" x1="194.31" y1="403.931" x2="204.071" y2="403.379"/>
	<line fill="none" stroke="#000000" x1="194.31" y1="408.417" x2="204.071" y2="408.417"/>
	<line fill="none" stroke="#000000" x1="194.31" y1="403.931" x2="204.071" y2="408.417"/>
	<line fill="none" stroke="#000000" x1="204.071" y1="403.379" x2="194.31" y2="408.417"/>
	<line fill="none" stroke="#000000" x1="100.253" y1="408.626" x2="100.253" y2="412.32"/>
	<line fill="none" stroke="#000000" x1="112.686" y1="408.182" x2="112.684" y2="412.32"/>
	<line fill="none" stroke="#000000" x1="118.769" y1="407.963" x2="118.769" y2="412.903"/>
	<line fill="none" stroke="#000000" x1="112.686" y1="408.182" x2="118.769" y2="411.516"/>
	<line fill="none" stroke="#000000" x1="112.684" y1="411.516" x2="118.769" y2="411.516"/>
	<line fill="none" stroke="#000000" x1="112.684" y1="411.516" x2="118.769" y2="407.963"/>
	<line fill="none" stroke="#000000" x1="130.928" y1="407.525" x2="130.928" y2="412.903"/>
	<line fill="none" stroke="#000000" x1="152.212" y1="404.532" x2="151.94" y2="413.482"/>
	<line fill="none" stroke="#000000" x1="157.752" y1="404.307" x2="157.484" y2="413.482"/>
	<line fill="none" stroke="#000000" x1="151.99" y1="411.871" x2="157.542" y2="411.871"/>
	<line fill="none" stroke="#000000" x1="152.212" y1="408.895" x2="157.619" y2="408.895"/>
	<line fill="none" stroke="#000000" x1="152.145" y1="406.762" x2="157.619" y2="408.895"/>
	<line fill="none" stroke="#000000" x1="152.212" y1="408.895" x2="157.484" y2="406.568"/>
	<line fill="none" stroke="#000000" x1="152.212" y1="408.895" x2="157.542" y2="411.871"/>
	<line fill="none" stroke="#000000" x1="151.99" y1="411.871" x2="157.619" y2="408.895"/>
	<line fill="none" stroke="#000000" x1="176.089" y1="405.897" x2="175.995" y2="412.903"/>
	<line fill="none" stroke="#000000" x1="204.071" y1="414.02" x2="194.31" y2="414.02"/>
	<line fill="none" stroke="#000000" x1="194.31" y1="408.417" x2="204.071" y2="414.02"/>
	<line fill="none" stroke="#000000" x1="204.071" y1="408.417" x2="194.31" y2="414.02"/>
	<line fill="none" stroke="#000000" stroke-width="2" x1="230.542" y1="412.903" x2="310.438" y2="412.904"/>
	<line fill="none" stroke="#000000" x1="237.698" y1="400.215" x2="237.698" y2="412.903"/>
	<line fill="none" stroke="#000000" x1="245.207" y1="399.815" x2="245.207" y2="412.903"/>
	<line fill="none" stroke="#000000" x1="252.364" y1="399.434" x2="251.823" y2="412.904"/>
	<line fill="none" stroke="#000000" x1="259.329" y1="399.062" x2="259.329" y2="412.904"/>
	<line fill="none" stroke="#000000" x1="266.674" y1="398.67" x2="266.674" y2="412.903"/>
	<line fill="none" stroke="#000000" x1="274.088" y1="398.275" x2="274.088" y2="412.904"/>
	<line fill="none" stroke="#000000" x1="281.152" y1="397.898" x2="281.152" y2="412.904"/>
	<line fill="none" stroke="#000000" x1="288.502" y1="397.506" x2="288.396" y2="412.903"/>
	<line fill="none" stroke="#000000" x1="295.372" y1="397.506" x2="295.819" y2="412.903"/>
	<line fill="none" stroke="#000000" x1="302.36" y1="397.506" x2="302.36" y2="412.904"/>
	<line fill="none" stroke="#000000" x1="230.542" y1="412.903" x2="237.698" y2="400.215"/>
	<line fill="none" stroke="#000000" x1="237.698" y1="400.215" x2="245.207" y2="412.903"/>
	<line fill="none" stroke="#000000" x1="245.207" y1="399.815" x2="251.823" y2="412.904"/>
	<line fill="none" stroke="#000000" x1="252.364" y1="399.434" x2="259.329" y2="412.904"/>
	<line fill="none" stroke="#000000" x1="259.329" y1="399.062" x2="266.674" y2="412.903"/>
	<line fill="none" stroke="#000000" x1="266.674" y1="398.67" x2="274.088" y2="412.904"/>
	<line fill="none" stroke="#000000" x1="274.088" y1="398.275" x2="266.674" y2="412.903"/>
	<line fill="none" stroke="#000000" x1="281.152" y1="397.898" x2="274.088" y2="412.904"/>
	<line fill="none" stroke="#000000" x1="288.502" y1="397.506" x2="281.152" y2="412.904"/>
	<line fill="none" stroke="#000000" x1="295.372" y1="397.506" x2="288.396" y2="412.903"/>
	<line fill="none" stroke="#000000" x1="302.36" y1="397.506" x2="295.819" y2="412.903"/>
	<line fill="none" stroke="#000000" x1="302.36" y1="397.506" x2="308.963" y2="412.903"/>
	<line fill="none" stroke="#000000" stroke-width="2" x1="310.055" y1="379.542" x2="371.391" y2="379.542"/>
	<line fill="none" stroke="#000000" x1="319.068" y1="379.567" x2="319.068" y2="412.904"/>
	<line fill="none" stroke="#000000" x1="328.188" y1="379.567" x2="328.188" y2="412.904"/>
	<line fill="none" stroke="#000000" x1="336.863" y1="379.567" x2="336.773" y2="412.903"/>
	<line fill="none" stroke="#000000" x1="345.357" y1="379.567" x2="345.357" y2="412.904"/>
	<line fill="none" stroke="#000000" x1="354.567" y1="379.567" x2="354.567" y2="412.521"/>
	<line fill="none" stroke="#000000" x1="362.615" y1="379.542" x2="362.348" y2="412.903"/>
	<line fill="none" stroke="#000000" stroke-width="2" x1="310.438" y1="412.904" x2="371.391" y2="412.903"/>
	<line fill="none" stroke="#000000" x1="319.068" y1="379.567" x2="310.314" y2="397.506"/>
	<line fill="none" stroke="#000000" x1="319.068" y1="379.567" x2="327.831" y2="397.506"/>
	<line fill="none" stroke="#000000" x1="328.188" y1="379.567" x2="336.773" y2="397.506"/>
	<line fill="none" stroke="#000000" x1="336.863" y1="379.567" x2="345.357" y2="397.506"/>
	<line fill="none" stroke="#000000" x1="345.357" y1="379.567" x2="336.773" y2="397.506"/>
	<line fill="none" stroke="#000000" x1="354.567" y1="379.567" x2="345.357" y2="397.506"/>
	<line fill="none" stroke="#000000" x1="362.615" y1="379.542" x2="354.567" y2="397.506"/>
	<line fill="none" stroke="#000000" x1="362.615" y1="379.542" x2="370.844" y2="397.506"/>
	<rect x="339.009" y="379.95" fill="none" stroke="#000000" width="3.755" height="4.024"/>
	<rect x="333.555" y="375.121" fill="none" stroke="#000000" width="14.039" height="4.421"/>
	<polygon fill="none" stroke="#000000" points="337.756,371.723 343.928,371.723 348.935,375.121 331.944,375.121 	"/>
	<line fill="none" stroke="#000000" x1="304.403" y1="346.182" x2="310.785" y2="346.182"/>
	<line fill="none" stroke="#000000" x1="304.403" y1="346.182" x2="295.372" y2="397.506"/>
	<line fill="none" stroke="#000000" x1="304.403" y1="346.182" x2="309.5" y2="354.017"/>
	<line fill="none" stroke="#000000" x1="309.5" y1="354.017" x2="303.024" y2="354.017"/>
	<line fill="none" stroke="#000000" x1="303.024" y1="354.017" x2="310.055" y2="363.049"/>
	<line fill="none" stroke="#000000" x1="310.055" y1="363.049" x2="301.435" y2="363.049"/>
	<line fill="none" stroke="#000000" x1="301.435" y1="363.049" x2="309.5" y2="373.422"/>
	<line fill="none" stroke="#000000" x1="309.5" y1="373.422" x2="299.61" y2="373.422"/>
	<line fill="none" stroke="#000000" x1="299.61" y1="373.422" x2="309.5" y2="385.315"/>
	<line fill="none" stroke="#000000" x1="309.5" y1="385.315" x2="297.517" y2="385.315"/>
	<line fill="none" stroke="#000000" x1="297.517" y1="385.315" x2="308.605" y2="397.506"/>
	<line fill="none" stroke="#000000" stroke-linecap="square" x1="378.533" y1="346.182" x2="387.475" y2="397.758"/>
	<line fill="none" stroke="#000000" stroke-linecap="square" x1="378.398" y1="346.357" x2="372.184" y2="354.465"/>
	<line fill="none" stroke="#000000" x1="372.184" y1="354.465" x2="379.968" y2="354.465"/>
	<line fill="none" stroke="#000000" x1="379.968" y1="354.465" x2="372.184" y2="363.049"/>
	<line fill="none" stroke="#000000" x1="371.801" y1="363.049" x2="381.457" y2="363.049"/>
	<line fill="none" stroke="#000000" x1="381.457" y1="363.049" x2="372.184" y2="373.422"/>
	<line fill="none" stroke="#000000" x1="371.801" y1="373.422" x2="383.255" y2="373.422"/>
	<line fill="none" stroke="#000000" x1="383.255" y1="373.422" x2="372.184" y2="385.315"/>
	<line fill="none" stroke="#000000" x1="371.801" y1="385.315" x2="385.316" y2="385.315"/>
	<line fill="none" stroke="#000000" x1="385.316" y1="385.315" x2="372.541" y2="397.758"/>
	<line fill="none" stroke="#000000" x1="379.968" y1="397.639" x2="379.968" y2="412.904"/>
	<line fill="none" stroke="#000000" x1="379.968" y1="397.639" x2="372.899" y2="412.904"/>
	<line fill="none" stroke="#000000" stroke-width="2" x1="371.391" y1="412.903" x2="452.482" y2="414.02"/>
	<line fill="none" stroke="#000000" x1="452.482" y1="414.02" x2="469.473" y2="414.02"/>
	<line fill="none" stroke="#000000" x1="452.609" y1="398.789" x2="452.609" y2="414.02"/>
	<line fill="none" stroke="#000000" x1="379.968" y1="397.639" x2="387.475" y2="413.461"/>
	<line fill="none" stroke="#000000" x1="387.475" y1="413.461" x2="387.475" y2="397.758"/>
	<line fill="none" stroke="#000000" x1="387.475" y1="397.758" x2="393.375" y2="413.206"/>
	<line fill="none" stroke="#000000" x1="394.18" y1="413.206" x2="394.18" y2="397.865"/>
	<line fill="none" stroke="#000000" x1="394.18" y1="397.865" x2="400.977" y2="413.311"/>
	<line fill="none" stroke="#000000" x1="401.424" y1="413.311" x2="401.426" y2="397.98"/>
	<line fill="none" stroke="#000000" x1="401.426" y1="397.98" x2="408.219" y2="413.206"/>
	<line fill="none" stroke="#000000" x1="408.666" y1="413.311" x2="408.666" y2="397.98"/>
	<line fill="none" stroke="#000000" x1="415.908" y1="398.211" x2="415.908" y2="413.461"/>
	<line fill="none" stroke="#000000" x1="422.883" y1="398.321" x2="422.883" y2="413.613"/>
	<line fill="none" stroke="#000000" x1="430.217" y1="398.438" x2="430.217" y2="413.613"/>
	<line fill="none" stroke="#000000" x1="437.551" y1="398.556" x2="437.551" y2="413.818"/>
	<line fill="none" stroke="#000000" x1="445.33" y1="398.68" x2="445.33" y2="413.818"/>
	<line fill="none" stroke="#000000" x1="445.33" y1="398.68" x2="437.551" y2="413.818"/>
	<line fill="none" stroke="#000000" x1="445.33" y1="398.68" x2="452.482" y2="414.02"/>
	<line fill="none" stroke="#000000" x1="437.551" y1="398.556" x2="430.217" y2="413.613"/>
	<line fill="none" stroke="#000000" x1="430.217" y1="398.438" x2="422.883" y2="413.613"/>
	<line fill="none" stroke="#000000" x1="422.883" y1="398.321" x2="415.908" y2="413.461"/>
	<line fill="none" stroke="#000000" x1="408.666" y1="397.98" x2="415.908" y2="413.461"/>
	<line fill="none" stroke="#000000" x1="415.908" y1="398.211" x2="408.666" y2="413.311"/>
	<line fill="none" stroke="#000000" x1="452.482" y1="400.695" x2="537.344" y2="404.307"/>
	<line fill="none" stroke="#000000" x1="538.24" y1="401.482" x2="533.498" y2="415.002"/>
	<line fill="none" stroke="#000000" x1="469.473" y1="399.329" x2="469.473" y2="414.02"/>
	<line fill="none" stroke="#000000" x1="475.469" y1="399.517" x2="475.469" y2="413.818"/>
	<line fill="none" stroke="#000000" x1="492.012" y1="400.035" x2="492.012" y2="413.311"/>
	<line fill="none" stroke="#000000" x1="497.91" y1="400.22" x2="497.91" y2="413.206"/>
	<line fill="none" stroke="#000000" x1="514.545" y1="400.74" x2="514.545" y2="414.645"/>
	<line fill="none" stroke="#000000" x1="520.268" y1="400.92" x2="520.268" y2="414.645"/>
	<line fill="none" stroke="#000000" x1="514.545" y1="403.336" x2="520.268" y2="407.782"/>
	<line fill="none" stroke="#000000" x1="520.268" y1="403.58" x2="514.545" y2="407.692"/>
	<line fill="none" stroke="#000000" x1="514.545" y1="407.692" x2="520.268" y2="407.692"/>
	<line fill="none" stroke="#000000" x1="520.268" y1="413.206" x2="514.545" y2="413.206"/>
	<line fill="none" stroke="#000000" x1="514.545" y1="413.206" x2="520.268" y2="408.242"/>
	<line fill="none" stroke="#000000" x1="514.545" y1="408.242" x2="520.268" y2="413.206"/>
	<line fill="none" stroke="#000000" x1="492.012" y1="402.5" x2="497.551" y2="407.133"/>
	<line fill="none" stroke="#000000" x1="497.551" y1="402.613" x2="492.012" y2="406.404"/>
	<line fill="none" stroke="#000000" x1="492.012" y1="407.133" x2="497.551" y2="407.133"/>
	<line fill="none" stroke="#000000" x1="492.012" y1="407.133" x2="497.91" y2="411.873"/>
	<line fill="none" stroke="#000000" x1="497.551" y1="407.133" x2="492.012" y2="411.873"/>
	<line fill="none" stroke="#000000" x1="492.012" y1="411.873" x2="497.91" y2="411.873"/>
	<line fill="none" stroke="#000000" x1="469.473" y1="401.482" x2="475.469" y2="406.188"/>
	<line fill="none" stroke="#000000" x1="474.75" y1="401.643" x2="469.473" y2="406.084"/>
	<line fill="none" stroke="#000000" x1="469.473" y1="406.084" x2="474.75" y2="411.106"/>
	<line fill="none" stroke="#000000" x1="475.469" y1="406.188" x2="469.473" y2="410.725"/>
	<line fill="none" stroke="#000000" x1="469.473" y1="406.084" x2="475.469" y2="406.188"/>
	<line fill="none" stroke="#000000" x1="469.473" y1="410.725" x2="475.469" y2="411.106"/>
	<line fill="none" stroke="#000000" x1="88.083" y1="409.054" x2="88.083" y2="413.148"/>
	<polygon fill="none" stroke="#000000" points="193.109,416.973 193.664,414.02 194.775,413.973 194.775,416.973 	"/>
	<polygon fill="none" stroke="#000000" points="202.884,418.194 204.994,418.194 204.071,413.986 202.884,413.986 	"/>
	<path fill="none" stroke="#000000" d="M228.831,422.071c0-0.169,0-6.91,0-6.91l1.077-2.258h1.331l0.793,2.314l0.85,9.366
		L228.831,422.071z"/>
	<line fill="none" stroke="#000000" x1="228.831" y1="415.161" x2="232.031" y2="415.161"/>
	<polygon fill="none" stroke="#000000" points="307.627,415.74 308.994,412.903 309.715,412.903 310.918,415.74 	"/>
	<polygon fill="none" stroke="#000000" points="311.493,426.707 310.918,415.74 307.627,415.74 307.217,426.707 	"/>
	<polygon fill="none" stroke="#000000" points="305.078,432.219 305.078,430.848 306.585,430.848 314.4,430.848 314.4,433.645 	"/>
	<rect x="306.585" y="426.871" fill="none" stroke="#000000" width="6.333" height="3.977"/>
	<polygon fill="none" stroke="#000000" points="369.893,415.85 374.252,415.85 373.266,412.903 371.017,412.904 	"/>
	<polygon fill="none" stroke="#000000" points="367.233,442.445 367.233,430.93 377.433,430.93 377.433,444.501 	"/>
	<polygon fill="none" stroke="#000000" points="369.344,430.93 374.992,430.93 374.252,415.85 369.893,415.85 	"/>
	<g>
		<g>
			<path d="M19.771,411.506c3.413,6.144,15.29,3.914,20.822,3.305c7.451-0.821,14.909-1.104,22.393-0.596
				c6.715,0.455,13.103,2.881,19.895,2.232c3.075-0.294,6.039-1.708,9.121-2.17c3.395-0.51,6.878-0.544,10.301-0.706
				c7.981-0.377,15.853,0.57,23.827,0.561c15.229-0.02,30.435-0.166,45.657,0.417c5.398,0.207,10.519,1.445,15.804,2.503
				c5.907,1.182,11.411,1.798,17.338,2.212c3.52,0.245,7.005,0.225,10.504,0.748c2.302,0.345,4.177,1.447,6.447,1.729
				c5.905,0.732,9.864,3.99,15.233,5.907c2.941,1.05,6.472,0.917,9.522,1.642c2.698,0.642,5.323,1.563,8.023,2.199
				c7.17,1.69,14.683,1.529,22.016,1.698c7.499,0.173,15,0.105,22.497-0.099c4.489-0.121,9.12,0.777,13.586,1.337
				c6.744,0.846,13.391,2.836,20.163,3.782c8.604,1.203,17.245,2.025,25.789,3.637c8.706,1.642,17.18,4.009,26.003,5.104
				c6.42,0.798,9.765,1.12,15.006-2.749c2.836-2.093,7.577-1.636,10.964-2.057c5.448-0.678,10.887-1.566,16.216-2.898
				c5.931-1.483,10.849-4.35,15.449-8.349c4.896-4.254,6.808-9.568,10.683-14.564c-0.518,0.09-1.036,0.181-1.554,0.271
				c6.069,5.4,15.457-1.154,22.11-1.932c14.542-1.698,29.386,0.374,43.903,1.273c11.896,0.736,24.81,0.676,35.765-4.515
				c2.734-1.296,5.771-1.304,8.692-1.902c3.193-0.654,5.43-2.539,8.966-2.616c4.724-0.104,9.335-1.687,13.888-2.901
				c1.195-0.319,0.834-1.666-0.361-1.348c-4.319,1.154-8.898,2.739-13.36,2.812c-4.861,0.08-8.762,2.553-13.553,3.007
				c-1.757,0.166-3.561,1.088-5.133,1.787c-3.051,1.356-5.948,2.424-9.241,3.057c-7.639,1.47-15.354,1.63-23.103,1.296
				c-12.597-0.544-25.021-1.906-37.651-1.772c-4.867,0.051-10.14-0.034-14.798,1.582c-4.497,1.56-10.393,4.822-14.638,1.045
				c-0.406-0.361-1.255-0.115-1.554,0.271c-3.721,4.796-5.783,10.062-10.349,14.249c-5.251,4.815-11.259,7.247-18.106,8.739
				c-5.047,1.1-10.192,1.769-15.32,2.357c-1.862,0.214-4.925-0.128-6.647,0.742c-2.842,1.434-5.182,3.997-8.469,4.481
				c-3.85,0.566-8.912-0.992-12.746-1.607c-8.096-1.299-15.978-3.539-24.047-4.951c-7.333-1.283-14.764-1.988-22.141-2.973
				c-6.538-0.872-12.926-2.875-19.422-3.689c-3.227-0.404-6.417-0.909-9.627-1.386c-7.034-1.044-14.926,0.167-22.063,0.124
				c-7.895-0.048-16.109,0.12-23.932-1.07c-3.657-0.557-7.222-1.845-10.792-2.791c-3.56-0.942-7.329-0.858-10.794-2.096
				c-4.411-1.575-7.533-4.335-12.316-5.24c-5.857-1.108-11.199-2.5-17.27-2.717c-11.403-0.405-22.275-4.094-33.608-4.733
				c-12.548-0.709-25.174-0.645-37.735-0.55c-14.653,0.111-29.241-1.455-43.854,0.205c-2.706,0.308-5.246,1.106-7.833,1.913
				c-3.889,1.214-8.503,0.072-12.389-0.681c-6.691-1.296-13.284-1.688-20.092-1.52c-5.393,0.134-10.723,0.882-16.092,1.295
				c-4.179,0.321-11.806,1.152-14.224-3.2C21.11,409.878,19.272,410.606,19.771,411.506L19.771,411.506z"/>
		</g>
	</g>
	<polygon fill="none" stroke="#000000" points="451.566,415.361 453.602,415.361 452.609,414.179 	"/>
	<path fill="none" stroke="#000000" stroke-linecap="square" d="M310.055,346.182c0,0,16.625,2.239,30.385,2.172
		c13.76-0.068,30.951-2.172,30.951-2.172h7.143"/>
</g>
</svg>
