<?xml version="1.0" encoding="utf-8"?>
<!-- Generator: Adobe Illustrator 15.0.2, SVG Export Plug-In . SVG Version: 6.00 Build 0)  -->
<!DOCTYPE svg PUBLIC "-//W3C//DTD SVG 1.1//EN" "http://www.w3.org/Graphics/SVG/1.1/DTD/svg11.dtd">
<svg version="1.1" id="Layer_1" xmlns="http://www.w3.org/2000/svg" xmlns:xlink="http://www.w3.org/1999/xlink" x="0px" y="0px"
	 width="815.528px" height="106.833px" viewBox="0 0 815.528 106.833" enable-background="new 0 0 815.528 106.833"
	 xml:space="preserve">
<g>
	<path fill="#8AD3E7" d="M617.001,88.435c-0.034,0.021-0.07,0.041-0.109,0.059c-1.523,0.701-26.271,11.084-43.092,13.008
		c-16.818,1.924-28.201-0.111-42.619,0.098s-22.42,0.916-35.865,0.963c-13.443,0.047-108.344-1.455-147.221-1.666
		c-38.877-0.213-76.248-6.758-81.273-7.023c-5.027-0.268-30.034-2.278-52.436-3.371c-14.533-0.709-20.575-0.926-23.979-2.066"/>
	<g>
		<g>
			<path d="M267.7,79.083l-6.888,0.165c-0.116,0.002-0.212-0.09-0.214-0.205v-0.006v-0.01c0.04-5.891,0.109-11.781,0.236-17.672
				c0.1-5.89,0.254-11.778,0.488-17.665c0.231-5.887,0.484-11.772,0.643-17.662c0.16-5.889,0.248-11.779,0.314-17.67
				c0.002-0.152,0.125-0.275,0.277-0.275h0.008l5.49-0.007c0.188,0,0.34,0.151,0.342,0.338v0.009
				c0.049,5.884,0.072,11.769,0.062,17.653c0.02,5.885-0.03,11.769-0.073,17.653c-0.014,5.884-0.173,11.768-0.254,17.652
				l-0.15,8.825l-0.232,8.825C267.749,79.06,267.727,79.082,267.7,79.083z M267.649,78.982l-0.143-8.777l-0.062-8.826
				c-0.023-5.885-0.124-11.77-0.078-17.654c0.016-5.884,0.025-11.768,0.104-17.652c0.047-5.884,0.13-11.768,0.237-17.652
				l0.342,0.347l-5.489-0.119l0.285-0.275c-0.227,5.887-0.43,11.775-0.561,17.664c-0.134,5.889-0.173,11.781-0.232,17.672
				c-0.059,5.891-0.195,11.779-0.388,17.668c-0.164,5.889-0.386,11.775-0.638,17.662l-0.214-0.221L267.649,78.982z"/>
		</g>
		<g>
			<path d="M262.596,10.878c-9.046,5.6-18.209,10.997-27.46,16.24c-4.639,2.6-9.328,5.111-13.942,7.753
				c-4.632,2.61-9.204,5.325-13.771,8.05c-9.123,5.466-18.291,10.854-27.521,16.135c-9.223,5.295-18.507,10.48-27.875,15.521
				l-0.051-0.087c9.061-5.576,18.203-11.007,27.41-16.328c9.198-5.336,18.459-10.564,27.764-15.715
				c4.647-2.584,9.29-5.176,13.871-7.875c4.6-2.666,9.125-5.462,13.701-8.171c9.176-5.373,18.441-10.593,27.824-15.609
				L262.596,10.878z"/>
		</g>
		<g>
			<path d="M262.46,14.038c-8.317,5.323-16.755,10.443-25.283,15.411c-4.276,2.461-8.605,4.836-12.857,7.34
				c-4.271,2.473-8.479,5.051-12.683,7.636c-8.397,5.188-16.839,10.302-25.346,15.306c-8.497,5.02-17.059,9.93-25.706,14.696
				l-0.051-0.086c8.332-5.298,16.749-10.452,25.231-15.497c8.473-5.062,17.01-10.014,25.592-14.89
				c4.286-2.446,8.567-4.901,12.786-7.462c4.237-2.528,8.398-5.186,12.611-7.756c8.451-5.097,16.992-10.042,25.654-14.784
				L262.46,14.038z"/>
		</g>
		<g>
			<path d="M262.376,17.197c-7.594,5.046-15.31,9.891-23.118,14.584c-3.917,2.326-7.888,4.564-11.78,6.932
				c-3.911,2.336-7.758,4.775-11.602,7.223c-7.674,4.913-15.395,9.75-23.182,14.48c-7.776,4.744-15.619,9.383-23.551,13.876
				l-0.052-0.085c7.607-5.021,15.304-9.9,23.064-14.671c7.753-4.786,15.57-9.465,23.435-14.067
				c3.927-2.311,7.849-4.629,11.707-7.051c3.877-2.391,7.676-4.91,11.527-7.343c7.73-4.822,15.553-9.493,23.498-13.963
				L262.376,17.197z"/>
		</g>
		<g>
			<path d="M262.208,20.356c-6.861,4.754-13.848,9.309-20.931,13.714c-3.555,2.182-7.164,4.277-10.692,6.5
				c-3.549,2.191-7.031,4.486-10.51,6.789c-6.944,4.622-13.937,9.17-20.996,13.61c-7.051,4.456-14.168,8.806-21.376,13.013
				l-0.054-0.084c6.877-4.73,13.843-9.318,20.877-13.799c7.024-4.498,14.116-8.888,21.256-13.203
				c3.564-2.166,7.123-4.34,10.617-6.618c3.514-2.247,6.947-4.62,10.434-6.907c7.002-4.532,14.1-8.915,21.322-13.099L262.208,20.356
				z"/>
		</g>
		<g>
			<path d="M262.21,23.515c-6.143,4.477-12.416,8.757-18.786,12.89c-3.199,2.046-6.454,4.006-9.626,6.093
				c-3.193,2.055-6.318,4.211-9.438,6.376c-6.229,4.347-12.506,8.62-18.853,12.788c-6.338,4.183-12.744,8.26-19.244,12.197
				l-0.056-0.083c6.158-4.454,12.409-8.767,18.729-12.974c6.311-4.223,12.691-8.342,19.121-12.385
				c3.209-2.03,6.412-4.068,9.549-6.209c3.156-2.109,6.23-4.344,9.359-6.494c6.287-4.258,12.673-8.368,19.188-12.282L262.21,23.515z
				"/>
		</g>
		<g>
			<path d="M262.114,26.674C256.7,30.86,251.15,34.853,245.499,38.7c-2.84,1.903-5.736,3.723-8.549,5.665
				c-2.833,1.912-5.596,3.926-8.354,5.946c-5.504,4.058-11.059,8.043-16.686,11.925c-5.615,3.896-11.305,7.689-17.089,11.345
				l-0.058-0.082c5.432-4.163,10.958-8.188,16.557-12.108c5.59-3.936,11.25-7.769,16.962-11.528c2.851-1.888,5.694-3.784,8.47-5.78
				c2.795-1.967,5.505-4.056,8.273-6.062c5.564-3.971,11.23-7.795,17.031-11.428L262.114,26.674z"/>
		</g>
		<g>
			<path d="M262.075,29.833c-4.691,3.899-9.521,7.608-14.457,11.176c-2.482,1.763-5.026,3.444-7.48,5.247
				c-2.476,1.772-4.879,3.644-7.276,5.522c-4.778,3.779-9.629,7.462-14.519,11.092c-4.922,3.587-9.881,7.121-14.961,10.494
				l-0.061-0.08c4.703-3.883,9.525-7.604,14.386-11.271c4.893-3.625,9.824-7.199,14.828-10.674c2.493-1.749,4.981-3.506,7.396-5.361
				c2.438-1.824,4.785-3.771,7.193-5.635c4.847-3.688,9.798-7.234,14.89-10.59L262.075,29.833z"/>
		</g>
		<g>
			<path d="M261.993,32.992c-3.959,3.6-8.068,7.012-12.283,10.291c-2.131,1.612-4.308,3.166-6.416,4.805
				c-2.104,1.645-4.154,3.355-6.187,5.09c-4.053,3.484-8.182,6.871-12.351,10.209c-4.203,3.296-8.446,6.541-12.815,9.628
				l-0.062-0.078c3.974-3.583,8.071-7.009,12.212-10.384c4.172-3.332,8.385-6.615,12.674-9.803c2.14-1.6,4.26-3.225,6.327-4.915
				c2.062-1.696,4.057-3.478,6.098-5.201c4.126-3.392,8.359-6.648,12.741-9.72L261.993,32.992z"/>
		</g>
		<g>
			<path d="M261.915,36.15c-3.201,3.307-6.561,6.434-10.035,9.436c-1.76,1.473-3.57,2.891-5.308,4.391
				c-1.733,1.506-3.409,3.073-5.065,4.664c-3.3,3.195-6.682,6.301-10.105,9.355c-3.459,3.018-6.963,5.984-10.6,8.801l-0.066-0.074
				c3.215-3.291,6.563-6.432,9.957-9.522c3.428-3.052,6.898-6.056,10.45-8.968c1.771-1.463,3.521-2.949,5.214-4.498
				c1.688-1.555,3.305-3.189,4.971-4.771c3.378-3.106,6.87-6.087,10.521-8.888L261.915,36.15z"/>
		</g>
		<g>
			<path d="M261.842,39.307c-2.493,3.01-5.144,5.863-7.934,8.579c-1.417,1.338-2.887,2.623-4.278,3.984
				c-1.387,1.366-2.713,2.792-4.018,4.239c-2.597,2.907-5.28,5.729-8.01,8.505c-2.768,2.739-5.582,5.433-8.539,7.984l-0.072-0.07
				c2.506-2.997,5.155-5.853,7.852-8.662c2.732-2.772,5.512-5.5,8.379-8.141c1.427-1.327,2.832-2.676,4.177-4.084
				c1.34-1.412,2.602-2.902,3.917-4.34c2.672-2.832,5.484-5.526,8.455-8.065L261.842,39.307z"/>
		</g>
		<g>
			<path d="M261.698,42.462c-1.745,2.703-3.663,5.265-5.733,7.705c-1.06,1.2-2.175,2.354-3.207,3.577
				c-1.026,1.228-1.985,2.507-2.923,3.808c-1.857,2.609-3.811,5.144-5.815,7.637c-2.046,2.459-4.142,4.878-6.395,7.17l-0.078-0.062
				c1.759-2.689,3.675-5.254,5.642-7.777c2.008-2.489,4.066-4.938,6.221-7.311c1.07-1.192,2.115-2.403,3.096-3.668
				c0.975-1.268,1.864-2.605,2.812-3.896c1.942-2.543,4.036-4.963,6.304-7.244L261.698,42.462z"/>
		</g>
		<g>
			<path d="M261.702,45.617c-0.996,2.373-2.203,4.621-3.563,6.781c-0.708,1.062-1.479,2.088-2.158,3.168s-1.271,2.211-1.843,3.354
				c-1.129,2.295-2.364,4.527-3.654,6.727c-1.337,2.172-2.729,4.312-4.296,6.35l-0.086-0.051c1.019-2.359,2.212-4.616,3.462-6.84
				c1.295-2.197,2.646-4.361,4.102-6.463c0.723-1.055,1.422-2.123,2.036-3.24c0.614-1.118,1.136-2.291,1.72-3.427
				c1.227-2.237,2.605-4.386,4.195-6.409L261.702,45.617z"/>
		</g>
		<g>
			<path d="M267.91,45.567c1.481,1.892,2.749,3.905,3.864,6.006c0.529,1.067,0.994,2.171,1.553,3.22
				c0.559,1.051,1.204,2.051,1.871,3.039c1.347,1.968,2.588,3.997,3.771,6.059c1.139,2.088,2.221,4.207,3.129,6.428l-0.088,0.05
				c-1.457-1.905-2.74-3.909-3.966-5.947c-1.181-2.063-2.304-4.16-3.321-6.317c-0.516-1.074-1.053-2.137-1.678-3.148
				c-0.623-1.014-1.34-1.973-1.993-2.969c-1.249-2.023-2.346-4.135-3.229-6.369L267.91,45.567z"/>
		</g>
		<g>
			<path d="M267.923,42.4c2.206,2.078,4.242,4.301,6.129,6.649c0.921,1.194,1.785,2.437,2.732,3.608
				c0.952,1.166,1.969,2.279,3.01,3.371c2.095,2.173,4.096,4.425,6.049,6.719c1.911,2.328,3.773,4.699,5.481,7.2l-0.076,0.064
				c-2.192-2.091-4.23-4.312-6.219-6.574c-1.948-2.297-3.847-4.636-5.652-7.056c-0.909-1.203-1.843-2.387-2.841-3.516
				c-1.002-1.123-2.088-2.178-3.118-3.278c-2.013-2.243-3.877-4.611-5.571-7.124L267.923,42.4z"/>
		</g>
		<g>
			<path d="M267.935,39.236c2.946,2.274,5.741,4.713,8.402,7.295c1.311,1.312,2.57,2.68,3.904,3.967
				c1.34,1.282,2.736,2.502,4.154,3.7c2.847,2.382,5.61,4.854,8.33,7.373c2.684,2.558,5.323,5.163,7.826,7.917l-0.068,0.074
				c-2.934-2.289-5.73-4.725-8.482-7.209c-2.717-2.523-5.389-5.094-7.979-7.754c-1.301-1.323-2.622-2.625-4.001-3.863
				c-1.384-1.234-2.843-2.388-4.25-3.596c-2.774-2.461-5.415-5.064-7.905-7.832L267.935,39.236z"/>
		</g>
		<g>
			<path d="M267.931,36.073c3.732,2.487,7.327,5.151,10.802,7.969c1.718,1.433,3.392,2.924,5.132,4.329
				c1.744,1.399,3.541,2.732,5.355,4.041c3.643,2.603,7.209,5.302,10.736,8.053c3.494,2.791,6.947,5.635,10.277,8.638l-0.061,0.079
				c-3.721-2.502-7.317-5.164-10.873-7.877c-3.524-2.754-7.008-5.56-10.416-8.461c-1.711-1.444-3.439-2.864-5.22-4.217
				c-1.785-1.348-3.638-2.609-5.444-3.929c-3.576-2.688-7.031-5.528-10.35-8.546L267.931,36.073z"/>
		</g>
		<g>
			<path d="M267.929,32.912c4.45,2.692,8.764,5.58,12.979,8.607c2.087,1.545,4.132,3.148,6.239,4.663
				c2.112,1.509,4.271,2.948,6.449,4.362c4.365,2.814,8.66,5.729,12.918,8.696c4.229,3.011,8.419,6.075,12.494,9.305l-0.058,0.082
				c-4.438-2.71-8.761-5.584-13.046-8.513c-4.256-2.971-8.474-5.996-12.621-9.121c-2.08-1.555-4.177-3.084-6.322-4.545
				c-2.148-1.455-4.36-2.82-6.529-4.246c-4.298-2.911-8.498-5.963-12.561-9.209L267.929,32.912z"/>
		</g>
		<g>
			<path d="M268.079,29.751c5.195,2.924,10.264,6.047,15.236,9.32c2.473,1.657,4.891,3.4,7.39,5.017
				c2.479,1.647,5.024,3.191,7.574,4.729c5.116,3.049,10.165,6.201,15.18,9.408c4.986,3.251,9.937,6.558,14.779,10.033l-0.054,0.084
				c-5.185-2.941-10.26-6.053-15.301-9.219c-5.012-3.211-9.988-6.477-14.899-9.846c-2.464-1.672-4.932-3.337-7.466-4.898
				c-2.514-1.592-5.109-3.059-7.65-4.609c-5.053-3.146-10.012-6.441-14.843-9.934L268.079,29.751z"/>
		</g>
		<g>
			<path d="M268.124,26.59c5.951,3.141,11.782,6.483,17.522,9.978c2.857,1.77,5.663,3.627,8.545,5.354
				c2.863,1.76,5.788,3.414,8.72,5.059c5.871,3.275,11.697,6.625,17.459,10.084c5.771,3.443,11.478,6.996,17.098,10.691
				l-0.051,0.086c-5.936-3.164-11.787-6.473-17.573-9.891c-5.796-3.402-11.526-6.912-17.212-10.499
				c-2.849-1.785-5.701-3.562-8.617-5.232c-2.896-1.703-5.869-3.277-8.791-4.938c-5.816-3.365-11.543-6.884-17.15-10.604
				L268.124,26.59z"/>
		</g>
		<g>
			<path d="M268.142,23.43c6.711,3.375,13.308,6.955,19.817,10.69c3.243,1.889,6.436,3.867,9.702,5.714
				c3.248,1.88,6.556,3.651,9.869,5.416c6.635,3.511,13.227,7.099,19.757,10.797c6.539,3.683,13.017,7.475,19.411,11.414
				l-0.049,0.087c-6.697-3.399-13.312-6.945-19.867-10.602c-6.562-3.641-13.062-7.391-19.521-11.219
				c-3.233-1.905-6.472-3.802-9.771-5.592c-3.279-1.822-6.633-3.514-9.938-5.293c-6.583-3.604-13.08-7.363-19.461-11.326
				L268.142,23.43z"/>
		</g>
		<g>
			<path d="M267.924,20.27c7.491,3.585,14.873,7.377,22.172,11.326c3.638,1.998,7.228,4.084,10.888,6.037
				c3.643,1.986,7.344,3.865,11.048,5.735c7.419,3.722,14.796,7.522,22.114,11.435c7.327,3.896,14.595,7.902,21.783,12.059
				l-0.047,0.088c-7.479-3.608-14.878-7.366-22.219-11.236c-7.35-3.853-14.639-7.817-21.889-11.861
				c-3.629-2.012-7.262-4.017-10.953-5.912c-3.674-1.93-7.417-3.725-11.113-5.611c-7.369-3.816-14.654-7.789-21.831-11.969
				L267.924,20.27z"/>
		</g>
		<g>
			<path d="M268.032,17.11c8.247,3.813,16.387,7.835,24.447,12.016c4.018,2.113,7.99,4.316,12.031,6.385
				c4.023,2.103,8.104,4.096,12.188,6.081c8.176,3.951,16.312,7.981,24.391,12.125c8.088,4.127,16.117,8.366,24.07,12.757
				l-0.045,0.088c-8.234-3.838-16.392-7.824-24.492-11.926c-8.109-4.084-16.161-8.28-24.172-12.557
				c-4.012-2.129-8.025-4.248-12.096-6.26c-4.054-2.044-8.176-3.955-12.25-5.955c-8.129-4.047-16.176-8.251-24.117-12.666
				L268.032,17.11z"/>
		</g>
		<g>
			<path d="M268.074,13.95c9.009,4.038,17.913,8.287,26.739,12.695c4.402,2.227,8.76,4.545,13.184,6.728
				c4.407,2.217,8.868,4.323,13.334,6.422c8.939,4.177,17.84,8.434,26.686,12.805c8.853,4.354,17.65,8.822,26.373,13.44l-0.043,0.09
				c-8.996-4.063-17.918-8.276-26.784-12.604c-8.874-4.311-17.692-8.735-26.473-13.24c-4.395-2.242-8.793-4.477-13.245-6.602
				c-4.436-2.157-8.938-4.18-13.396-6.294c-8.893-4.273-17.707-8.706-26.418-13.35L268.074,13.95z"/>
		</g>
		<g>
			<path d="M268.031,10.79c9.776,4.267,19.453,8.746,29.054,13.386c4.789,2.342,9.535,4.776,14.346,7.076
				c4.794,2.332,9.641,4.553,14.491,6.766c9.71,4.408,19.383,8.895,29.001,13.496c9.627,4.586,19.198,9.285,28.698,14.137
				l-0.043,0.09c-9.765-4.293-19.458-8.736-29.097-13.295c-9.646-4.541-19.24-9.197-28.794-13.934
				c-4.782-2.358-9.567-4.708-14.405-6.947c-4.822-2.273-9.709-4.411-14.553-6.64c-9.664-4.503-19.254-9.167-28.741-14.044
				L268.031,10.79z"/>
		</g>
		<g>
			<path d="M264.476,78.982c0.545-0.008,1.09-0.008,1.636-0.04c0.272-0.009,0.546-0.03,0.817-0.054l0.409-0.033l0.204-0.017
				l0.102-0.009l0.05-0.004l0.024-0.003l0.01-0.001c0,0,0.006-0.001,0,0h-0.004c0.016-0.005-0.082,0.01-0.112,0.047
				c0.019-0.029-0.202,0.14,0.063,0.35c0.098,0.021,0.038,0.008,0.059,0.012l-0.014-0.41c0.417-0.041,0.855-0.076,1.307,0.256
				c0.229,0.162,0.32,0.525,0.354,0.668c0.049,0.188,0.102,0.372,0.143,0.559c0.174,0.746,0.327,1.493,0.448,2.246
				c0.255,1.504,0.376,3.031,0.544,4.549l0.002,0.025c0.014,0.117-0.07,0.223-0.188,0.235l-0.035,0.001
				c-1.98-0.118-3.961-0.074-5.939,0.043c-1.98,0.129-3.961,0.193-5.94,0.229c-0.27,0.006-0.492-0.209-0.497-0.479l0.003-0.062
				l0.003-0.023c0.176-1.498,0.369-2.992,0.633-4.478c0.123-0.744,0.258-1.485,0.434-2.228c0.047-0.191,0.082-0.359,0.152-0.583
				c0.059-0.161,0.145-0.435,0.358-0.644c0.253-0.236,0.548-0.24,0.714-0.258c0.186-0.015,0.35-0.033,0.517-0.076l0.041-0.01
				c0.014-0.004,0.028-0.004,0.041-0.004l1.831,0.14C263.255,78.962,263.864,78.974,264.476,78.982z M264.476,79.082
				c-0.611,0.009-1.221,0.021-1.832,0.057l-1.831,0.141l0.081-0.014c-0.35,0.169-0.898,0.232-0.895,0.341
				c-0.037,0.075-0.068,0.175-0.1,0.375l-0.062,0.525c-0.074,0.743-0.164,1.49-0.266,2.235c-0.182,1.492-0.418,2.979-0.666,4.463
				l-0.491-0.566c1.979,0.036,3.96,0.1,5.94,0.23c1.979,0.115,3.959,0.16,5.939,0.042l-0.222,0.261
				c-0.339-1.488-0.726-2.971-0.983-4.473c-0.135-0.75-0.238-1.506-0.326-2.264c-0.059-0.359-0.041-0.842-0.145-0.927
				c-0.137-0.179-0.529-0.277-0.857-0.278l-0.014-0.41c0.022,0.004-0.035-0.01,0.064,0.012c0.268,0.211,0.047,0.379,0.064,0.351
				c-0.031,0.037-0.129,0.052-0.113,0.048h-0.008h-0.014h-0.015l-0.026-0.002l-0.053-0.004l-0.104-0.006l-0.205-0.016l-0.409-0.031
				c-0.272-0.021-0.546-0.041-0.818-0.051C265.565,79.089,265.021,79.089,264.476,79.082z"/>
		</g>
		<path fill="none" stroke="#000000" stroke-linecap="round" stroke-linejoin="round" d="M258.005,88.947h12.815l-0.124-1.482
			c0,0-0.16-0.223-0.402-0.33s-11.88,0-11.88,0s-0.172,0.076-0.204,0.223C258.177,87.501,258.005,88.947,258.005,88.947z"/>
		
			<line fill="none" stroke="#000000" stroke-linecap="round" stroke-linejoin="round" x1="264.237" y1="87.094" x2="264.237" y2="88.914"/>
		<g>
			<path d="M526.881,78.982l6.836-0.164l-0.214,0.221c-0.252-5.887-0.474-11.773-0.638-17.662
				c-0.192-5.889-0.329-11.777-0.387-17.668c-0.06-5.892-0.099-11.783-0.232-17.672c-0.131-5.889-0.334-11.777-0.56-17.664
				l0.285,0.275l-5.49,0.119l0.342-0.347c0.107,5.884,0.189,11.768,0.237,17.652c0.078,5.885,0.087,11.769,0.103,17.652
				c0.047,5.885-0.055,11.77-0.078,17.654l-0.062,8.826L526.881,78.982z M526.78,79.033l-0.232-8.825l-0.149-8.825
				c-0.081-5.885-0.241-11.769-0.254-17.652c-0.043-5.885-0.093-11.769-0.073-17.653c-0.012-5.884,0.013-11.769,0.061-17.653V8.415
				c0.002-0.188,0.154-0.338,0.342-0.338l5.492,0.007h0.006c0.153,0,0.277,0.123,0.279,0.275c0.064,5.891,0.152,11.781,0.314,17.67
				c0.157,5.889,0.41,11.775,0.641,17.662c0.234,5.887,0.389,11.775,0.488,17.665c0.127,5.891,0.196,11.781,0.236,17.672v0.01
				c0.001,0.115-0.092,0.209-0.207,0.211h-0.007l-6.887-0.165C526.803,79.082,526.78,79.06,526.78,79.033z"/>
		</g>
		<g>
			<path d="M398.728,64.937c2.654,0.194,5.309,0.387,7.966,0.514l7.976,0.332l15.948,0.722l31.897,1.45l63.797,2.801
				c10.633,0.438,21.268,0.888,31.901,1.21l31.918,0.812l63.837,1.658c0.207,0.004,0.372,0.176,0.373,0.381l-0.002,1.32
				c0,0.21-0.17,0.38-0.379,0.381h-0.011l-63.837-1.711l-31.918-0.925c-10.641-0.36-21.271-0.85-31.904-1.323l-63.793-2.924
				l-31.896-1.47l-15.947-0.731l-7.977-0.339c-2.66-0.132-5.319-0.312-7.973-0.519l0.021,0.001l-2.92,0.004l0.021-0.001
				c-2.653,0.214-5.312,0.402-7.972,0.541l-7.975,0.362l-15.945,0.778l-31.893,1.562c-21.262,1.037-42.523,2.071-63.79,2.997
				c-10.634,0.461-21.267,0.937-31.91,1.283l-31.919,0.884l-63.84,1.636c-0.268,0.007-0.492-0.206-0.498-0.474v-0.014l-0.001-1.32
				c0-0.264,0.212-0.48,0.476-0.486l63.838-1.604l31.918-0.799c10.633-0.318,21.27-0.765,31.902-1.196l63.798-2.787l31.897-1.447
				l15.948-0.72l7.976-0.331c2.656-0.127,5.31-0.319,7.963-0.514h0.005L398.728,64.937z M398.724,65.037l-2.919,0.006h0.004
				c-2.652,0.204-5.307,0.407-7.965,0.543l-7.975,0.363l-15.946,0.781l-31.891,1.569l-63.787,3.062
				c-10.633,0.484-21.264,0.982-31.906,1.354l-31.916,0.954l-63.84,1.636l0.476-0.488l-0.001,1.32l-0.498-0.486l63.838-1.604
				l31.916-0.869c10.632-0.342,21.266-0.812,31.898-1.268l63.795-2.852l31.896-1.453l15.948-0.723l7.974-0.336
				c2.655-0.129,5.307-0.309,7.959-0.513l0.021-0.001l2.92,0.004h0.021c2.651,0.213,5.302,0.399,7.957,0.537l7.974,0.357
				l15.945,0.77l31.893,1.547c21.262,1.033,42.523,2.047,63.792,2.926c10.634,0.441,21.269,0.898,31.903,1.227l31.918,0.828
				l63.84,1.529l-0.389,0.379l-0.002-1.32l0.372,0.382c-21.28-0.519-42.563-0.954-63.841-1.581l-31.917-0.941
				c-10.642-0.367-21.272-0.861-31.905-1.341l-63.788-3.047l-31.892-1.566l-15.945-0.78l-7.975-0.361
				C404.028,65.443,401.376,65.241,398.724,65.037z"/>
		</g>
		<g>
			<path d="M531.983,10.792c9.383,5.016,18.648,10.236,27.824,15.609c4.576,2.709,9.102,5.505,13.701,8.171
				c4.582,2.699,9.225,5.291,13.871,7.875c9.306,5.15,18.566,10.379,27.764,15.715c9.207,5.321,18.351,10.752,27.41,16.328
				l-0.05,0.087c-9.368-5.04-18.653-10.226-27.875-15.521c-9.23-5.28-18.398-10.669-27.521-16.135
				c-4.567-2.725-9.139-5.439-13.771-8.05c-4.615-2.642-9.304-5.153-13.942-7.753c-9.251-5.243-18.415-10.64-27.46-16.24
				L531.983,10.792z"/>
		</g>
		<g>
			<path d="M532.12,13.952c8.662,4.742,17.204,9.687,25.655,14.784c4.213,2.571,8.374,5.228,12.611,7.756
				c4.219,2.561,8.499,5.016,12.786,7.462c8.582,4.876,17.119,9.828,25.592,14.89c8.482,5.045,16.9,10.199,25.231,15.497
				l-0.051,0.086c-8.647-4.767-17.209-9.677-25.706-14.696c-8.507-5.004-16.949-10.117-25.346-15.306
				c-4.203-2.585-8.412-5.163-12.684-7.636c-4.252-2.504-8.58-4.879-12.857-7.34c-8.527-4.968-16.965-10.088-25.283-15.411
				L532.12,13.952z"/>
		</g>
		<g>
			<path d="M532.206,17.112c7.945,4.47,15.768,9.141,23.498,13.963c3.852,2.433,7.65,4.952,11.528,7.343
				c3.858,2.422,7.78,4.74,11.706,7.051c7.865,4.603,15.684,9.281,23.436,14.067c7.762,4.771,15.457,9.649,23.064,14.671
				l-0.053,0.085c-7.93-4.493-15.773-9.132-23.551-13.876c-7.787-4.73-15.508-9.567-23.182-14.48
				c-3.843-2.447-7.69-4.887-11.602-7.223c-3.893-2.367-7.863-4.605-11.78-6.932c-7.809-4.693-15.524-9.538-23.118-14.584
				L532.206,17.112z"/>
		</g>
		<g>
			<path d="M532.375,20.272c7.223,4.184,14.319,8.566,21.321,13.099c3.488,2.287,6.92,4.66,10.434,6.907
				c3.494,2.278,7.053,4.452,10.617,6.618c7.141,4.315,14.232,8.705,21.256,13.203c7.035,4.48,14.001,9.068,20.877,13.799
				l-0.053,0.084c-7.209-4.207-14.326-8.557-21.377-13.013c-7.059-4.44-14.051-8.988-20.996-13.61
				c-3.478-2.303-6.961-4.598-10.51-6.789c-3.527-2.223-7.137-4.318-10.691-6.5c-7.083-4.405-14.07-8.96-20.932-13.714
				L532.375,20.272z"/>
		</g>
		<g>
			<path d="M532.376,23.432c6.516,3.914,12.9,8.024,19.188,12.282c3.13,2.15,6.203,4.385,9.36,6.494
				c3.136,2.141,6.34,4.179,9.549,6.209c6.43,4.043,12.81,8.162,19.12,12.385c6.32,4.207,12.572,8.52,18.73,12.974l-0.057,0.083
				c-6.499-3.938-12.906-8.015-19.243-12.197c-6.347-4.168-12.624-8.441-18.853-12.788c-3.121-2.165-6.246-4.321-9.438-6.376
				c-3.172-2.087-6.427-4.047-9.626-6.093c-6.371-4.133-12.644-8.413-18.786-12.89L532.376,23.432z"/>
		</g>
		<g>
			<path d="M532.474,26.592c5.8,3.632,11.466,7.457,17.031,11.428c2.768,2.006,5.477,4.095,8.273,6.062
				c2.773,1.996,5.619,3.893,8.469,5.78c5.711,3.76,11.372,7.593,16.961,11.528c5.6,3.921,11.126,7.945,16.557,12.108l-0.057,0.082
				c-5.785-3.655-11.473-7.448-17.09-11.345c-5.626-3.882-11.181-7.867-16.685-11.925c-2.757-2.021-5.521-4.034-8.354-5.946
				c-2.811-1.942-5.709-3.762-8.549-5.665c-5.65-3.847-11.199-7.84-16.615-12.025L532.474,26.592z"/>
		</g>
		<g>
			<path d="M532.515,29.753c5.092,3.356,10.044,6.903,14.891,10.59c2.408,1.864,4.756,3.811,7.193,5.635
				c2.414,1.855,4.902,3.612,7.396,5.361c5.004,3.475,9.936,7.049,14.828,10.674c4.86,3.668,9.683,7.389,14.385,11.271l-0.06,0.08
				c-5.08-3.373-10.04-6.907-14.962-10.494c-4.889-3.63-9.74-7.312-14.518-11.092c-2.398-1.879-4.801-3.75-7.277-5.522
				c-2.453-1.803-4.997-3.484-7.48-5.247c-4.936-3.568-9.766-7.277-14.456-11.176L532.515,29.753z"/>
		</g>
		<g>
			<path d="M532.599,32.914c4.383,3.071,8.615,6.328,12.742,9.72c2.041,1.724,4.035,3.505,6.098,5.201
				c2.066,1.69,4.188,3.315,6.326,4.915c4.289,3.188,8.502,6.471,12.675,9.803c4.14,3.375,8.239,6.801,12.212,10.384l-0.062,0.078
				c-4.369-3.087-8.613-6.332-12.815-9.628c-4.169-3.338-8.298-6.725-12.351-10.209c-2.032-1.734-4.084-3.445-6.188-5.09
				c-2.107-1.639-4.285-3.192-6.414-4.805c-4.217-3.279-8.325-6.691-12.285-10.291L532.599,32.914z"/>
		</g>
		<g>
			<path d="M532.682,36.076c3.651,2.801,7.144,5.781,10.522,8.888c1.665,1.581,3.281,3.216,4.97,4.771
				c1.693,1.549,3.442,3.035,5.214,4.498c3.552,2.912,7.022,5.916,10.45,8.968c3.393,3.091,6.741,6.231,9.956,9.522l-0.066,0.074
				c-3.637-2.816-7.14-5.783-10.6-8.801c-3.424-3.055-6.806-6.16-10.105-9.355c-1.656-1.591-3.332-3.158-5.064-4.664
				c-1.738-1.5-3.547-2.918-5.309-4.391c-3.473-3.002-6.833-6.129-10.034-9.436L532.682,36.076z"/>
		</g>
		<g>
			<path d="M532.759,39.237c2.971,2.539,5.783,5.233,8.456,8.065c1.315,1.438,2.577,2.928,3.917,4.34
				c1.344,1.408,2.75,2.757,4.176,4.084c2.867,2.641,5.646,5.368,8.381,8.141c2.695,2.81,5.344,5.665,7.85,8.662l-0.071,0.07
				c-2.958-2.552-5.771-5.245-8.539-7.984c-2.729-2.775-5.413-5.598-8.01-8.505c-1.305-1.447-2.632-2.873-4.018-4.239
				c-1.392-1.361-2.862-2.646-4.278-3.984c-2.791-2.716-5.441-5.569-7.934-8.579L532.759,39.237z"/>
		</g>
		<g>
			<path d="M532.91,42.4c2.267,2.281,4.361,4.701,6.304,7.244c0.947,1.291,1.836,2.629,2.811,3.896
				c0.98,1.265,2.026,2.476,3.096,3.668c2.154,2.372,4.213,4.821,6.221,7.311c1.967,2.523,3.883,5.088,5.643,7.777l-0.078,0.062
				c-2.254-2.292-4.35-4.711-6.395-7.17c-2.005-2.493-3.958-5.027-5.816-7.637c-0.936-1.301-1.896-2.58-2.922-3.808
				c-1.032-1.223-2.148-2.377-3.207-3.577c-2.07-2.44-3.988-5.002-5.733-7.705L532.91,42.4z"/>
		</g>
		<g>
			<path d="M532.914,45.566c1.59,2.023,2.968,4.172,4.194,6.409c0.585,1.136,1.105,2.309,1.721,3.427
				c0.613,1.117,1.314,2.186,2.035,3.24c1.457,2.102,2.808,4.266,4.103,6.463c1.249,2.224,2.442,4.48,3.462,6.84l-0.086,0.051
				c-1.566-2.037-2.959-4.178-4.295-6.35c-1.291-2.199-2.525-4.432-3.655-6.727c-0.571-1.143-1.164-2.273-1.843-3.354
				s-1.451-2.105-2.158-3.168c-1.359-2.16-2.567-4.408-3.563-6.781L532.914,45.566z"/>
		</g>
		<g>
			<path d="M526.706,45.617c-0.883,2.234-1.979,4.346-3.229,6.369c-0.653,0.996-1.371,1.955-1.994,2.969
				c-0.624,1.012-1.161,2.074-1.677,3.148c-1.018,2.157-2.142,4.254-3.321,6.317c-1.227,2.038-2.509,4.042-3.967,5.947l-0.086-0.05
				c0.906-2.221,1.988-4.34,3.127-6.428c1.185-2.062,2.426-4.091,3.772-6.059c0.667-0.988,1.312-1.988,1.87-3.039
				c0.559-1.049,1.023-2.152,1.553-3.22c1.115-2.101,2.384-4.114,3.865-6.006L526.706,45.617z"/>
		</g>
		<g>
			<path d="M526.684,42.464c-1.694,2.513-3.558,4.881-5.571,7.124c-1.029,1.101-2.115,2.155-3.119,3.278
				c-0.997,1.129-1.93,2.312-2.84,3.516c-1.806,2.42-3.705,4.759-5.652,7.056c-1.988,2.263-4.027,4.483-6.219,6.574l-0.076-0.064
				c1.708-2.501,3.57-4.872,5.481-7.2c1.952-2.294,3.954-4.546,6.048-6.719c1.041-1.092,2.059-2.205,3.011-3.371
				c0.947-1.172,1.812-2.414,2.731-3.608c1.888-2.349,3.924-4.571,6.13-6.649L526.684,42.464z"/>
		</g>
		<g>
			<path d="M526.663,39.308c-2.49,2.768-5.131,5.371-7.904,7.832c-1.408,1.208-2.866,2.361-4.25,3.596
				c-1.379,1.238-2.701,2.54-4.002,3.863c-2.589,2.66-5.261,5.23-7.978,7.754c-2.752,2.484-5.549,4.92-8.482,7.209l-0.068-0.074
				c2.503-2.754,5.142-5.359,7.825-7.917c2.721-2.52,5.484-4.991,8.331-7.373c1.417-1.198,2.813-2.418,4.153-3.7
				c1.334-1.287,2.594-2.654,3.904-3.967c2.662-2.582,5.457-5.021,8.402-7.295L526.663,39.308z"/>
		</g>
		<g>
			<path d="M526.66,36.152c-3.319,3.017-6.774,5.858-10.351,8.546c-1.807,1.319-3.658,2.581-5.443,3.929
				c-1.781,1.353-3.51,2.772-5.219,4.217c-3.409,2.901-6.893,5.707-10.416,8.461c-3.557,2.713-7.152,5.375-10.873,7.877
				l-0.062-0.079c3.33-3.003,6.784-5.847,10.279-8.638c3.525-2.751,7.093-5.45,10.734-8.053c1.815-1.309,3.612-2.642,5.357-4.041
				c1.739-1.405,3.412-2.896,5.131-4.329c3.475-2.817,7.068-5.48,10.801-7.969L526.66,36.152z"/>
		</g>
		<g>
			<path d="M526.658,32.994c-4.063,3.246-8.263,6.298-12.561,9.209c-2.169,1.426-4.381,2.791-6.53,4.246
				c-2.145,1.461-4.242,2.99-6.321,4.545c-4.147,3.125-8.366,6.15-12.621,9.121c-4.286,2.929-8.608,5.803-13.046,8.513l-0.059-0.082
				c4.076-3.229,8.266-6.294,12.494-9.305c4.258-2.968,8.553-5.882,12.918-8.696c2.178-1.414,4.338-2.854,6.449-4.362
				c2.107-1.515,4.152-3.118,6.24-4.663c4.215-3.027,8.529-5.915,12.979-8.607L526.658,32.994z"/>
		</g>
		<g>
			<path d="M526.505,29.835c-4.832,3.493-9.79,6.788-14.844,9.934c-2.541,1.551-5.136,3.018-7.65,4.609
				c-2.534,1.562-5.002,3.227-7.465,4.898c-4.912,3.369-9.889,6.635-14.9,9.846c-5.041,3.166-10.116,6.277-15.301,9.219
				l-0.054-0.084c4.843-3.476,9.793-6.782,14.779-10.033c5.015-3.207,10.063-6.359,15.18-9.408c2.55-1.537,5.095-3.081,7.574-4.729
				c2.499-1.616,4.917-3.359,7.39-5.017c4.973-3.272,10.041-6.396,15.236-9.32L526.505,29.835z"/>
		</g>
		<g>
			<path d="M526.456,26.676c-5.606,3.721-11.333,7.239-17.15,10.604c-2.921,1.661-5.895,3.235-8.791,4.938
				c-2.915,1.671-5.768,3.447-8.616,5.232c-5.686,3.587-11.417,7.097-17.212,10.499c-5.787,3.418-11.638,6.727-17.574,9.891
				l-0.051-0.086c5.621-3.695,11.327-7.248,17.098-10.691c5.762-3.459,11.588-6.809,17.46-10.084
				c2.931-1.645,5.856-3.299,8.72-5.059c2.882-1.727,5.688-3.584,8.545-5.354c5.74-3.494,11.57-6.837,17.521-9.978L526.456,26.676z"
				/>
		</g>
		<g>
			<path d="M526.438,23.517c-6.382,3.963-12.878,7.723-19.461,11.326c-3.304,1.779-6.657,3.471-9.938,5.293
				c-3.297,1.79-6.536,3.687-9.77,5.592c-6.457,3.828-12.959,7.578-19.521,11.219c-6.553,3.656-13.169,7.202-19.867,10.602
				l-0.049-0.087c6.396-3.939,12.873-7.731,19.412-11.414c6.53-3.698,13.122-7.286,19.758-10.797
				c3.312-1.765,6.621-3.536,9.869-5.416c3.266-1.847,6.459-3.825,9.701-5.714c6.51-3.735,13.105-7.315,19.817-10.69L526.438,23.517
				z"/>
		</g>
		<g>
			<path d="M526.653,20.358c-7.176,4.181-14.463,8.153-21.832,11.969c-3.695,1.887-7.439,3.682-11.113,5.611
				c-3.69,1.896-7.324,3.9-10.953,5.912c-7.248,4.044-14.539,8.009-21.889,11.861c-7.34,3.87-14.74,7.628-22.219,11.236
				l-0.047-0.088c7.189-4.156,14.457-8.163,21.783-12.059c7.318-3.912,14.695-7.713,22.115-11.435
				c3.705-1.87,7.404-3.749,11.047-5.735c3.66-1.953,7.251-4.039,10.889-6.037c7.299-3.949,14.68-7.741,22.172-11.326
				L526.653,20.358z"/>
		</g>
		<g>
			<path d="M526.542,17.199c-7.94,4.415-15.988,8.619-24.116,12.666c-4.075,2-8.196,3.911-12.25,5.955
				c-4.07,2.012-8.085,4.131-12.095,6.26c-8.012,4.276-16.064,8.473-24.173,12.557c-8.101,4.102-16.259,8.088-24.493,11.926
				l-0.045-0.088c7.954-4.391,15.984-8.63,24.071-12.757c8.079-4.144,16.215-8.174,24.392-12.125
				c4.083-1.985,8.162-3.979,12.186-6.081c4.041-2.069,8.014-4.272,12.032-6.385c8.06-4.181,16.2-8.203,24.446-12.016
				L526.542,17.199z"/>
		</g>
		<g>
			<path d="M526.499,14.04c-8.711,4.644-17.525,9.076-26.418,13.35c-4.457,2.114-8.96,4.137-13.396,6.294
				c-4.451,2.125-8.85,4.359-13.244,6.602c-8.78,4.505-17.599,8.93-26.473,13.24c-8.867,4.328-17.789,8.541-26.784,12.604
				l-0.044-0.09c8.724-4.618,17.521-9.087,26.374-13.44c8.845-4.371,17.745-8.628,26.686-12.805
				c4.466-2.099,8.927-4.205,13.333-6.422c4.424-2.183,8.781-4.5,13.184-6.728c8.827-4.408,17.731-8.657,26.74-12.695L526.499,14.04
				z"/>
		</g>
		<g>
			<path d="M526.542,10.88c-9.488,4.876-19.077,9.541-28.742,14.044c-4.843,2.229-9.729,4.367-14.552,6.64
				c-4.839,2.239-9.624,4.589-14.405,6.947c-9.555,4.736-19.147,9.393-28.794,13.934c-9.64,4.559-19.332,9.002-29.097,13.295
				l-0.043-0.09c9.5-4.852,19.071-9.551,28.697-14.137c9.619-4.602,19.291-9.088,29.002-13.496c4.85-2.213,9.697-4.434,14.491-6.766
				c4.81-2.299,9.556-4.733,14.345-7.076c9.602-4.64,19.277-9.119,29.055-13.386L526.542,10.88z"/>
		</g>
		<path fill="none" stroke="#000000" stroke-linecap="round" stroke-linejoin="round" d="M530.055,79.032
			c-3.511,0.001-3.265-0.007-3.265-0.007s-1.125-0.113-1.268,0.602c-0.144,0.715-1.286,7.508-1.286,7.508h11.88
			c0,0-0.906-6.41-1.099-7.227c-0.21-0.889-0.536-0.605-1.301-0.875L530.055,79.032z"/>
		<path fill="none" stroke="#000000" stroke-linecap="round" stroke-linejoin="round" d="M536.524,88.947H523.71l0.124-1.482
			c0,0,0.16-0.223,0.402-0.33s11.88,0,11.88,0s0.172,0.076,0.203,0.223C536.353,87.501,536.524,88.947,536.524,88.947z"/>
		
			<line fill="none" stroke="#000000" stroke-linecap="round" stroke-linejoin="round" x1="530.292" y1="87.094" x2="530.292" y2="88.914"/>
	</g>
	<line fill="none" stroke="#000000" stroke-linejoin="round" x1="653.785" y1="74.803" x2="704.804" y2="76.421"/>
	<path fill="none" stroke="#000000" stroke-linejoin="round" d="M140.571,74.816"/>
	<path fill="#6CC4EF" stroke="#000000" stroke-linejoin="round" d="M631.153,81.886"/>
	
		<line fill="none" stroke="#000000" stroke-linecap="round" stroke-linejoin="round" x1="258.005" y1="88.947" x2="258.005" y2="93.21"/>
	
		<line fill="none" stroke="#000000" stroke-linecap="round" stroke-linejoin="round" x1="270.82" y1="88.947" x2="270.82" y2="94.335"/>
	
		<line fill="none" stroke="#000000" stroke-linecap="round" stroke-linejoin="round" x1="523.71" y1="88.947" x2="523.71" y2="101.816"/>
	
		<line fill="none" stroke="#000000" stroke-linecap="round" stroke-linejoin="round" x1="536.524" y1="88.947" x2="536.524" y2="101.636"/>
	<path fill="none" stroke="#000000" stroke-linejoin="round" d="M704.771,76.392c-5.406,1.435-28.672,1.435-28.672,1.435
		s-9.67,2.421-13.899,2.286c-4.229-0.133-29.007,0.438-36.778,1.982c-7.772,1.545-7.034,5.706-8.559,6.406
		c-1.525,0.701-26.273,11.084-43.093,13.008s-28.202-0.111-42.62,0.098s-22.42,0.916-35.864,0.963s-108.343-1.453-147.222-1.666
		c-38.877-0.213-76.246-6.758-81.273-7.023c-5.026-0.268-30.033-2.277-52.435-3.371c-22.401-1.092-24.628-1.018-28.112-4.953
		s-4.691-5.787-6.281-5.895c-1.589-0.109-15.857-1.777-45.928-0.612c0,0-9.977-0.847-19.947-2.913L704.771,76.392z"/>
	<path fill="none" stroke="#000000" stroke-linejoin="round" d="M617.126,88.347c-0.039,0.031-0.081,0.062-0.125,0.088"/>
	<line fill="none" stroke="#000000" stroke-linejoin="round" x1="140.571" y1="74.816" x2="114.087" y2="76.136"/>
</g>
</svg>
